<svg xmlns="http://www.w3.org/2000/svg" width="1200" height="630" viewBox="0 0 1200 630" role="img" aria-label="LeetCode 240 staircase search diagram">
  <defs>
    <linearGradient id="bg" x1="0" x2="1" y1="0" y2="1">
      <stop offset="0%" stop-color="#0f172a"/>
      <stop offset="100%" stop-color="#1e293b"/>
    </linearGradient>
    <marker id="arrow" markerWidth="10" markerHeight="10" refX="8" refY="3" orient="auto">
      <path d="M0,0 L0,6 L9,3 z" fill="#f59e0b"/>
    </marker>
  </defs>
  <rect width="1200" height="630" fill="url(#bg)"/>
  <text x="60" y="90" fill="#e2e8f0" font-size="42" font-family="Inter,Arial,sans-serif" font-weight="700">LeetCode 240 · Search a 2D Matrix II</text>
  <text x="60" y="135" fill="#93c5fd" font-size="28" font-family="Inter,Arial,sans-serif">Top-right staircase search: &gt; target go left, &lt; target go down</text>

  <g transform="translate(120,190)">
    <rect x="0" y="0" width="620" height="320" rx="14" fill="#111827" stroke="#334155"/>
    <g fill="#cbd5e1" font-family="monospace" font-size="26" text-anchor="middle" dominant-baseline="middle">
      <rect x="30" y="25" width="110" height="70" fill="#1f2937"/><text x="85" y="60">1</text>
      <rect x="140" y="25" width="110" height="70" fill="#1f2937"/><text x="195" y="60">4</text>
      <rect x="250" y="25" width="110" height="70" fill="#1f2937"/><text x="305" y="60">7</text>
      <rect x="360" y="25" width="110" height="70" fill="#1f2937"/><text x="415" y="60">11</text>
      <rect x="470" y="25" width="110" height="70" fill="#0b3b66" stroke="#38bdf8"/><text x="525" y="60">15</text>

      <rect x="30" y="95" width="110" height="70" fill="#1f2937"/><text x="85" y="130">2</text>
      <rect x="140" y="95" width="110" height="70" fill="#1f2937"/><text x="195" y="130">5</text>
      <rect x="250" y="95" width="110" height="70" fill="#1f2937"/><text x="305" y="130">8</text>
      <rect x="360" y="95" width="110" height="70" fill="#0b3b66" stroke="#38bdf8"/><text x="415" y="130">12</text>
      <rect x="470" y="95" width="110" height="70" fill="#1f2937"/><text x="525" y="130">19</text>

      <rect x="30" y="165" width="110" height="70" fill="#1f2937"/><text x="85" y="200">3</text>
      <rect x="140" y="165" width="110" height="70" fill="#1f2937"/><text x="195" y="200">6</text>
      <rect x="250" y="165" width="110" height="70" fill="#0b3b66" stroke="#38bdf8"/><text x="305" y="200">9</text>
      <rect x="360" y="165" width="110" height="70" fill="#1f2937"/><text x="415" y="200">16</text>
      <rect x="470" y="165" width="110" height="70" fill="#1f2937"/><text x="525" y="200">22</text>

      <rect x="30" y="235" width="110" height="70" fill="#1f2937"/><text x="85" y="270">10</text>
      <rect x="140" y="235" width="110" height="70" fill="#1f2937"/><text x="195" y="270">13</text>
      <rect x="250" y="235" width="110" height="70" fill="#1f2937"/><text x="305" y="270">14</text>
      <rect x="360" y="235" width="110" height="70" fill="#1f2937"/><text x="415" y="270">17</text>
      <rect x="470" y="235" width="110" height="70" fill="#1f2937"/><text x="525" y="270">24</text>
    </g>

    <path d="M525,60 L415,60 L415,130 L305,130 L305,200" fill="none" stroke="#f59e0b" stroke-width="6" marker-end="url(#arrow)"/>
  </g>

  <text x="790" y="250" fill="#e5e7eb" font-size="34" font-family="Inter,Arial,sans-serif">Target = 9</text>
  <text x="790" y="305" fill="#f8fafc" font-size="28" font-family="Inter,Arial,sans-serif">15 &gt; 9 ←</text>
  <text x="790" y="345" fill="#f8fafc" font-size="28" font-family="Inter,Arial,sans-serif">11 &gt; 9 ←</text>
  <text x="790" y="385" fill="#f8fafc" font-size="28" font-family="Inter,Arial,sans-serif">7 &lt; 9 ↓</text>
  <text x="790" y="425" fill="#f8fafc" font-size="28" font-family="Inter,Arial,sans-serif">8 &lt; 9 ↓</text>
  <text x="790" y="465" fill="#86efac" font-size="28" font-family="Inter,Arial,sans-serif">9 found ✓</text>
  <text x="790" y="540" fill="#93c5fd" font-size="24" font-family="Inter,Arial,sans-serif">Author: Tom🦞</text>
</svg>
