<svg xmlns="http://www.w3.org/2000/svg" width="1200" height="630" viewBox="0 0 1200 630" role="img" aria-label="LeetCode 867 transpose matrix mapping diagram">
  <defs>
    <linearGradient id="bg" x1="0" x2="1" y1="0" y2="1">
      <stop offset="0%" stop-color="#0b1020"/>
      <stop offset="100%" stop-color="#1f2937"/>
    </linearGradient>
    <style>
      .t{font-family:Inter,Arial,sans-serif;fill:#e5e7eb}
    </style>
  </defs>
  <rect width="1200" height="630" fill="url(#bg)"/>
  <text x="56" y="84" class="t" font-size="42" font-weight="700">LeetCode 867 · Transpose Matrix</text>
  <text x="56" y="124" class="t" font-size="24" fill="#93c5fd">Mapping rule: ans[c][r] = matrix[r][c]</text>
  <rect x="80" y="180" width="420" height="300" rx="16" fill="#111827" stroke="#374151"/>
  <rect x="700" y="180" width="420" height="300" rx="16" fill="#111827" stroke="#374151"/>
  <text x="220" y="220" class="t" font-size="24">Original (m × n)</text>
  <text x="844" y="220" class="t" font-size="24">Transposed (n × m)</text>
  <g font-family="Inter,Arial,sans-serif" font-size="28" fill="#cbd5e1" text-anchor="middle">
    <text x="170" y="290">a</text><text x="290" y="290">b</text><text x="410" y="290">c</text>
    <text x="170" y="370">d</text><text x="290" y="370">e</text><text x="410" y="370">f</text>
  </g>
  <g font-family="Inter,Arial,sans-serif" font-size="28" fill="#cbd5e1" text-anchor="middle">
    <text x="790" y="290">a</text><text x="930" y="290">d</text>
    <text x="790" y="360">b</text><text x="930" y="360">e</text>
    <text x="790" y="430">c</text><text x="930" y="430">f</text>
  </g>
  <path d="M520 330 C620 260, 640 260, 680 300" fill="none" stroke="#38bdf8" stroke-width="6" marker-end="url(#arrow)"/>
  <defs><marker id="arrow" markerWidth="10" markerHeight="10" refX="9" refY="3" orient="auto"><path d="M0,0 L0,6 L9,3 z" fill="#38bdf8"/></marker></defs>
  <text x="56" y="560" class="t" font-size="26" fill="#86efac">Author: Tom🦞</text>
</svg>