<svg xmlns="http://www.w3.org/2000/svg" width="1200" height="630" viewBox="0 0 1200 630" role="img" aria-label="LeetCode 125 Valid Palindrome two pointers diagram">
  <defs>
    <linearGradient id="bg" x1="0" y1="0" x2="1" y2="1">
      <stop offset="0%" stop-color="#0f172a"/>
      <stop offset="100%" stop-color="#1e293b"/>
    </linearGradient>
    <style>
      .t{font-family:'Segoe UI',Arial,sans-serif;fill:#e2e8f0}
      .m{font-size:44px;font-weight:700}
      .s{font-size:24px;fill:#94a3b8}
      .box{fill:#111827;stroke:#334155;stroke-width:2;rx:12}
      .c{font-size:42px;font-weight:700;fill:#f8fafc}
    </style>
  </defs>
  <rect width="1200" height="630" fill="url(#bg)"/>
  <text x="60" y="90" class="t m">LeetCode 125 · Valid Palindrome</text>
  <text x="60" y="130" class="t s">Two pointers skip non-alnum, compare lowercase inward</text>

  <g transform="translate(90,220)">
    <rect class="box" x="0" y="0" width="120" height="120"/>
    <rect class="box" x="130" y="0" width="120" height="120"/>
    <rect class="box" x="260" y="0" width="120" height="120"/>
    <rect class="box" x="390" y="0" width="120" height="120"/>
    <rect class="box" x="520" y="0" width="120" height="120"/>
    <rect class="box" x="650" y="0" width="120" height="120"/>
    <rect class="box" x="780" y="0" width="120" height="120"/>
    <rect class="box" x="910" y="0" width="120" height="120"/>

    <text x="45" y="76" class="t c">A</text>
    <text x="176" y="76" class="t c">,</text>
    <text x="305" y="76" class="t c">m</text>
    <text x="436" y="76" class="t c">a</text>
    <text x="566" y="76" class="t c">n</text>
    <text x="696" y="76" class="t c">:</text>
    <text x="825" y="76" class="t c">a</text>
    <text x="956" y="76" class="t c">M</text>

    <path d="M 60 150 C 60 210, 975 210, 975 150" fill="none" stroke="#22d3ee" stroke-width="6"/>
    <polygon points="975,150 955,140 960,160" fill="#22d3ee"/>
    <polygon points="60,150 80,140 75,160" fill="#22d3ee"/>

    <text x="10" y="270" class="t s">left pointer</text>
    <text x="900" y="270" class="t s">right pointer</text>
  </g>

  <text x="60" y="580" class="t s">Source: https://leetcode.com/problems/valid-palindrome/</text>
</svg>
