<svg xmlns="http://www.w3.org/2000/svg" width="1200" height="630" viewBox="0 0 1200 630" role="img" aria-label="LeetCode 112 Path Sum DFS root-to-leaf target subtraction diagram">
  <defs>
    <linearGradient id="bg" x1="0" x2="1" y1="0" y2="1">
      <stop offset="0%" stop-color="#0b1220"/>
      <stop offset="100%" stop-color="#111827"/>
    </linearGradient>
    <style>
      .t{font-family:Inter,Arial,sans-serif;fill:#e5e7eb}
      .m{font-family:Inter,Arial,sans-serif;fill:#93c5fd}
      .n{font-family:JetBrains Mono,Consolas,monospace;fill:#fde68a}
      .e{stroke:#60a5fa;stroke-width:4;fill:none}
      .c{fill:#1f2937;stroke:#6b7280;stroke-width:2}
    </style>
  </defs>
  <rect width="1200" height="630" fill="url(#bg)"/>
  <text x="56" y="88" class="t" font-size="46" font-weight="700">LeetCode 112: Path Sum</text>
  <text x="56" y="130" class="m" font-size="28">DFS invariant: remaining = targetSum - sum(path)</text>

  <path d="M280 240 L180 340" class="e"/>
  <path d="M280 240 L380 340" class="e"/>
  <path d="M180 340 L130 450" class="e"/>
  <path d="M180 340 L230 450" class="e"/>
  <path d="M380 340 L470 450" class="e"/>

  <circle cx="280" cy="220" r="44" class="c"/>
  <circle cx="180" cy="360" r="38" class="c"/>
  <circle cx="380" cy="360" r="38" class="c"/>
  <circle cx="130" cy="470" r="34" class="c"/>
  <circle cx="230" cy="470" r="34" class="c"/>
  <circle cx="470" cy="470" r="34" class="c"/>

  <text x="267" y="228" class="t" font-size="30">5</text>
  <text x="169" y="368" class="t" font-size="28">4</text>
  <text x="369" y="368" class="t" font-size="28">8</text>
  <text x="121" y="478" class="t" font-size="24">11</text>
  <text x="222" y="478" class="t" font-size="24">13</text>
  <text x="461" y="478" class="t" font-size="24">4</text>

  <rect x="630" y="210" width="500" height="300" rx="20" fill="#111827" stroke="#374151"/>
  <text x="662" y="270" class="n" font-size="28">target = 22</text>
  <text x="662" y="320" class="n" font-size="28">5 -&gt; 4 -&gt; 11 -&gt; 2</text>
  <text x="662" y="370" class="n" font-size="28">remaining: 22→17→13→2→0 ✓</text>
  <text x="662" y="430" class="n" font-size="26">Leaf check: left == null &amp;&amp; right == null</text>
</svg>
