<svg xmlns="http://www.w3.org/2000/svg" width="1200" height="630" viewBox="0 0 1200 630" role="img" aria-label="LeetCode 120 triangle bottom-up DP diagram">
  <defs>
    <linearGradient id="bg" x1="0" y1="0" x2="1" y2="1">
      <stop offset="0%" stop-color="#0f172a"/>
      <stop offset="100%" stop-color="#111827"/>
    </linearGradient>
  </defs>
  <rect width="1200" height="630" fill="url(#bg)"/>
  <text x="60" y="90" fill="#e5e7eb" font-size="44" font-family="Inter,Arial,sans-serif" font-weight="700">LeetCode 120 · Triangle</text>
  <text x="60" y="132" fill="#93c5fd" font-size="28" font-family="Inter,Arial,sans-serif">Bottom-Up DP: dp[col] = val + min(dp[col], dp[col+1])</text>
  <polygon points="180,220 360,220 270,290" fill="#1f2937" stroke="#60a5fa" stroke-width="2"/>
  <polygon points="120,320 420,320 270,400" fill="#1f2937" stroke="#60a5fa" stroke-width="2"/>
  <polygon points="60,430 480,430 270,520" fill="#1f2937" stroke="#60a5fa" stroke-width="2"/>
  <text x="260" y="265" text-anchor="middle" fill="#f8fafc" font-size="30">2</text>
  <text x="195" y="365" text-anchor="middle" fill="#f8fafc" font-size="28">3</text>
  <text x="345" y="365" text-anchor="middle" fill="#f8fafc" font-size="28">4</text>
  <text x="130" y="475" text-anchor="middle" fill="#f8fafc" font-size="26">6</text>
  <text x="270" y="475" text-anchor="middle" fill="#f8fafc" font-size="26">5</text>
  <text x="410" y="475" text-anchor="middle" fill="#f8fafc" font-size="26">7</text>
  <path d="M270 268 L195 348" stroke="#86efac" stroke-width="4" marker-end="url(#arr)"/>
  <path d="M195 368 L270 458" stroke="#86efac" stroke-width="4" marker-end="url(#arr)"/>
  <defs><marker id="arr" viewBox="0 0 10 10" refX="9" refY="5" markerWidth="6" markerHeight="6" orient="auto-start-reverse"><path d="M 0 0 L 10 5 L 0 10 z" fill="#86efac"/></marker></defs>
  <text x="640" y="290" fill="#e5e7eb" font-size="30">Best Path: 2 → 3 → 5 = 10</text>
  <text x="640" y="340" fill="#9ca3af" font-size="24">Process from bottom row to top</text>
  <text x="640" y="385" fill="#9ca3af" font-size="24">Space Optimized to O(n)</text>
  <text x="640" y="470" fill="#86efac" font-size="28">Author: Tom🦞</text>
</svg>