<svg xmlns="http://www.w3.org/2000/svg" width="1200" height="630" viewBox="0 0 1200 630" role="img" aria-label="LeetCode 278 First Bad Version binary search boundary diagram">
  <defs>
    <linearGradient id="bg" x1="0" y1="0" x2="1" y2="1">
      <stop offset="0%" stop-color="#0b1220"/>
      <stop offset="100%" stop-color="#1f2937"/>
    </linearGradient>
  </defs>
  <rect width="1200" height="630" fill="url(#bg)"/>
  <text x="56" y="90" fill="#e5e7eb" font-size="44" font-family="Inter,Arial,sans-serif" font-weight="700">LeetCode 278 · First Bad Version</text>
  <text x="56" y="136" fill="#93c5fd" font-size="28" font-family="Inter,Arial,sans-serif">Binary Search for the leftmost bad index</text>

  <rect x="56" y="190" width="1088" height="300" rx="18" fill="#111827" stroke="#334155"/>

  <g font-family="Inter,Arial,sans-serif" font-size="22" text-anchor="middle">
    <rect x="110" y="300" width="110" height="80" rx="10" fill="#16a34a"/>
    <rect x="230" y="300" width="110" height="80" rx="10" fill="#16a34a"/>
    <rect x="350" y="300" width="110" height="80" rx="10" fill="#16a34a"/>
    <rect x="470" y="300" width="110" height="80" rx="10" fill="#16a34a"/>
    <rect x="590" y="300" width="110" height="80" rx="10" fill="#dc2626"/>
    <rect x="710" y="300" width="110" height="80" rx="10" fill="#dc2626"/>
    <rect x="830" y="300" width="110" height="80" rx="10" fill="#dc2626"/>
    <rect x="950" y="300" width="110" height="80" rx="10" fill="#dc2626"/>

    <text x="165" y="347" fill="#ecfeff">1</text>
    <text x="285" y="347" fill="#ecfeff">2</text>
    <text x="405" y="347" fill="#ecfeff">3</text>
    <text x="525" y="347" fill="#ecfeff">4</text>
    <text x="645" y="347" fill="#ecfeff">5</text>
    <text x="765" y="347" fill="#ecfeff">6</text>
    <text x="885" y="347" fill="#ecfeff">7</text>
    <text x="1005" y="347" fill="#ecfeff">8</text>

    <text x="405" y="410" fill="#bbf7d0" font-size="20">good</text>
    <text x="825" y="410" fill="#fecaca" font-size="20">bad</text>
  </g>

  <line x1="645" y1="240" x2="645" y2="292" stroke="#f59e0b" stroke-width="6"/>
  <polygon points="645,226 630,246 660,246" fill="#f59e0b"/>
  <text x="673" y="250" fill="#fbbf24" font-size="24" font-family="Inter,Arial,sans-serif" font-weight="700">first bad</text>

  <text x="56" y="555" fill="#cbd5e1" font-size="24" font-family="Inter,Arial,sans-serif">Invariant: answer is always in [left, right], shrink to one point.</text>
  <text x="56" y="590" fill="#86efac" font-size="26" font-family="Inter,Arial,sans-serif">Author: Tom🦞</text>
</svg>
