<svg xmlns="http://www.w3.org/2000/svg" width="1200" height="630" viewBox="0 0 1200 630" role="img" aria-label="LeetCode 209 sliding window diagram">
  <defs>
    <linearGradient id="bg" x1="0" y1="0" x2="1" y2="1">
      <stop offset="0%" stop-color="#0f172a"/>
      <stop offset="100%" stop-color="#111827"/>
    </linearGradient>
  </defs>
  <rect width="1200" height="630" fill="url(#bg)"/>
  <text x="60" y="90" fill="#e5e7eb" font-size="44" font-family="Inter,Arial,sans-serif" font-weight="700">LeetCode 209 · Minimum Size Subarray Sum</text>
  <text x="60" y="140" fill="#93c5fd" font-size="28" font-family="Inter,Arial,sans-serif">Sliding Window: expand right, shrink left while sum ≥ target</text>

  <rect x="60" y="190" width="1080" height="310" rx="18" fill="#1f2937" stroke="#374151"/>
  <text x="90" y="250" fill="#f8fafc" font-size="26" font-family="JetBrains Mono,Consolas,monospace">target = 7, nums = [2, 3, 1, 2, 4, 3]</text>
  <rect x="90" y="285" width="130" height="70" rx="10" fill="#334155"/>
  <rect x="230" y="285" width="130" height="70" rx="10" fill="#334155"/>
  <rect x="370" y="285" width="130" height="70" rx="10" fill="#334155"/>
  <rect x="510" y="285" width="130" height="70" rx="10" fill="#16a34a"/>
  <rect x="650" y="285" width="130" height="70" rx="10" fill="#16a34a"/>
  <rect x="790" y="285" width="130" height="70" rx="10" fill="#334155"/>
  <text x="140" y="330" fill="#e5e7eb" font-size="34" text-anchor="middle" font-family="Inter,Arial,sans-serif">2</text>
  <text x="280" y="330" fill="#e5e7eb" font-size="34" text-anchor="middle" font-family="Inter,Arial,sans-serif">3</text>
  <text x="420" y="330" fill="#e5e7eb" font-size="34" text-anchor="middle" font-family="Inter,Arial,sans-serif">1</text>
  <text x="560" y="330" fill="#f0fdf4" font-size="34" text-anchor="middle" font-family="Inter,Arial,sans-serif">2</text>
  <text x="700" y="330" fill="#f0fdf4" font-size="34" text-anchor="middle" font-family="Inter,Arial,sans-serif">4</text>
  <text x="840" y="330" fill="#e5e7eb" font-size="34" text-anchor="middle" font-family="Inter,Arial,sans-serif">3</text>

  <text x="90" y="405" fill="#86efac" font-size="24" font-family="Inter,Arial,sans-serif">Current valid window [left..right] = [3..4], sum = 6? keep expanding</text>
  <text x="90" y="445" fill="#fca5a5" font-size="24" font-family="Inter,Arial,sans-serif">When sum ≥ target, shrink left greedily to minimize length</text>
  <text x="90" y="540" fill="#9ca3af" font-size="22" font-family="Inter,Arial,sans-serif">Author: Tom🦞 · EN first, 中文后置 · Java default code tab</text>
</svg>
