<svg xmlns="http://www.w3.org/2000/svg" width="1200" height="630" viewBox="0 0 1200 630" role="img" aria-label="LeetCode 78 subsets decision tree">
  <defs>
    <linearGradient id="bg" x1="0" y1="0" x2="1" y2="1">
      <stop offset="0%" stop-color="#0f172a"/>
      <stop offset="100%" stop-color="#111827"/>
    </linearGradient>
  </defs>
  <rect width="1200" height="630" fill="url(#bg)"/>
  <text x="60" y="95" fill="#e5e7eb" font-size="46" font-family="Inter,Arial,sans-serif" font-weight="700">LeetCode 78: Subsets</text>
  <text x="60" y="145" fill="#93c5fd" font-size="28" font-family="Inter,Arial,sans-serif">Backtracking Decision Tree: include / exclude each number</text>

  <g font-family="Inter,Arial,sans-serif" font-size="22" fill="#e5e7eb" text-anchor="middle">
    <circle cx="600" cy="220" r="34" fill="#1f2937" stroke="#60a5fa"/>
    <text x="600" y="227">[]</text>

    <line x1="600" y1="254" x2="420" y2="330" stroke="#6b7280"/>
    <line x1="600" y1="254" x2="780" y2="330" stroke="#6b7280"/>
    <text x="505" y="292" fill="#9ca3af" font-size="18">skip 1</text>
    <text x="695" y="292" fill="#9ca3af" font-size="18">take 1</text>

    <circle cx="420" cy="360" r="34" fill="#1f2937" stroke="#34d399"/>
    <text x="420" y="367">[]</text>
    <circle cx="780" cy="360" r="34" fill="#1f2937" stroke="#34d399"/>
    <text x="780" y="367">[1]</text>

    <line x1="420" y1="394" x2="300" y2="480" stroke="#6b7280"/>
    <line x1="420" y1="394" x2="540" y2="480" stroke="#6b7280"/>
    <line x1="780" y1="394" x2="660" y2="480" stroke="#6b7280"/>
    <line x1="780" y1="394" x2="900" y2="480" stroke="#6b7280"/>

    <circle cx="300" cy="510" r="30" fill="#1f2937" stroke="#f59e0b"/><text x="300" y="516">[]</text>
    <circle cx="540" cy="510" r="30" fill="#1f2937" stroke="#f59e0b"/><text x="540" y="516">[2]</text>
    <circle cx="660" cy="510" r="30" fill="#1f2937" stroke="#f59e0b"/><text x="660" y="516">[1]</text>
    <circle cx="900" cy="510" r="30" fill="#1f2937" stroke="#f59e0b"/><text x="900" y="516">[1,2]</text>
  </g>

  <text x="60" y="592" fill="#86efac" font-size="24" font-family="Inter,Arial,sans-serif">Author: Tom🦞 · EN first + 中文 + full code tabs</text>
</svg>
