<svg xmlns="http://www.w3.org/2000/svg" width="1200" height="630" viewBox="0 0 1200 630" role="img" aria-label="LeetCode 83 remove duplicates from sorted list diagram">
  <defs>
    <linearGradient id="bg" x1="0" y1="0" x2="1" y2="1">
      <stop offset="0%" stop-color="#0f172a"/>
      <stop offset="100%" stop-color="#111827"/>
    </linearGradient>
    <marker id="arrow" markerWidth="12" markerHeight="12" refX="10" refY="6" orient="auto">
      <path d="M0,0 L12,6 L0,12 z" fill="#93c5fd"/>
    </marker>
  </defs>
  <rect width="1200" height="630" fill="url(#bg)"/>

  <text x="56" y="86" fill="#e5e7eb" font-size="44" font-family="Inter,Arial,sans-serif" font-weight="700">LeetCode 83 · Remove Duplicates from Sorted List</text>
  <text x="56" y="126" fill="#93c5fd" font-size="28" font-family="Inter,Arial,sans-serif">Single-pass pointer compression on sorted linked list</text>

  <g transform="translate(70,210)">
    <text x="0" y="-24" fill="#cbd5e1" font-size="24" font-family="Inter,Arial,sans-serif">Before</text>
    <rect x="0" y="0" width="110" height="70" rx="12" fill="#1f2937" stroke="#64748b"/>
    <rect x="170" y="0" width="110" height="70" rx="12" fill="#1f2937" stroke="#64748b"/>
    <rect x="340" y="0" width="110" height="70" rx="12" fill="#1f2937" stroke="#64748b"/>
    <rect x="510" y="0" width="110" height="70" rx="12" fill="#1f2937" stroke="#64748b"/>
    <rect x="680" y="0" width="110" height="70" rx="12" fill="#1f2937" stroke="#64748b"/>
    <text x="52" y="44" fill="#e5e7eb" font-size="34" text-anchor="middle" font-family="Inter,Arial,sans-serif">1</text>
    <text x="222" y="44" fill="#e5e7eb" font-size="34" text-anchor="middle" font-family="Inter,Arial,sans-serif">1</text>
    <text x="392" y="44" fill="#e5e7eb" font-size="34" text-anchor="middle" font-family="Inter,Arial,sans-serif">2</text>
    <text x="562" y="44" fill="#e5e7eb" font-size="34" text-anchor="middle" font-family="Inter,Arial,sans-serif">3</text>
    <text x="732" y="44" fill="#e5e7eb" font-size="34" text-anchor="middle" font-family="Inter,Arial,sans-serif">3</text>
    <line x1="112" y1="35" x2="165" y2="35" stroke="#93c5fd" stroke-width="4" marker-end="url(#arrow)"/>
    <line x1="282" y1="35" x2="335" y2="35" stroke="#93c5fd" stroke-width="4" marker-end="url(#arrow)"/>
    <line x1="452" y1="35" x2="505" y2="35" stroke="#93c5fd" stroke-width="4" marker-end="url(#arrow)"/>
    <line x1="622" y1="35" x2="675" y2="35" stroke="#93c5fd" stroke-width="4" marker-end="url(#arrow)"/>
    <text x="222" y="95" fill="#fca5a5" font-size="20" text-anchor="middle" font-family="Inter,Arial,sans-serif">duplicate</text>
    <text x="732" y="95" fill="#fca5a5" font-size="20" text-anchor="middle" font-family="Inter,Arial,sans-serif">duplicate</text>
  </g>

  <g transform="translate(70,430)">
    <text x="0" y="-24" fill="#cbd5e1" font-size="24" font-family="Inter,Arial,sans-serif">After</text>
    <rect x="0" y="0" width="110" height="70" rx="12" fill="#1f2937" stroke="#22c55e"/>
    <rect x="220" y="0" width="110" height="70" rx="12" fill="#1f2937" stroke="#22c55e"/>
    <rect x="440" y="0" width="110" height="70" rx="12" fill="#1f2937" stroke="#22c55e"/>
    <text x="52" y="44" fill="#e5e7eb" font-size="34" text-anchor="middle" font-family="Inter,Arial,sans-serif">1</text>
    <text x="272" y="44" fill="#e5e7eb" font-size="34" text-anchor="middle" font-family="Inter,Arial,sans-serif">2</text>
    <text x="492" y="44" fill="#e5e7eb" font-size="34" text-anchor="middle" font-family="Inter,Arial,sans-serif">3</text>
    <line x1="112" y1="35" x2="215" y2="35" stroke="#86efac" stroke-width="4" marker-end="url(#arrow)"/>
    <line x1="332" y1="35" x2="435" y2="35" stroke="#86efac" stroke-width="4" marker-end="url(#arrow)"/>
    <text x="700" y="45" fill="#86efac" font-size="24" font-family="Inter,Arial,sans-serif">Skip equal next nodes in-place</text>
  </g>

  <text x="56" y="600" fill="#86efac" font-size="24" font-family="Inter,Arial,sans-serif">Author: Tom🦞</text>
</svg>
