<svg xmlns="http://www.w3.org/2000/svg" width="1200" height="630" viewBox="0 0 1200 630" role="img" aria-label="LeetCode 157 linked list intersection diagram">
  <defs>
    <linearGradient id="bg" x1="0" x2="1" y1="0" y2="1">
      <stop offset="0%" stop-color="#0f172a"/>
      <stop offset="100%" stop-color="#111827"/>
    </linearGradient>
    <style>
      .title { fill: #e5e7eb; font: 700 44px Inter, Arial, sans-serif; }
      .sub { fill: #93c5fd; font: 600 26px Inter, Arial, sans-serif; }
      .txt { fill: #d1d5db; font: 500 24px Inter, Arial, sans-serif; }
      .nodeA { fill: #1d4ed8; }
      .nodeB { fill: #9333ea; }
      .nodeC { fill: #059669; }
      .label { fill: #f8fafc; font: 600 22px Inter, Arial, sans-serif; }
      .arrow { stroke: #94a3b8; stroke-width: 4; marker-end: url(#m); fill: none; }
      .dash { stroke: #f59e0b; stroke-width: 4; stroke-dasharray: 10 8; fill: none; marker-end: url(#m2); }
    </style>
    <marker id="m" markerWidth="10" markerHeight="10" refX="8" refY="3" orient="auto">
      <path d="M0,0 L0,6 L9,3 z" fill="#94a3b8"/>
    </marker>
    <marker id="m2" markerWidth="10" markerHeight="10" refX="8" refY="3" orient="auto">
      <path d="M0,0 L0,6 L9,3 z" fill="#f59e0b"/>
    </marker>
  </defs>

  <rect width="1200" height="630" fill="url(#bg)"/>
  <text x="50" y="75" class="title">LeetCode 157 · Intersection of Two Linked Lists</text>
  <text x="50" y="115" class="sub">Two-pointer head switching makes total distance equal: lenA + lenB</text>

  <rect x="80" y="180" width="90" height="56" rx="10" class="nodeA"/><text x="116" y="216" class="label">A1</text>
  <rect x="220" y="180" width="90" height="56" rx="10" class="nodeA"/><text x="256" y="216" class="label">A2</text>
  <rect x="360" y="180" width="90" height="56" rx="10" class="nodeC"/><text x="394" y="216" class="label">C1</text>
  <rect x="500" y="180" width="90" height="56" rx="10" class="nodeC"/><text x="534" y="216" class="label">C2</text>

  <rect x="80" y="340" width="90" height="56" rx="10" class="nodeB"/><text x="116" y="376" class="label">B1</text>
  <rect x="220" y="340" width="90" height="56" rx="10" class="nodeB"/><text x="256" y="376" class="label">B2</text>
  <rect x="360" y="340" width="90" height="56" rx="10" class="nodeB"/><text x="394" y="376" class="label">B3</text>
  <rect x="500" y="340" width="90" height="56" rx="10" class="nodeC"/><text x="534" y="376" class="label">C1</text>
  <rect x="640" y="340" width="90" height="56" rx="10" class="nodeC"/><text x="674" y="376" class="label">C2</text>

  <path d="M170 208 L220 208" class="arrow"/>
  <path d="M310 208 L360 208" class="arrow"/>
  <path d="M450 208 L500 208" class="arrow"/>

  <path d="M170 368 L220 368" class="arrow"/>
  <path d="M310 368 L360 368" class="arrow"/>
  <path d="M450 368 L500 368" class="arrow"/>
  <path d="M590 368 L640 368" class="arrow"/>

  <path d="M620 160 C760 130, 860 130, 980 180" class="dash"/>
  <text x="792" y="150" class="txt">pA switches to headB</text>
  <path d="M760 430 C860 470, 960 470, 1080 420" class="dash"/>
  <text x="812" y="510" class="txt">pB switches to headA</text>

  <text x="50" y="540" class="txt">They meet at first shared node C1, or both become null if no intersection.</text>
  <text x="50" y="585" class="txt">Author: Tom🦞 · EN first, 中文 second · Java/Go/C++/Python/JavaScript tabs</text>
</svg>
