<svg xmlns="http://www.w3.org/2000/svg" width="1200" height="630" viewBox="0 0 1200 630" role="img" aria-label="LeetCode 93 DFS segmentation diagram">
  <defs>
    <linearGradient id="bg" x1="0" y1="0" x2="1" y2="1">
      <stop offset="0%" stop-color="#0b1324"/>
      <stop offset="100%" stop-color="#111827"/>
    </linearGradient>
  </defs>
  <rect width="1200" height="630" fill="url(#bg)"/>
  <text x="56" y="88" fill="#e5e7eb" font-size="42" font-family="Inter,Arial,sans-serif" font-weight="700">LeetCode 93 · Restore IP Addresses</text>
  <text x="56" y="130" fill="#9ca3af" font-size="24" font-family="Inter,Arial,sans-serif">Backtracking with segment pruning (length 1..3, value ≤ 255, no leading zero)</text>

  <rect x="56" y="172" width="1088" height="398" rx="16" fill="#1f2937" stroke="#374151"/>

  <text x="90" y="220" fill="#93c5fd" font-size="28" font-family="JetBrains Mono,Consolas,monospace">Input: 25525511135</text>

  <circle cx="170" cy="290" r="36" fill="#0ea5e9"/>
  <text x="152" y="297" fill="#ffffff" font-size="24" font-family="Inter,Arial,sans-serif">2</text>
  <circle cx="300" cy="290" r="36" fill="#22c55e"/>
  <text x="272" y="297" fill="#ffffff" font-size="24" font-family="Inter,Arial,sans-serif">255</text>
  <circle cx="450" cy="290" r="36" fill="#22c55e"/>
  <text x="422" y="297" fill="#ffffff" font-size="24" font-family="Inter,Arial,sans-serif">255</text>
  <circle cx="600" cy="290" r="36" fill="#f59e0b"/>
  <text x="580" y="297" fill="#ffffff" font-size="24" font-family="Inter,Arial,sans-serif">11</text>
  <circle cx="730" cy="290" r="36" fill="#f59e0b"/>
  <text x="706" y="297" fill="#ffffff" font-size="24" font-family="Inter,Arial,sans-serif">135</text>

  <path d="M206 290 L264 290" stroke="#9ca3af" stroke-width="3" marker-end="url(#arrow)"/>
  <path d="M336 290 L414 290" stroke="#9ca3af" stroke-width="3" marker-end="url(#arrow)"/>
  <path d="M486 290 L564 290" stroke="#9ca3af" stroke-width="3" marker-end="url(#arrow)"/>
  <path d="M636 290 L694 290" stroke="#9ca3af" stroke-width="3" marker-end="url(#arrow)"/>

  <defs>
    <marker id="arrow" viewBox="0 0 10 10" refX="8" refY="5" markerWidth="6" markerHeight="6" orient="auto-start-reverse">
      <path d="M0,0 L10,5 L0,10 z" fill="#9ca3af"/>
    </marker>
  </defs>

  <text x="90" y="372" fill="#e5e7eb" font-size="24" font-family="Inter,Arial,sans-serif">Valid outputs:</text>
  <text x="110" y="414" fill="#86efac" font-size="30" font-family="JetBrains Mono,Consolas,monospace">255.255.11.135</text>
  <text x="110" y="456" fill="#86efac" font-size="30" font-family="JetBrains Mono,Consolas,monospace">255.255.111.35</text>
  <text x="90" y="520" fill="#fca5a5" font-size="22" font-family="Inter,Arial,sans-serif">Prune examples: "025" (leading zero), "256" (&gt; 255), remaining length impossible</text>
</svg>
