<svg xmlns="http://www.w3.org/2000/svg" width="1200" height="630" viewBox="0 0 1200 630" role="img" aria-label="LeetCode 700 BST guided search diagram">
  <defs>
    <linearGradient id="bg" x1="0" x2="1" y1="0" y2="1">
      <stop offset="0%" stop-color="#0f172a"/>
      <stop offset="100%" stop-color="#111827"/>
    </linearGradient>
  </defs>
  <rect width="1200" height="630" fill="url(#bg)"/>
  <text x="60" y="92" fill="#e5e7eb" font-size="46" font-family="Inter,Arial,sans-serif" font-weight="700">LeetCode 700 · Search in a BST</text>
  <text x="60" y="138" fill="#93c5fd" font-size="28" font-family="Inter,Arial,sans-serif">Compare target with current node, then go left or right only.</text>
  <g font-family="Inter,Arial,sans-serif" font-size="28" text-anchor="middle">
    <circle cx="600" cy="230" r="48" fill="#1f2937" stroke="#60a5fa" stroke-width="3"/>
    <text x="600" y="240" fill="#e5e7eb">8</text>

    <circle cx="420" cy="360" r="48" fill="#1f2937" stroke="#34d399" stroke-width="3"/>
    <text x="420" y="370" fill="#e5e7eb">3</text>

    <circle cx="780" cy="360" r="48" fill="#1f2937" stroke="#f59e0b" stroke-width="3"/>
    <text x="780" y="370" fill="#e5e7eb">10</text>

    <circle cx="330" cy="500" r="44" fill="#1f2937" stroke="#34d399" stroke-width="3"/>
    <text x="330" y="510" fill="#e5e7eb">1</text>

    <circle cx="500" cy="500" r="44" fill="#1f2937" stroke="#34d399" stroke-width="3"/>
    <text x="500" y="510" fill="#e5e7eb">6</text>
  </g>
  <g stroke="#64748b" stroke-width="3" fill="none">
    <line x1="570" y1="256" x2="450" y2="330"/>
    <line x1="630" y1="256" x2="750" y2="330"/>
    <line x1="402" y1="402" x2="344" y2="460"/>
    <line x1="438" y1="402" x2="484" y2="460"/>
  </g>
  <g stroke="#f43f5e" stroke-width="6" fill="none" marker-end="url(#arrow)">
    <defs><marker id="arrow" markerWidth="12" markerHeight="12" refX="10" refY="6" orient="auto"><path d="M0,0 L12,6 L0,12 z" fill="#f43f5e"/></marker></defs>
    <line x1="600" y1="170" x2="600" y2="178"/>
    <line x1="560" y1="244" x2="450" y2="330"/>
    <line x1="430" y1="406" x2="500" y2="456"/>
  </g>
  <text x="860" y="520" fill="#e5e7eb" font-size="30" font-family="Inter,Arial,sans-serif">target = 6</text>
  <text x="860" y="560" fill="#86efac" font-size="28" font-family="Inter,Arial,sans-serif">Path: 8 → 3 → 6</text>
</svg>