<svg xmlns="http://www.w3.org/2000/svg" width="1200" height="420" viewBox="0 0 1200 420">
  <defs>
    <marker id="arrow" markerWidth="10" markerHeight="8" refX="9" refY="4" orient="auto">
      <polygon points="0,0 10,4 0,8" fill="#7dd3fc"/>
    </marker>
    <style>
      .bg{fill:#0b1220}.title{fill:#e2e8f0;font:700 34px sans-serif}.sub{fill:#93c5fd;font:600 20px sans-serif}
      .box{fill:#111827;stroke:#38bdf8;stroke-width:2}.t{fill:#e5e7eb;font:600 22px monospace}.a{stroke:#7dd3fc;stroke-width:3;marker-end:url(#arrow)}
      .label{fill:#fbbf24;font:600 18px sans-serif}
    </style>
  </defs>
  <rect class="bg" x="0" y="0" width="1200" height="420"/>
  <text class="title" x="40" y="54">LeetCode 143 · Reorder List</text>
  <text class="sub" x="40" y="86">Split at middle → Reverse second half → Alternate merge</text>

  <text class="label" x="40" y="130">Original</text>
  <rect class="box" x="40" y="150" width="80" height="44" rx="8"/><text class="t" x="68" y="179">1</text>
  <rect class="box" x="170" y="150" width="80" height="44" rx="8"/><text class="t" x="198" y="179">2</text>
  <rect class="box" x="300" y="150" width="80" height="44" rx="8"/><text class="t" x="328" y="179">3</text>
  <rect class="box" x="430" y="150" width="80" height="44" rx="8"/><text class="t" x="458" y="179">4</text>
  <rect class="box" x="560" y="150" width="80" height="44" rx="8"/><text class="t" x="588" y="179">5</text>
  <path class="a" d="M120 172 L168 172"/><path class="a" d="M250 172 L298 172"/><path class="a" d="M380 172 L428 172"/><path class="a" d="M510 172 L558 172"/>

  <text class="label" x="40" y="248">After reorder</text>
  <rect class="box" x="40" y="268" width="80" height="44" rx="8"/><text class="t" x="68" y="297">1</text>
  <rect class="box" x="170" y="268" width="80" height="44" rx="8"/><text class="t" x="198" y="297">5</text>
  <rect class="box" x="300" y="268" width="80" height="44" rx="8"/><text class="t" x="328" y="297">2</text>
  <rect class="box" x="430" y="268" width="80" height="44" rx="8"/><text class="t" x="458" y="297">4</text>
  <rect class="box" x="560" y="268" width="80" height="44" rx="8"/><text class="t" x="588" y="297">3</text>
  <path class="a" d="M120 290 L168 290"/><path class="a" d="M250 290 L298 290"/><path class="a" d="M380 290 L428 290"/><path class="a" d="M510 290 L558 290"/>
</svg>