<svg xmlns="http://www.w3.org/2000/svg" width="1200" height="630" viewBox="0 0 1200 630"><defs><linearGradient id="bg" x1="0" x2="1" y1="0" y2="1"><stop offset="0%" stop-color="#0f172a"/><stop offset="100%" stop-color="#1e293b"/></linearGradient><style>.t{font-family:Arial,sans-serif;fill:#e2e8f0}.m{font-size:42px;font-weight:700}.s{font-size:24px;fill:#93c5fd}.n{font-size:20px;fill:#cbd5e1}.box{fill:#111827;stroke:#38bdf8;stroke-width:2;rx:14}.dead{fill:#3f1d2e;stroke:#fb7185;stroke-width:2;rx:12}</style></defs><rect width="1200" height="630" fill="url(#bg)"/><text x="60" y="90" class="t m">LeetCode 752 · Open the Lock</text><text x="60" y="128" class="t s">BFS shortest path on 4-wheel state graph</text><rect x="80" y="190" width="150" height="80" class="box"/><text x="126" y="238" class="t n">0000</text><rect x="330" y="150" width="150" height="80" class="box"/><text x="376" y="198" class="t n">0001</text><rect x="330" y="250" width="150" height="80" class="box"/><text x="376" y="298" class="t n">9000</text><rect x="580" y="120" width="150" height="80" class="dead"/><text x="620" y="168" class="t n">0201</text><rect x="580" y="220" width="150" height="80" class="box"/><text x="620" y="268" class="t n">0101</text><rect x="580" y="320" width="150" height="80" class="box"/><text x="620" y="368" class="t n">1101</text><rect x="860" y="220" width="220" height="100" class="box"/><text x="910" y="278" class="t n">target: 0202</text><line x1="230" y1="230" x2="330" y2="190" stroke="#7dd3fc" stroke-width="4"/><line x1="230" y1="230" x2="330" y2="290" stroke="#7dd3fc" stroke-width="4"/><line x1="480" y1="190" x2="580" y2="160" stroke="#7dd3fc" stroke-width="4"/><line x1="480" y1="190" x2="580" y2="260" stroke="#7dd3fc" stroke-width="4"/><line x1="480" y1="290" x2="580" y2="360" stroke="#7dd3fc" stroke-width="4"/><line x1="730" y1="260" x2="860" y2="270" stroke="#22d3ee" stroke-width="5"/><text x="80" y="560" class="t n">Deadends are pruned; BFS level order ensures minimum turns.</text></svg>