<svg xmlns="http://www.w3.org/2000/svg" width="1200" height="630" viewBox="0 0 1200 630" role="img" aria-label="LeetCode 2923 diagram">
  <defs>
    <linearGradient id="bg" x1="0" y1="0" x2="1" y2="1">
      <stop offset="0%" stop-color="#0f172a"/>
      <stop offset="100%" stop-color="#1e293b"/>
    </linearGradient>
    <marker id="arrow" markerWidth="10" markerHeight="10" refX="8" refY="3" orient="auto" markerUnits="strokeWidth">
      <path d="M0,0 L0,6 L9,3 z" fill="#f59e0b" />
    </marker>
  </defs>
  <rect width="1200" height="630" fill="url(#bg)"/>
  <text x="60" y="90" fill="#e2e8f0" font-size="44" font-family="Arial, sans-serif" font-weight="700">LeetCode 2923 · Find Champion I</text>
  <text x="60" y="130" fill="#93c5fd" font-size="28" font-family="Arial, sans-serif">Matrix → Directed Graph → Indegree 0 Champion</text>

  <rect x="60" y="180" width="430" height="340" rx="18" fill="#111827" stroke="#334155"/>
  <text x="90" y="225" fill="#cbd5e1" font-size="24" font-family="monospace">grid =</text>
  <text x="90" y="270" fill="#f8fafc" font-size="30" font-family="monospace">[ [0, 1, 1],</text>
  <text x="90" y="315" fill="#f8fafc" font-size="30" font-family="monospace">  [0, 0, 1],</text>
  <text x="90" y="360" fill="#f8fafc" font-size="30" font-family="monospace">  [0, 0, 0] ]</text>
  <text x="90" y="420" fill="#94a3b8" font-size="22" font-family="Arial, sans-serif">row i beats columns with value 1</text>

  <circle cx="760" cy="260" r="42" fill="#1d4ed8"/>
  <circle cx="930" cy="230" r="42" fill="#0ea5e9"/>
  <circle cx="900" cy="390" r="42" fill="#0ea5e9"/>
  <text x="748" y="268" fill="#fff" font-size="28" font-family="Arial" font-weight="700">0</text>
  <text x="918" y="238" fill="#fff" font-size="28" font-family="Arial" font-weight="700">1</text>
  <text x="888" y="398" fill="#fff" font-size="28" font-family="Arial" font-weight="700">2</text>

  <line x1="797" y1="250" x2="888" y2="236" stroke="#f59e0b" stroke-width="5" marker-end="url(#arrow)"/>
  <line x1="791" y1="282" x2="870" y2="365" stroke="#f59e0b" stroke-width="5" marker-end="url(#arrow)"/>
  <line x1="930" y1="272" x2="905" y2="347" stroke="#f59e0b" stroke-width="5" marker-end="url(#arrow)"/>

  <rect x="650" y="470" width="430" height="70" rx="14" fill="#111827" stroke="#334155"/>
  <text x="680" y="515" fill="#fbbf24" font-size="30" font-family="Arial, sans-serif" font-weight="700">Champion = node with indegree 0 → team 0</text>
</svg>
