<svg xmlns="http://www.w3.org/2000/svg" width="1200" height="630" viewBox="0 0 1200 630" role="img" aria-label="LeetCode 2683 neighboring bitwise xor cycle consistency diagram">
  <defs>
    <linearGradient id="bg" x1="0" y1="0" x2="1" y2="1">
      <stop offset="0%" stop-color="#0f172a"/>
      <stop offset="100%" stop-color="#111827"/>
    </linearGradient>
  </defs>
  <rect width="1200" height="630" fill="url(#bg)"/>
  <text x="52" y="86" fill="#e5e7eb" font-size="42" font-family="Inter,Arial,sans-serif" font-weight="700">LeetCode 2683 · Neighboring Bitwise XOR</text>
  <text x="52" y="128" fill="#93c5fd" font-size="26" font-family="Inter,Arial,sans-serif">Cycle XOR consistency: XOR(derived) must be 0</text>

  <circle cx="280" cy="340" r="42" fill="#1f2937" stroke="#22d3ee" stroke-width="3"/>
  <circle cx="470" cy="220" r="42" fill="#1f2937" stroke="#22d3ee" stroke-width="3"/>
  <circle cx="700" cy="220" r="42" fill="#1f2937" stroke="#22d3ee" stroke-width="3"/>
  <circle cx="890" cy="340" r="42" fill="#1f2937" stroke="#22d3ee" stroke-width="3"/>
  <circle cx="700" cy="460" r="42" fill="#1f2937" stroke="#22d3ee" stroke-width="3"/>
  <circle cx="470" cy="460" r="42" fill="#1f2937" stroke="#22d3ee" stroke-width="3"/>

  <text x="266" y="347" fill="#e5e7eb" font-size="24" font-family="monospace">o0</text>
  <text x="456" y="227" fill="#e5e7eb" font-size="24" font-family="monospace">o1</text>
  <text x="686" y="227" fill="#e5e7eb" font-size="24" font-family="monospace">o2</text>
  <text x="876" y="347" fill="#e5e7eb" font-size="24" font-family="monospace">o3</text>
  <text x="686" y="467" fill="#e5e7eb" font-size="24" font-family="monospace">o4</text>
  <text x="456" y="467" fill="#e5e7eb" font-size="24" font-family="monospace">o5</text>

  <path d="M318 322 L432 248" stroke="#f59e0b" stroke-width="3" marker-end="url(#arrow)"/>
  <path d="M512 220 L658 220" stroke="#f59e0b" stroke-width="3" marker-end="url(#arrow)"/>
  <path d="M738 248 L852 322" stroke="#f59e0b" stroke-width="3" marker-end="url(#arrow)"/>
  <path d="M852 358 L738 432" stroke="#f59e0b" stroke-width="3" marker-end="url(#arrow)"/>
  <path d="M658 460 L512 460" stroke="#f59e0b" stroke-width="3" marker-end="url(#arrow)"/>
  <path d="M432 432 L318 358" stroke="#f59e0b" stroke-width="3" marker-end="url(#arrow)"/>

  <defs>
    <marker id="arrow" viewBox="0 0 10 10" refX="8" refY="5" markerWidth="7" markerHeight="7" orient="auto-start-reverse">
      <path d="M0 0 L10 5 L0 10 z" fill="#f59e0b"/>
    </marker>
  </defs>

  <text x="52" y="560" fill="#86efac" font-size="24" font-family="Inter,Arial,sans-serif">Each original bit appears twice in total XOR ⇒ cancels out ⇒ XOR(derived) = 0</text>
</svg>
