<svg xmlns="http://www.w3.org/2000/svg" width="1200" height="630" viewBox="0 0 1200 630" role="img" aria-label="LeetCode 1929 concatenation mapping diagram">
  <defs>
    <linearGradient id="bg" x1="0" x2="1" y1="0" y2="1">
      <stop offset="0%" stop-color="#0b1020"/>
      <stop offset="100%" stop-color="#172554"/>
    </linearGradient>
    <style>
      .t{font-family:Arial,sans-serif;fill:#e2e8f0}
      .m{font-family:Arial,sans-serif;fill:#93c5fd}
    </style>
  </defs>
  <rect width="1200" height="630" fill="url(#bg)"/>
  <text x="60" y="90" class="t" font-size="44" font-weight="700">LeetCode 1929 · Concatenation of Array</text>
  <text x="60" y="130" class="m" font-size="24">Build ans of length 2n: ans[i] = nums[i], ans[i+n] = nums[i]</text>

  <rect x="80" y="200" width="160" height="70" rx="10" fill="#1f2937" stroke="#60a5fa"/>
  <rect x="260" y="200" width="160" height="70" rx="10" fill="#1f2937" stroke="#60a5fa"/>
  <rect x="440" y="200" width="160" height="70" rx="10" fill="#1f2937" stroke="#60a5fa"/>
  <text x="115" y="243" class="t" font-size="30">a</text>
  <text x="295" y="243" class="t" font-size="30">b</text>
  <text x="475" y="243" class="t" font-size="30">c</text>
  <text x="80" y="185" class="m" font-size="24">nums (n)</text>

  <rect x="80" y="380" width="160" height="70" rx="10" fill="#0f172a" stroke="#22d3ee"/>
  <rect x="260" y="380" width="160" height="70" rx="10" fill="#0f172a" stroke="#22d3ee"/>
  <rect x="440" y="380" width="160" height="70" rx="10" fill="#0f172a" stroke="#22d3ee"/>
  <rect x="640" y="380" width="160" height="70" rx="10" fill="#0f172a" stroke="#f59e0b"/>
  <rect x="820" y="380" width="160" height="70" rx="10" fill="#0f172a" stroke="#f59e0b"/>
  <rect x="1000" y="380" width="120" height="70" rx="10" fill="#0f172a" stroke="#f59e0b"/>
  <text x="115" y="423" class="t" font-size="30">a</text>
  <text x="295" y="423" class="t" font-size="30">b</text>
  <text x="475" y="423" class="t" font-size="30">c</text>
  <text x="675" y="423" class="t" font-size="30">a</text>
  <text x="855" y="423" class="t" font-size="30">b</text>
  <text x="1035" y="423" class="t" font-size="30">c</text>
  <text x="80" y="365" class="m" font-size="24">ans (2n)</text>

  <path d="M160 275 C160 330,160 330,160 375" stroke="#60a5fa" stroke-width="4" fill="none"/>
  <path d="M340 275 C340 330,340 330,340 375" stroke="#60a5fa" stroke-width="4" fill="none"/>
  <path d="M520 275 C520 330,520 330,520 375" stroke="#60a5fa" stroke-width="4" fill="none"/>
  <path d="M160 275 C280 340,740 340,720 375" stroke="#f59e0b" stroke-width="4" fill="none"/>
  <path d="M340 275 C460 340,920 340,900 375" stroke="#f59e0b" stroke-width="4" fill="none"/>
  <path d="M520 275 C640 340,1080 340,1060 375" stroke="#f59e0b" stroke-width="4" fill="none"/>
</svg>
