<svg xmlns="http://www.w3.org/2000/svg" width="1200" height="630" viewBox="0 0 1200 630" role="img" aria-label="LeetCode 2390 Removing Stars From a String stack simulation diagram">
  <defs>
    <linearGradient id="bg" x1="0" y1="0" x2="1" y2="1">
      <stop offset="0%" stop-color="#0f172a"/>
      <stop offset="100%" stop-color="#111827"/>
    </linearGradient>
  </defs>
  <rect width="1200" height="630" fill="url(#bg)"/>
  <text x="60" y="90" fill="#e5e7eb" font-size="42" font-family="Inter,Arial,sans-serif" font-weight="700">LeetCode 2390 · Removing Stars From a String</text>
  <text x="60" y="132" fill="#93c5fd" font-size="28" font-family="Inter,Arial,sans-serif">Stack simulation: letter push, star pop</text>

  <rect x="60" y="180" width="1080" height="380" rx="16" fill="#1f2937" stroke="#374151"/>

  <text x="90" y="230" fill="#d1d5db" font-size="24" font-family="monospace">Input:  l  e  e  t  *  c  o  *  d  e  *</text>
  <text x="90" y="270" fill="#9ca3af" font-size="22" font-family="Inter,Arial,sans-serif">Process left-to-right</text>

  <rect x="90" y="305" width="70" height="70" rx="10" fill="#22c55e"/><text x="112" y="350" fill="#052e16" font-size="34" font-family="monospace">l</text>
  <rect x="170" y="305" width="70" height="70" rx="10" fill="#22c55e"/><text x="192" y="350" fill="#052e16" font-size="34" font-family="monospace">e</text>
  <rect x="250" y="305" width="70" height="70" rx="10" fill="#22c55e"/><text x="272" y="350" fill="#052e16" font-size="34" font-family="monospace">e</text>
  <rect x="330" y="305" width="70" height="70" rx="10" fill="#22c55e"/><text x="352" y="350" fill="#052e16" font-size="34" font-family="monospace">t</text>
  <text x="420" y="348" fill="#fca5a5" font-size="36" font-family="monospace">*</text>
  <path d="M 455 340 L 515 340" stroke="#f87171" stroke-width="5" marker-end="url(#arrow)"/>

  <defs>
    <marker id="arrow" markerWidth="10" markerHeight="10" refX="9" refY="3" orient="auto">
      <polygon points="0 0, 10 3, 0 6" fill="#f87171"/>
    </marker>
  </defs>

  <rect x="540" y="305" width="70" height="70" rx="10" fill="#22c55e"/><text x="562" y="350" fill="#052e16" font-size="34" font-family="monospace">c</text>
  <rect x="620" y="305" width="70" height="70" rx="10" fill="#22c55e"/><text x="642" y="350" fill="#052e16" font-size="34" font-family="monospace">o</text>
  <text x="710" y="348" fill="#fca5a5" font-size="36" font-family="monospace">*</text>
  <rect x="770" y="305" width="70" height="70" rx="10" fill="#22c55e"/><text x="792" y="350" fill="#052e16" font-size="34" font-family="monospace">d</text>
  <rect x="850" y="305" width="70" height="70" rx="10" fill="#22c55e"/><text x="872" y="350" fill="#052e16" font-size="34" font-family="monospace">e</text>
  <text x="940" y="348" fill="#fca5a5" font-size="36" font-family="monospace">*</text>

  <text x="90" y="445" fill="#e5e7eb" font-size="26" font-family="Inter,Arial,sans-serif">Final stack: l e e c d  →  "leecd"</text>
  <text x="90" y="500" fill="#86efac" font-size="24" font-family="Inter,Arial,sans-serif">Author: Tom🦞</text>
</svg>
