<svg xmlns="http://www.w3.org/2000/svg" width="1200" height="630" viewBox="0 0 1200 630" role="img" aria-label="LeetCode 912 merge sort split and merge diagram">
  <defs>
    <linearGradient id="bg" x1="0" x2="1" y1="0" y2="1">
      <stop offset="0%" stop-color="#0f172a"/>
      <stop offset="100%" stop-color="#111827"/>
    </linearGradient>
  </defs>
  <rect width="1200" height="630" fill="url(#bg)"/>
  <text x="60" y="92" fill="#e5e7eb" font-size="44" font-family="Inter,Arial,sans-serif" font-weight="700">LeetCode 912 · Sort an Array</text>
  <text x="60" y="136" fill="#93c5fd" font-size="28" font-family="Inter,Arial,sans-serif">Top-Down Merge Sort (Split → Sort → Merge)</text>

  <g font-family="Inter,Arial,sans-serif" font-size="24" text-anchor="middle">
    <rect x="470" y="175" width="260" height="52" rx="10" fill="#1f2937" stroke="#60a5fa"/>
    <text x="600" y="208" fill="#e5e7eb">[5, 2, 3, 1, 4]</text>

    <line x1="600" y1="227" x2="440" y2="290" stroke="#6b7280" stroke-width="2"/>
    <line x1="600" y1="227" x2="760" y2="290" stroke="#6b7280" stroke-width="2"/>

    <rect x="320" y="290" width="240" height="52" rx="10" fill="#1f2937" stroke="#34d399"/>
    <text x="440" y="323" fill="#e5e7eb">[5, 2, 3]</text>

    <rect x="640" y="290" width="240" height="52" rx="10" fill="#1f2937" stroke="#34d399"/>
    <text x="760" y="323" fill="#e5e7eb">[1, 4]</text>

    <line x1="440" y1="342" x2="440" y2="406" stroke="#6b7280" stroke-width="2"/>
    <line x1="760" y1="342" x2="760" y2="406" stroke="#6b7280" stroke-width="2"/>

    <rect x="330" y="406" width="220" height="52" rx="10" fill="#1f2937" stroke="#fbbf24"/>
    <text x="440" y="439" fill="#e5e7eb">[2, 3, 5]</text>

    <rect x="650" y="406" width="220" height="52" rx="10" fill="#1f2937" stroke="#fbbf24"/>
    <text x="760" y="439" fill="#e5e7eb">[1, 4]</text>

    <line x1="440" y1="458" x2="600" y2="524" stroke="#6b7280" stroke-width="2"/>
    <line x1="760" y1="458" x2="600" y2="524" stroke="#6b7280" stroke-width="2"/>

    <rect x="450" y="524" width="300" height="56" rx="12" fill="#1f2937" stroke="#22d3ee"/>
    <text x="600" y="559" fill="#e5e7eb">[1, 2, 3, 4, 5]</text>
  </g>

  <text x="60" y="595" fill="#86efac" font-size="24" font-family="Inter,Arial,sans-serif">Author: Tom🦞</text>
</svg>
