<svg xmlns="http://www.w3.org/2000/svg" width="1200" height="630" viewBox="0 0 1200 630" role="img" aria-label="LeetCode 130 border-connected region marking diagram">
  <defs>
    <linearGradient id="bg" x1="0" x2="1" y1="0" y2="1">
      <stop offset="0%" stop-color="#0b1020"/>
      <stop offset="100%" stop-color="#111827"/>
    </linearGradient>
    <style>
      .title{fill:#e5e7eb;font:700 38px Arial,sans-serif}
      .label{fill:#93c5fd;font:700 24px Arial,sans-serif}
      .cell{font:700 26px Arial,sans-serif;text-anchor:middle;dominant-baseline:middle}
    </style>
  </defs>
  <rect width="1200" height="630" fill="url(#bg)"/>
  <text x="44" y="62" class="title">LeetCode 130 · Border DFS Mark-and-Flip</text>

  <text x="95" y="120" class="label">Before</text>
  <text x="470" y="120" class="label">Mark border-connected O as #</text>
  <text x="885" y="120" class="label">Final flip (O→X, #→O)</text>

  <g transform="translate(60,150)">
    <rect width="280" height="280" rx="12" fill="#1f2937" stroke="#4b5563"/>
    <g fill="#374151" stroke="#6b7280">
      <rect x="20" y="20" width="60" height="60"/><rect x="80" y="20" width="60" height="60"/><rect x="140" y="20" width="60" height="60"/><rect x="200" y="20" width="60" height="60"/>
      <rect x="20" y="80" width="60" height="60"/><rect x="80" y="80" width="60" height="60"/><rect x="140" y="80" width="60" height="60"/><rect x="200" y="80" width="60" height="60"/>
      <rect x="20" y="140" width="60" height="60"/><rect x="80" y="140" width="60" height="60"/><rect x="140" y="140" width="60" height="60"/><rect x="200" y="140" width="60" height="60"/>
      <rect x="20" y="200" width="60" height="60"/><rect x="80" y="200" width="60" height="60"/><rect x="140" y="200" width="60" height="60"/><rect x="200" y="200" width="60" height="60"/>
    </g>
    <g class="cell">
      <text x="50" y="50" fill="#fca5a5">X</text><text x="110" y="50" fill="#fca5a5">X</text><text x="170" y="50" fill="#fca5a5">X</text><text x="230" y="50" fill="#fca5a5">X</text>
      <text x="50" y="110" fill="#fca5a5">X</text><text x="110" y="110" fill="#86efac">O</text><text x="170" y="110" fill="#86efac">O</text><text x="230" y="110" fill="#fca5a5">X</text>
      <text x="50" y="170" fill="#fca5a5">X</text><text x="110" y="170" fill="#fca5a5">X</text><text x="170" y="170" fill="#86efac">O</text><text x="230" y="170" fill="#fca5a5">X</text>
      <text x="50" y="230" fill="#fca5a5">X</text><text x="110" y="230" fill="#86efac">O</text><text x="170" y="230" fill="#fca5a5">X</text><text x="230" y="230" fill="#fca5a5">X</text>
    </g>
  </g>

  <g transform="translate(440,150)">
    <rect width="280" height="280" rx="12" fill="#1f2937" stroke="#4b5563"/>
    <g fill="#374151" stroke="#6b7280">
      <rect x="20" y="20" width="60" height="60"/><rect x="80" y="20" width="60" height="60"/><rect x="140" y="20" width="60" height="60"/><rect x="200" y="20" width="60" height="60"/>
      <rect x="20" y="80" width="60" height="60"/><rect x="80" y="80" width="60" height="60"/><rect x="140" y="80" width="60" height="60"/><rect x="200" y="80" width="60" height="60"/>
      <rect x="20" y="140" width="60" height="60"/><rect x="80" y="140" width="60" height="60"/><rect x="140" y="140" width="60" height="60"/><rect x="200" y="140" width="60" height="60"/>
      <rect x="20" y="200" width="60" height="60"/><rect x="80" y="200" width="60" height="60"/><rect x="140" y="200" width="60" height="60"/><rect x="200" y="200" width="60" height="60"/>
    </g>
    <g class="cell">
      <text x="50" y="50" fill="#fca5a5">X</text><text x="110" y="50" fill="#fca5a5">X</text><text x="170" y="50" fill="#fca5a5">X</text><text x="230" y="50" fill="#fca5a5">X</text>
      <text x="50" y="110" fill="#fca5a5">X</text><text x="110" y="110" fill="#86efac">O</text><text x="170" y="110" fill="#86efac">O</text><text x="230" y="110" fill="#fca5a5">X</text>
      <text x="50" y="170" fill="#fca5a5">X</text><text x="110" y="170" fill="#fca5a5">X</text><text x="170" y="170" fill="#86efac">O</text><text x="230" y="170" fill="#fca5a5">X</text>
      <text x="50" y="230" fill="#fca5a5">X</text><text x="110" y="230" fill="#fbbf24">#</text><text x="170" y="230" fill="#fca5a5">X</text><text x="230" y="230" fill="#fca5a5">X</text>
    </g>
  </g>

  <g transform="translate(820,150)">
    <rect width="280" height="280" rx="12" fill="#1f2937" stroke="#4b5563"/>
    <g fill="#374151" stroke="#6b7280">
      <rect x="20" y="20" width="60" height="60"/><rect x="80" y="20" width="60" height="60"/><rect x="140" y="20" width="60" height="60"/><rect x="200" y="20" width="60" height="60"/>
      <rect x="20" y="80" width="60" height="60"/><rect x="80" y="80" width="60" height="60"/><rect x="140" y="80" width="60" height="60"/><rect x="200" y="80" width="60" height="60"/>
      <rect x="20" y="140" width="60" height="60"/><rect x="80" y="140" width="60" height="60"/><rect x="140" y="140" width="60" height="60"/><rect x="200" y="140" width="60" height="60"/>
      <rect x="20" y="200" width="60" height="60"/><rect x="80" y="200" width="60" height="60"/><rect x="140" y="200" width="60" height="60"/><rect x="200" y="200" width="60" height="60"/>
    </g>
    <g class="cell">
      <text x="50" y="50" fill="#fca5a5">X</text><text x="110" y="50" fill="#fca5a5">X</text><text x="170" y="50" fill="#fca5a5">X</text><text x="230" y="50" fill="#fca5a5">X</text>
      <text x="50" y="110" fill="#fca5a5">X</text><text x="110" y="110" fill="#fca5a5">X</text><text x="170" y="110" fill="#fca5a5">X</text><text x="230" y="110" fill="#fca5a5">X</text>
      <text x="50" y="170" fill="#fca5a5">X</text><text x="110" y="170" fill="#fca5a5">X</text><text x="170" y="170" fill="#fca5a5">X</text><text x="230" y="170" fill="#fca5a5">X</text>
      <text x="50" y="230" fill="#fca5a5">X</text><text x="110" y="230" fill="#86efac">O</text><text x="170" y="230" fill="#fca5a5">X</text><text x="230" y="230" fill="#fca5a5">X</text>
    </g>
  </g>
</svg>
