<svg xmlns="http://www.w3.org/2000/svg" width="1200" height="630" viewBox="0 0 1200 630" role="img" aria-label="LeetCode 1299 reverse scan running max diagram">
  <defs>
    <linearGradient id="bg" x1="0" y1="0" x2="1" y2="1">
      <stop offset="0%" stop-color="#0f172a"/>
      <stop offset="100%" stop-color="#1e293b"/>
    </linearGradient>
  </defs>
  <rect width="1200" height="630" fill="url(#bg)"/>
  <text x="60" y="90" fill="#e2e8f0" font-size="40" font-family="Arial, sans-serif" font-weight="700">LeetCode 1299 · Reverse Scan Running Max</text>
  <text x="60" y="130" fill="#93c5fd" font-size="24" font-family="Arial, sans-serif">arr = [17, 18, 5, 4, 6, 1]</text>
  <g font-family="Consolas, monospace" font-size="30" font-weight="700">
    <rect x="60" y="190" width="150" height="90" rx="12" fill="#334155"/><text x="115" y="247" fill="#f8fafc">17</text>
    <rect x="230" y="190" width="150" height="90" rx="12" fill="#334155"/><text x="285" y="247" fill="#f8fafc">18</text>
    <rect x="400" y="190" width="150" height="90" rx="12" fill="#334155"/><text x="468" y="247" fill="#f8fafc">5</text>
    <rect x="570" y="190" width="150" height="90" rx="12" fill="#334155"/><text x="638" y="247" fill="#f8fafc">4</text>
    <rect x="740" y="190" width="150" height="90" rx="12" fill="#334155"/><text x="808" y="247" fill="#f8fafc">6</text>
    <rect x="910" y="190" width="150" height="90" rx="12" fill="#334155"/><text x="978" y="247" fill="#f8fafc">1</text>
  </g>
  <text x="60" y="350" fill="#fcd34d" font-size="28" font-family="Arial, sans-serif">Scan direction: right → left</text>
  <path d="M1030 360 L170 360" stroke="#fcd34d" stroke-width="8" marker-end="url(#arrow)"/>
  <defs><marker id="arrow" markerWidth="10" markerHeight="10" refX="5" refY="3" orient="auto"><polygon points="0 0, 6 3, 0 6" fill="#fcd34d"/></marker></defs>
  <text x="60" y="430" fill="#c7d2fe" font-size="26" font-family="Arial, sans-serif">Output: [18, 6, 6, 6, 1, -1]</text>
  <text x="60" y="490" fill="#a7f3d0" font-size="24" font-family="Arial, sans-serif">Invariant: rightMax always equals max value strictly to the right of current index.</text>
</svg>
