<svg xmlns="http://www.w3.org/2000/svg" width="1200" height="630" viewBox="0 0 1200 630" role="img" aria-label="LeetCode 204 sieve marking composite numbers by prime base">
  <defs>
    <linearGradient id="bg" x1="0" y1="0" x2="1" y2="1">
      <stop offset="0%" stop-color="#0b1220"/>
      <stop offset="100%" stop-color="#111827"/>
    </linearGradient>
  </defs>
  <rect width="1200" height="630" fill="url(#bg)"/>
  <text x="56" y="92" fill="#e5e7eb" font-size="44" font-family="Inter,Arial,sans-serif" font-weight="700">LeetCode 204 · Count Primes</text>
  <text x="56" y="130" fill="#93c5fd" font-size="26" font-family="Inter,Arial,sans-serif">Sieve of Eratosthenes: mark multiples from i²</text>

  <rect x="56" y="170" width="1088" height="388" rx="18" fill="#0f172a" stroke="#334155"/>

  <g font-family="Inter,Arial,sans-serif" font-size="22" text-anchor="middle">
    <text x="112" y="226" fill="#9ca3af">2</text><text x="176" y="226" fill="#9ca3af">3</text><text x="240" y="226" fill="#9ca3af">4</text><text x="304" y="226" fill="#9ca3af">5</text><text x="368" y="226" fill="#9ca3af">6</text><text x="432" y="226" fill="#9ca3af">7</text><text x="496" y="226" fill="#9ca3af">8</text><text x="560" y="226" fill="#9ca3af">9</text><text x="624" y="226" fill="#9ca3af">10</text><text x="688" y="226" fill="#9ca3af">11</text><text x="752" y="226" fill="#9ca3af">12</text><text x="816" y="226" fill="#9ca3af">13</text><text x="880" y="226" fill="#9ca3af">14</text><text x="944" y="226" fill="#9ca3af">15</text><text x="1008" y="226" fill="#9ca3af">16</text><text x="1072" y="226" fill="#9ca3af">17</text>
  </g>

  <g>
    <rect x="86" y="250" width="52" height="52" rx="8" fill="#16a34a"/><text x="112" y="283" fill="#ecfdf5" font-size="20" text-anchor="middle" font-family="Inter,Arial,sans-serif">2</text>
    <rect x="214" y="250" width="52" height="52" rx="8" fill="#ef4444"/><text x="240" y="283" fill="#fee2e2" font-size="20" text-anchor="middle" font-family="Inter,Arial,sans-serif">4</text>
    <rect x="342" y="250" width="52" height="52" rx="8" fill="#ef4444"/><text x="368" y="283" fill="#fee2e2" font-size="20" text-anchor="middle" font-family="Inter,Arial,sans-serif">6</text>
    <rect x="470" y="250" width="52" height="52" rx="8" fill="#ef4444"/><text x="496" y="283" fill="#fee2e2" font-size="20" text-anchor="middle" font-family="Inter,Arial,sans-serif">8</text>
    <rect x="598" y="250" width="52" height="52" rx="8" fill="#ef4444"/><text x="624" y="283" fill="#fee2e2" font-size="20" text-anchor="middle" font-family="Inter,Arial,sans-serif">10</text>
    <rect x="726" y="250" width="52" height="52" rx="8" fill="#ef4444"/><text x="752" y="283" fill="#fee2e2" font-size="20" text-anchor="middle" font-family="Inter,Arial,sans-serif">12</text>
    <rect x="854" y="250" width="52" height="52" rx="8" fill="#ef4444"/><text x="880" y="283" fill="#fee2e2" font-size="20" text-anchor="middle" font-family="Inter,Arial,sans-serif">14</text>
    <rect x="982" y="250" width="52" height="52" rx="8" fill="#ef4444"/><text x="1008" y="283" fill="#fee2e2" font-size="20" text-anchor="middle" font-family="Inter,Arial,sans-serif">16</text>
  </g>

  <g>
    <rect x="150" y="330" width="52" height="52" rx="8" fill="#16a34a"/><text x="176" y="363" fill="#ecfdf5" font-size="20" text-anchor="middle" font-family="Inter,Arial,sans-serif">3</text>
    <rect x="534" y="330" width="52" height="52" rx="8" fill="#ef4444"/><text x="560" y="363" fill="#fee2e2" font-size="20" text-anchor="middle" font-family="Inter,Arial,sans-serif">9</text>
    <rect x="918" y="330" width="52" height="52" rx="8" fill="#ef4444"/><text x="944" y="363" fill="#fee2e2" font-size="20" text-anchor="middle" font-family="Inter,Arial,sans-serif">15</text>
  </g>

  <text x="72" y="458" fill="#22c55e" font-size="24" font-family="Inter,Arial,sans-serif">Green = prime base kept</text>
  <text x="72" y="496" fill="#f87171" font-size="24" font-family="Inter,Arial,sans-serif">Red = marked composite by base multiples</text>
  <text x="72" y="536" fill="#cbd5e1" font-size="22" font-family="Inter,Arial,sans-serif">Author: Tom🦞 · EN first + 中文完整代码 tabs</text>
</svg>
