<svg xmlns="http://www.w3.org/2000/svg" width="1200" height="630" viewBox="0 0 1200 630" role="img" aria-label="LeetCode 101 Symmetric Tree mirror-check diagram">
  <defs>
    <linearGradient id="bg" x1="0" y1="0" x2="1" y2="1">
      <stop offset="0%" stop-color="#0b1220"/>
      <stop offset="100%" stop-color="#111827"/>
    </linearGradient>
  </defs>
  <rect width="1200" height="630" fill="url(#bg)"/>
  <text x="56" y="90" fill="#e5e7eb" font-size="46" font-family="Inter,Arial,sans-serif" font-weight="700">LeetCode 101 · Symmetric Tree</text>
  <text x="56" y="130" fill="#93c5fd" font-size="28" font-family="Inter,Arial,sans-serif">Mirror DFS / BFS</text>
  <rect x="50" y="170" width="1100" height="410" rx="18" fill="#1f2937" stroke="#334155"/>
  <circle cx="600" cy="235" r="22" fill="#22d3ee"/><text x="593" y="242" fill="#0f172a" font-size="20" font-family="monospace">1</text>
  <circle cx="470" cy="320" r="22" fill="#34d399"/><text x="463" y="327" fill="#052e16" font-size="20" font-family="monospace">2</text>
  <circle cx="730" cy="320" r="22" fill="#34d399"/><text x="723" y="327" fill="#052e16" font-size="20" font-family="monospace">2</text>
  <circle cx="410" cy="410" r="22" fill="#fbbf24"/><text x="403" y="417" fill="#422006" font-size="20" font-family="monospace">3</text>
  <circle cx="530" cy="410" r="22" fill="#fbbf24"/><text x="523" y="417" fill="#422006" font-size="20" font-family="monospace">4</text>
  <circle cx="670" cy="410" r="22" fill="#fbbf24"/><text x="663" y="417" fill="#422006" font-size="20" font-family="monospace">4</text>
  <circle cx="790" cy="410" r="22" fill="#fbbf24"/><text x="783" y="417" fill="#422006" font-size="20" font-family="monospace">3</text>
  <line x1="600" y1="257" x2="470" y2="298" stroke="#94a3b8" stroke-width="3"/>
  <line x1="600" y1="257" x2="730" y2="298" stroke="#94a3b8" stroke-width="3"/>
  <line x1="470" y1="342" x2="410" y2="388" stroke="#94a3b8" stroke-width="3"/>
  <line x1="470" y1="342" x2="530" y2="388" stroke="#94a3b8" stroke-width="3"/>
  <line x1="730" y1="342" x2="670" y2="388" stroke="#94a3b8" stroke-width="3"/>
  <line x1="730" y1="342" x2="790" y2="388" stroke="#94a3b8" stroke-width="3"/>
  <path d="M530 470 C580 520, 620 520, 670 470" stroke="#f472b6" stroke-width="4" fill="none" stroke-dasharray="10 8"/>
  <text x="438" y="548" fill="#cbd5e1" font-size="26" font-family="Inter,Arial,sans-serif">Compare pairs: (L.left vs R.right), (L.right vs R.left)</text>
</svg>