<svg xmlns="http://www.w3.org/2000/svg" width="1200" height="630" viewBox="0 0 1200 630" role="img" aria-label="LeetCode 283 Move Zeroes two-pointer diagram">
  <defs>
    <linearGradient id="bg" x1="0" x2="1" y1="0" y2="1">
      <stop offset="0%" stop-color="#0f172a"/>
      <stop offset="100%" stop-color="#111827"/>
    </linearGradient>
  </defs>
  <rect width="1200" height="630" fill="url(#bg)"/>
  <text x="56" y="92" fill="#e5e7eb" font-size="46" font-family="Inter,Arial,sans-serif" font-weight="700">LeetCode 283 · Move Zeroes</text>
  <text x="56" y="138" fill="#93c5fd" font-size="28" font-family="Inter,Arial,sans-serif">Stable compaction with two pointers (k, i)</text>

  <g transform="translate(56,220)">
    <rect x="0" y="0" width="130" height="100" rx="12" fill="#10b981"/>
    <rect x="140" y="0" width="130" height="100" rx="12" fill="#10b981"/>
    <rect x="280" y="0" width="130" height="100" rx="12" fill="#ef4444"/>
    <rect x="420" y="0" width="130" height="100" rx="12" fill="#10b981"/>
    <rect x="560" y="0" width="130" height="100" rx="12" fill="#ef4444"/>
    <rect x="700" y="0" width="130" height="100" rx="12" fill="#10b981"/>
    <rect x="840" y="0" width="130" height="100" rx="12" fill="#ef4444"/>

    <text x="57" y="62" fill="#052e16" font-size="40" font-family="JetBrains Mono,monospace" font-weight="700">1</text>
    <text x="197" y="62" fill="#052e16" font-size="40" font-family="JetBrains Mono,monospace" font-weight="700">3</text>
    <text x="337" y="62" fill="#7f1d1d" font-size="40" font-family="JetBrains Mono,monospace" font-weight="700">0</text>
    <text x="477" y="62" fill="#052e16" font-size="40" font-family="JetBrains Mono,monospace" font-weight="700">12</text>
    <text x="617" y="62" fill="#7f1d1d" font-size="40" font-family="JetBrains Mono,monospace" font-weight="700">0</text>
    <text x="757" y="62" fill="#052e16" font-size="40" font-family="JetBrains Mono,monospace" font-weight="700">5</text>
    <text x="897" y="62" fill="#7f1d1d" font-size="40" font-family="JetBrains Mono,monospace" font-weight="700">0</text>

    <path d="M70 128 L70 168" stroke="#34d399" stroke-width="4"/>
    <text x="52" y="198" fill="#34d399" font-size="26" font-family="Inter,Arial,sans-serif">k</text>

    <path d="M350 128 L350 168" stroke="#fbbf24" stroke-width="4"/>
    <text x="336" y="198" fill="#fbbf24" font-size="26" font-family="Inter,Arial,sans-serif">i</text>

    <path d="M350 240 C450 300, 500 300, 600 240" fill="none" stroke="#60a5fa" stroke-width="6" marker-end="url(#arrow)"/>
  </g>

  <defs>
    <marker id="arrow" viewBox="0 0 10 10" refX="9" refY="5" markerWidth="8" markerHeight="8" orient="auto-start-reverse">
      <path d="M 0 0 L 10 5 L 0 10 z" fill="#60a5fa"/>
    </marker>
  </defs>

  <text x="56" y="576" fill="#cbd5e1" font-size="26" font-family="Inter,Arial,sans-serif">Invariant: [0..k-1] are processed non-zero values in original order; scan pointer i expands the processed region.</text>
</svg>
