<svg xmlns="http://www.w3.org/2000/svg" width="1200" height="630" viewBox="0 0 1200 630" role="img" aria-label="LeetCode 222 count complete tree nodes diagram">
  <defs>
    <linearGradient id="bg" x1="0" y1="0" x2="1" y2="1">
      <stop offset="0%" stop-color="#0f172a"/>
      <stop offset="100%" stop-color="#111827"/>
    </linearGradient>
  </defs>
  <rect width="1200" height="630" fill="url(#bg)"/>
  <text x="60" y="100" fill="#e5e7eb" font-size="46" font-family="Inter,Arial,sans-serif" font-weight="700">LeetCode 222: Count Complete Tree Nodes</text>
  <text x="60" y="150" fill="#9ca3af" font-size="30" font-family="Inter,Arial,sans-serif">Height + Last-Level Binary Search</text>
  <rect x="70" y="200" width="1060" height="350" rx="20" fill="#1f2937" stroke="#374151"/>
  <circle cx="600" cy="250" r="22" fill="#60a5fa"/><text x="593" y="258" fill="#0b1220" font-size="16" font-family="monospace">1</text>
  <circle cx="450" cy="320" r="22" fill="#60a5fa"/><text x="443" y="328" fill="#0b1220" font-size="16" font-family="monospace">2</text>
  <circle cx="750" cy="320" r="22" fill="#60a5fa"/><text x="743" y="328" fill="#0b1220" font-size="16" font-family="monospace">3</text>
  <line x1="585" y1="268" x2="465" y2="303" stroke="#93c5fd" stroke-width="3"/>
  <line x1="615" y1="268" x2="735" y2="303" stroke="#93c5fd" stroke-width="3"/>
  <circle cx="375" cy="395" r="20" fill="#86efac"/><circle cx="525" cy="395" r="20" fill="#86efac"/>
  <circle cx="675" cy="395" r="20" fill="#86efac"/><circle cx="825" cy="395" r="20" fill="#374151" stroke="#9ca3af" stroke-dasharray="6 4"/>
  <line x1="435" y1="338" x2="387" y2="376" stroke="#86efac" stroke-width="3"/>
  <line x1="465" y1="338" x2="513" y2="376" stroke="#86efac" stroke-width="3"/>
  <line x1="735" y1="338" x2="687" y2="376" stroke="#86efac" stroke-width="3"/>
  <line x1="765" y1="338" x2="813" y2="376" stroke="#9ca3af" stroke-width="3" stroke-dasharray="6 4"/>
  <text x="120" y="500" fill="#e5e7eb" font-size="28" font-family="Inter,Arial,sans-serif">Full nodes above last level: 2^h - 1</text>
  <text x="120" y="540" fill="#fcd34d" font-size="28" font-family="Inter,Arial,sans-serif">Binary search existing nodes on last level (left to right)</text>
  <text x="880" y="585" fill="#86efac" font-size="24" font-family="Inter,Arial,sans-serif">Author: Tom🦞</text>
</svg>