<svg xmlns="http://www.w3.org/2000/svg" width="1200" height="630" viewBox="0 0 1200 630" role="img" aria-label="LeetCode 164 Maximum Gap bucket illustration">
  <defs>
    <linearGradient id="bg" x1="0" y1="0" x2="1" y2="1">
      <stop offset="0%" stop-color="#0f172a"/>
      <stop offset="100%" stop-color="#1e293b"/>
    </linearGradient>
    <marker id="arrow" markerWidth="10" markerHeight="10" refX="8" refY="3" orient="auto">
      <polygon points="0 0, 10 3, 0 6" fill="#f59e0b"/>
    </marker>
  </defs>
  <rect width="1200" height="630" fill="url(#bg)"/>
  <text x="60" y="90" fill="#e2e8f0" font-size="44" font-family="Arial, sans-serif" font-weight="700">LeetCode 164 · Maximum Gap</text>
  <text x="60" y="130" fill="#93c5fd" font-size="26" font-family="Arial, sans-serif">Bucket sort via pigeonhole bound</text>

  <g transform="translate(70,200)">
    <rect x="0" y="0" width="170" height="260" rx="12" fill="#334155" stroke="#64748b"/>
    <rect x="190" y="0" width="170" height="260" rx="12" fill="#334155" stroke="#64748b"/>
    <rect x="380" y="0" width="170" height="260" rx="12" fill="#334155" stroke="#64748b"/>
    <rect x="570" y="0" width="170" height="260" rx="12" fill="#334155" stroke="#64748b"/>
    <rect x="760" y="0" width="170" height="260" rx="12" fill="#334155" stroke="#64748b"/>

    <circle cx="85" cy="210" r="14" fill="#22d3ee"/><text x="75" y="245" fill="#bae6fd" font-size="24" font-family="Arial">1</text>
    <circle cx="275" cy="170" r="14" fill="#22d3ee"/><text x="263" y="205" fill="#bae6fd" font-size="24" font-family="Arial">3</text>
    <circle cx="465" cy="95" r="14" fill="#f59e0b"/><text x="453" y="130" fill="#fde68a" font-size="24" font-family="Arial">9</text>
    <circle cx="655" cy="70" r="14" fill="#22d3ee"/><text x="640" y="105" fill="#bae6fd" font-size="24" font-family="Arial">12</text>
    <circle cx="845" cy="35" r="14" fill="#22d3ee"/><text x="831" y="70" fill="#bae6fd" font-size="24" font-family="Arial">16</text>

    <line x1="479" y1="92" x2="641" y2="67" stroke="#f59e0b" stroke-width="4" marker-end="url(#arrow)"/>
    <text x="500" y="45" fill="#fcd34d" font-size="24" font-family="Arial" font-weight="700">max adjacent gap</text>
  </g>
</svg>
