<svg xmlns="http://www.w3.org/2000/svg" width="1200" height="630" viewBox="0 0 1200 630" role="img" aria-label="LeetCode 39 Combination Sum DFS diagram">
  <defs>
    <linearGradient id="bg" x1="0" x2="1" y1="0" y2="1">
      <stop offset="0%" stop-color="#0b1020"/>
      <stop offset="100%" stop-color="#111827"/>
    </linearGradient>
    <marker id="arrow" markerWidth="10" markerHeight="10" refX="8" refY="3" orient="auto">
      <path d="M0,0 L0,6 L9,3 z" fill="#7dd3fc"/>
    </marker>
  </defs>
  <rect width="1200" height="630" fill="url(#bg)"/>

  <text x="48" y="70" fill="#e5e7eb" font-size="42" font-family="Inter,Arial,sans-serif" font-weight="700">LeetCode 39 · Combination Sum</text>
  <text x="48" y="108" fill="#93c5fd" font-size="24" font-family="Inter,Arial,sans-serif">DFS Backtracking with Reuse + Pruning (sorted candidates)</text>

  <rect x="50" y="150" width="200" height="56" rx="10" fill="#1f2937" stroke="#4b5563"/>
  <text x="66" y="184" fill="#e5e7eb" font-size="24" font-family="Consolas,Monaco,monospace">[] , remain=7</text>

  <rect x="290" y="260" width="220" height="56" rx="10" fill="#1f2937" stroke="#4b5563"/>
  <text x="306" y="294" fill="#e5e7eb" font-size="24" font-family="Consolas,Monaco,monospace">[2] , remain=5</text>

  <rect x="570" y="370" width="240" height="56" rx="10" fill="#1f2937" stroke="#4b5563"/>
  <text x="586" y="404" fill="#e5e7eb" font-size="24" font-family="Consolas,Monaco,monospace">[2,2] , rem=3</text>

  <rect x="890" y="480" width="260" height="56" rx="10" fill="#0f2a1d" stroke="#22c55e"/>
  <text x="906" y="514" fill="#bbf7d0" font-size="24" font-family="Consolas,Monaco,monospace">[2,2,3] ✓</text>

  <rect x="570" y="230" width="240" height="56" rx="10" fill="#1f2937" stroke="#4b5563"/>
  <text x="586" y="264" fill="#e5e7eb" font-size="24" font-family="Consolas,Monaco,monospace">[2,3] , rem=2</text>

  <rect x="890" y="300" width="260" height="56" rx="10" fill="#0f2a1d" stroke="#22c55e"/>
  <text x="906" y="334" fill="#bbf7d0" font-size="24" font-family="Consolas,Monaco,monospace">[2,2,3] same combo</text>

  <rect x="290" y="150" width="220" height="56" rx="10" fill="#1f2937" stroke="#4b5563"/>
  <text x="306" y="184" fill="#e5e7eb" font-size="24" font-family="Consolas,Monaco,monospace">[3] , remain=4</text>

  <rect x="570" y="150" width="240" height="56" rx="10" fill="#1f2937" stroke="#4b5563"/>
  <text x="586" y="184" fill="#e5e7eb" font-size="24" font-family="Consolas,Monaco,monospace">[3,3] , rem=1</text>

  <rect x="890" y="150" width="250" height="56" rx="10" fill="#0f2a1d" stroke="#22c55e"/>
  <text x="906" y="184" fill="#bbf7d0" font-size="24" font-family="Consolas,Monaco,monospace">[7] ✓</text>

  <line x1="250" y1="178" x2="290" y2="178" stroke="#7dd3fc" stroke-width="3" marker-end="url(#arrow)"/>
  <line x1="250" y1="190" x2="290" y2="288" stroke="#7dd3fc" stroke-width="3" marker-end="url(#arrow)"/>
  <line x1="510" y1="288" x2="570" y2="398" stroke="#7dd3fc" stroke-width="3" marker-end="url(#arrow)"/>
  <line x1="810" y1="398" x2="890" y2="508" stroke="#7dd3fc" stroke-width="3" marker-end="url(#arrow)"/>
  <line x1="510" y1="178" x2="570" y2="178" stroke="#7dd3fc" stroke-width="3" marker-end="url(#arrow)"/>
  <line x1="810" y1="178" x2="890" y2="178" stroke="#7dd3fc" stroke-width="3" marker-end="url(#arrow)"/>

  <text x="48" y="590" fill="#9ca3af" font-size="20" font-family="Inter,Arial,sans-serif">Author: Tom🦞 · Rule: recurse with same index i to allow unlimited reuse; break when candidate &gt; remaining.</text>
</svg>
