<svg xmlns="http://www.w3.org/2000/svg" width="1200" height="630" viewBox="0 0 1200 630"><rect width="1200" height="630" fill="#0f172a"/><text x="60" y="90" fill="#e2e8f0" font-size="46" font-family="Arial" font-weight="700">LeetCode 18 · 4Sum</text><text x="60" y="135" fill="#94a3b8" font-size="28" font-family="Arial">Fix i,j then two-pointer l,r with dedup</text><g transform="translate(90,270)" fill="#1e293b" stroke="#94a3b8" stroke-width="2"><rect x="0" y="0" width="150" height="82" rx="12"/><rect x="180" y="0" width="150" height="82" rx="12"/><rect x="360" y="0" width="150" height="82" rx="12"/><rect x="540" y="0" width="150" height="82" rx="12"/><rect x="720" y="0" width="150" height="82" rx="12"/><rect x="900" y="0" width="150" height="82" rx="12"/></g><text x="150" y="322" fill="#e2e8f0" font-size="34" font-family="Arial">-2</text><text x="330" y="322" fill="#e2e8f0" font-size="34" font-family="Arial">-1</text><text x="510" y="322" fill="#e2e8f0" font-size="34" font-family="Arial">0</text><text x="690" y="322" fill="#e2e8f0" font-size="34" font-family="Arial">0</text><text x="870" y="322" fill="#e2e8f0" font-size="34" font-family="Arial">1</text><text x="1045" y="322" fill="#e2e8f0" font-size="34" font-family="Arial">2</text><text x="130" y="230" fill="#38bdf8" font-size="26" font-family="Arial">i</text><text x="310" y="230" fill="#22c55e" font-size="26" font-family="Arial">j</text><text x="690" y="230" fill="#f59e0b" font-size="26" font-family="Arial">l →</text><text x="1020" y="230" fill="#f97316" font-size="26" font-family="Arial">← r</text><text x="360" y="450" fill="#cbd5e1" font-size="30" font-family="Arial">Skip duplicates at i / j / l / r to keep unique quadruplets</text></svg>
