<svg xmlns="http://www.w3.org/2000/svg" width="1200" height="630" viewBox="0 0 1200 630" role="img" aria-label="LeetCode 326 repeated division by 3 diagram">
  <defs>
    <linearGradient id="bg" x1="0" y1="0" x2="1" y2="1">
      <stop offset="0%" stop-color="#0f172a"/>
      <stop offset="100%" stop-color="#1e293b"/>
    </linearGradient>
  </defs>
  <rect width="1200" height="630" fill="url(#bg)"/>
  <text x="60" y="90" fill="#e2e8f0" font-size="42" font-family="Arial, sans-serif" font-weight="700">LeetCode 326 · Power of Three</text>
  <text x="60" y="140" fill="#94a3b8" font-size="28" font-family="Arial, sans-serif">Repeated division invariant: n % 3 == 0 until n becomes 1</text>

  <g fill="none" stroke="#38bdf8" stroke-width="4">
    <rect x="90" y="220" width="160" height="90" rx="14"/>
    <rect x="320" y="220" width="160" height="90" rx="14"/>
    <rect x="550" y="220" width="160" height="90" rx="14"/>
    <rect x="780" y="220" width="160" height="90" rx="14"/>
  </g>
  <g fill="#e2e8f0" font-size="34" font-family="Consolas, monospace" text-anchor="middle">
    <text x="170" y="275">81</text>
    <text x="400" y="275">27</text>
    <text x="630" y="275">9</text>
    <text x="860" y="275">3</text>
  </g>
  <g fill="#94a3b8" font-size="22" font-family="Arial, sans-serif" text-anchor="middle">
    <text x="170" y="338">÷3</text>
    <text x="400" y="338">÷3</text>
    <text x="630" y="338">÷3</text>
    <text x="860" y="338">÷3</text>
  </g>
  <g stroke="#22c55e" stroke-width="5" fill="none" marker-end="url(#arrow)">
    <path d="M250 265 L320 265"/>
    <path d="M480 265 L550 265"/>
    <path d="M710 265 L780 265"/>
    <path d="M940 265 L1010 265"/>
  </g>
  <defs>
    <marker id="arrow" markerWidth="10" markerHeight="10" refX="8" refY="3" orient="auto">
      <polygon points="0 0, 10 3, 0 6" fill="#22c55e"/>
    </marker>
  </defs>
  <rect x="1010" y="220" width="120" height="90" rx="14" fill="none" stroke="#22c55e" stroke-width="4"/>
  <text x="1070" y="275" fill="#22c55e" font-size="34" font-family="Consolas, monospace" text-anchor="middle">1</text>
  <text x="60" y="500" fill="#cbd5e1" font-size="28" font-family="Arial, sans-serif">If final value is exactly 1 → true; otherwise → false.</text>
</svg>
