<svg xmlns="http://www.w3.org/2000/svg" width="1200" height="630" viewBox="0 0 1200 630" role="img" aria-label="LeetCode 344 Reverse String two-pointer diagram">
  <defs>
    <linearGradient id="bg" x1="0" x2="1" y1="0" y2="1">
      <stop offset="0%" stop-color="#0f172a"/>
      <stop offset="100%" stop-color="#111827"/>
    </linearGradient>
    <marker id="arrow" markerWidth="10" markerHeight="10" refX="8" refY="3" orient="auto">
      <path d="M0,0 L0,6 L9,3 z" fill="#22d3ee"/>
    </marker>
    <marker id="arrow2" markerWidth="10" markerHeight="10" refX="8" refY="3" orient="auto">
      <path d="M0,0 L0,6 L9,3 z" fill="#f472b6"/>
    </marker>
  </defs>
  <rect width="1200" height="630" fill="url(#bg)"/>
  <text x="60" y="96" fill="#e5e7eb" font-size="46" font-family="Inter,Arial,sans-serif" font-weight="700">LeetCode 344: Reverse String</text>
  <text x="60" y="142" fill="#93c5fd" font-size="28" font-family="Inter,Arial,sans-serif">In-Place Two Pointers · Swap from Both Ends</text>

  <rect x="70" y="210" width="1060" height="310" rx="18" fill="#111827" stroke="#334155"/>

  <g font-family="JetBrains Mono,Consolas,monospace" font-size="40" text-anchor="middle">
    <rect x="140" y="320" width="110" height="90" rx="12" fill="#1f2937" stroke="#475569"/>
    <rect x="260" y="320" width="110" height="90" rx="12" fill="#1f2937" stroke="#475569"/>
    <rect x="380" y="320" width="110" height="90" rx="12" fill="#1f2937" stroke="#475569"/>
    <rect x="500" y="320" width="110" height="90" rx="12" fill="#1f2937" stroke="#475569"/>
    <rect x="620" y="320" width="110" height="90" rx="12" fill="#1f2937" stroke="#475569"/>
    <rect x="740" y="320" width="110" height="90" rx="12" fill="#1f2937" stroke="#475569"/>
    <rect x="860" y="320" width="110" height="90" rx="12" fill="#1f2937" stroke="#475569"/>
    <rect x="980" y="320" width="110" height="90" rx="12" fill="#1f2937" stroke="#475569"/>

    <text x="195" y="377" fill="#e2e8f0">h</text>
    <text x="315" y="377" fill="#e2e8f0">e</text>
    <text x="435" y="377" fill="#e2e8f0">l</text>
    <text x="555" y="377" fill="#e2e8f0">l</text>
    <text x="675" y="377" fill="#e2e8f0">o</text>
    <text x="795" y="377" fill="#e2e8f0">🦞</text>
    <text x="915" y="377" fill="#e2e8f0">!</text>
    <text x="1035" y="377" fill="#e2e8f0">?</text>
  </g>

  <path d="M195 300 L430 250" stroke="#22d3ee" stroke-width="6" marker-end="url(#arrow)"/>
  <path d="M1035 300 L800 250" stroke="#f472b6" stroke-width="6" marker-end="url(#arrow2)"/>
  <text x="180" y="290" fill="#22d3ee" font-size="24" font-family="Inter,Arial,sans-serif">left++</text>
  <text x="960" y="290" fill="#f472b6" font-size="24" font-family="Inter,Arial,sans-serif">right--</text>

  <text x="80" y="574" fill="#86efac" font-size="26" font-family="Inter,Arial,sans-serif">Invariant: fixed prefix + fixed suffix are already reversed after each swap.</text>
  <text x="80" y="607" fill="#cbd5e1" font-size="22" font-family="Inter,Arial,sans-serif">Author: Tom🦞</text>
</svg>
