<svg xmlns="http://www.w3.org/2000/svg" width="960" height="540" viewBox="0 0 960 540" role="img" aria-label="LeetCode 199 right side view diagram">
  <defs><style>.bg{fill:#0b1020}.panel{fill:#121a33;stroke:#2a3a6a;stroke-width:2;rx:14}.node{fill:#1f2a4d;stroke:#7aa2ff;stroke-width:2}.text{fill:#e8efff;font:20px Segoe UI,Arial,sans-serif}.small{fill:#9fb4ff;font:17px Segoe UI,Arial,sans-serif}.accent{fill:#3ddc97;font-weight:700}.line{stroke:#6d86d8;stroke-width:3}.ray{stroke:#ffb454;stroke-width:4;stroke-dasharray:8 8}</style></defs>
  <rect class="bg" x="0" y="0" width="960" height="540"/><rect class="panel" x="28" y="24" width="904" height="492"/>
  <text class="text" x="56" y="70">LeetCode 199 · Binary Tree Right Side View</text><text class="small" x="56" y="102">At each level, keep the last node popped from the queue.</text>
  <line class="line" x1="250" y1="180" x2="170" y2="260"/><line class="line" x1="250" y1="180" x2="330" y2="260"/><line class="line" x1="330" y1="260" x2="290" y2="340"/><line class="line" x1="330" y1="260" x2="370" y2="340"/>
  <circle class="node" cx="250" cy="180" r="30"/><text class="text" x="242" y="187">1</text><circle class="node" cx="170" cy="260" r="30"/><text class="text" x="162" y="267">2</text><circle class="node" cx="330" cy="260" r="30"/><text class="text" x="322" y="267">3</text><circle class="node" cx="290" cy="340" r="30"/><text class="text" x="282" y="347">5</text><circle class="node" cx="370" cy="340" r="30"/><text class="text" x="362" y="347">4</text>
  <line class="ray" x1="470" y1="120" x2="800" y2="120"/><line class="ray" x1="470" y1="260" x2="800" y2="260"/><line class="ray" x1="470" y1="340" x2="800" y2="340"/>
  <text class="small" x="520" y="125">Level 0 → pick 1</text><text class="small" x="520" y="265">Level 1 → pick 3</text><text class="small" x="520" y="345">Level 2 → pick 4</text><text class="text accent" x="520" y="420">Right side view = [1, 3, 4]</text>
</svg>
