<svg xmlns="http://www.w3.org/2000/svg" width="1200" height="630" viewBox="0 0 1200 630" role="img" aria-label="LeetCode 111 minimum depth BFS diagram">
  <defs>
    <linearGradient id="bg" x1="0" x2="1" y1="0" y2="1">
      <stop offset="0%" stop-color="#0b1220"/>
      <stop offset="100%" stop-color="#111827"/>
    </linearGradient>
  </defs>
  <rect width="1200" height="630" fill="url(#bg)"/>
  <text x="56" y="92" fill="#e5e7eb" font-size="46" font-family="Inter,Arial,sans-serif" font-weight="700">LeetCode 111 · Minimum Depth of Binary Tree</text>
  <text x="56" y="138" fill="#93c5fd" font-size="28" font-family="Inter,Arial,sans-serif">First leaf found by BFS gives the minimum depth</text>

  <circle cx="260" cy="250" r="30" fill="#1f2937" stroke="#60a5fa" stroke-width="2"/>
  <text x="250" y="258" fill="#e5e7eb" font-size="22" font-family="Inter,Arial,sans-serif">1</text>
  <line x1="240" y1="275" x2="170" y2="340" stroke="#6b7280" stroke-width="3"/>
  <line x1="280" y1="275" x2="350" y2="340" stroke="#6b7280" stroke-width="3"/>

  <circle cx="160" cy="360" r="28" fill="#1f2937" stroke="#34d399" stroke-width="2"/>
  <text x="151" y="368" fill="#e5e7eb" font-size="20" font-family="Inter,Arial,sans-serif">2</text>
  <circle cx="360" cy="360" r="28" fill="#1f2937" stroke="#f59e0b" stroke-width="2"/>
  <text x="351" y="368" fill="#e5e7eb" font-size="20" font-family="Inter,Arial,sans-serif">3</text>

  <line x1="360" y1="388" x2="315" y2="455" stroke="#6b7280" stroke-width="3"/>
  <line x1="360" y1="388" x2="405" y2="455" stroke="#6b7280" stroke-width="3"/>
  <circle cx="305" cy="475" r="24" fill="#1f2937" stroke="#6b7280" stroke-width="2"/>
  <circle cx="415" cy="475" r="24" fill="#1f2937" stroke="#6b7280" stroke-width="2"/>

  <rect x="560" y="210" width="560" height="300" rx="18" fill="#0f172a" stroke="#334155"/>
  <text x="590" y="265" fill="#e5e7eb" font-size="28" font-family="Inter,Arial,sans-serif">BFS levels:</text>
  <text x="590" y="315" fill="#93c5fd" font-size="24" font-family="Inter,Arial,sans-serif">Depth 1: [1]</text>
  <text x="590" y="355" fill="#93c5fd" font-size="24" font-family="Inter,Arial,sans-serif">Depth 2: [2, 3]  ← node 2 is first leaf</text>
  <text x="590" y="395" fill="#86efac" font-size="24" font-family="Inter,Arial,sans-serif">Answer = 2 (return immediately)</text>
  <text x="590" y="445" fill="#9ca3af" font-size="22" font-family="Inter,Arial,sans-serif">Author: Tom🦞</text>
</svg>
