<svg xmlns="http://www.w3.org/2000/svg" width="1200" height="630" viewBox="0 0 1200 630" role="img" aria-label="LeetCode 2487 monotonic stack on linked list">
  <defs>
    <linearGradient id="bg" x1="0" y1="0" x2="1" y2="1">
      <stop offset="0%" stop-color="#0f172a"/>
      <stop offset="100%" stop-color="#111827"/>
    </linearGradient>
    <marker id="arrow" markerWidth="10" markerHeight="10" refX="8" refY="3" orient="auto">
      <path d="M0,0 L0,6 L9,3 z" fill="#93c5fd"/>
    </marker>
  </defs>
  <rect width="1200" height="630" fill="url(#bg)"/>
  <text x="50" y="80" fill="#e5e7eb" font-size="42" font-family="Inter,Arial,sans-serif" font-weight="700">LeetCode 2487 - Remove Nodes From Linked List</text>
  <text x="50" y="125" fill="#9ca3af" font-size="26" font-family="Inter,Arial,sans-serif">Keep nodes that are >= every value to their right</text>

  <rect x="60" y="190" width="130" height="70" rx="12" fill="#1f2937" stroke="#4b5563"/>
  <text x="115" y="235" fill="#f8fafc" font-size="32" text-anchor="middle" font-family="monospace">5</text>
  <rect x="250" y="190" width="130" height="70" rx="12" fill="#1f2937" stroke="#4b5563"/>
  <text x="315" y="235" fill="#f8fafc" font-size="32" text-anchor="middle" font-family="monospace">2</text>
  <rect x="440" y="190" width="130" height="70" rx="12" fill="#1f2937" stroke="#4b5563"/>
  <text x="505" y="235" fill="#f8fafc" font-size="32" text-anchor="middle" font-family="monospace">13</text>
  <rect x="630" y="190" width="130" height="70" rx="12" fill="#1f2937" stroke="#4b5563"/>
  <text x="695" y="235" fill="#f8fafc" font-size="32" text-anchor="middle" font-family="monospace">3</text>
  <rect x="820" y="190" width="130" height="70" rx="12" fill="#1f2937" stroke="#4b5563"/>
  <text x="885" y="235" fill="#f8fafc" font-size="32" text-anchor="middle" font-family="monospace">8</text>

  <line x1="190" y1="225" x2="250" y2="225" stroke="#93c5fd" stroke-width="4" marker-end="url(#arrow)"/>
  <line x1="380" y1="225" x2="440" y2="225" stroke="#93c5fd" stroke-width="4" marker-end="url(#arrow)"/>
  <line x1="570" y1="225" x2="630" y2="225" stroke="#93c5fd" stroke-width="4" marker-end="url(#arrow)"/>
  <line x1="760" y1="225" x2="820" y2="225" stroke="#93c5fd" stroke-width="4" marker-end="url(#arrow)"/>

  <text x="60" y="340" fill="#86efac" font-size="30" font-family="Inter,Arial,sans-serif">Scan from right: max = 8 -&gt; 13 survives, 3 and 2 removed</text>
  <text x="60" y="395" fill="#fbbf24" font-size="30" font-family="Inter,Arial,sans-serif">Result: 13 -&gt; 8 (reverse back to original order)</text>
  <text x="60" y="470" fill="#e5e7eb" font-size="26" font-family="Inter,Arial,sans-serif">Author: Tom🦞 · EN + 中文 · Java/Go/C++/Python/JavaScript</text>
</svg>
