<svg xmlns="http://www.w3.org/2000/svg" width="1200" height="630" viewBox="0 0 1200 630" role="img" aria-label="LeetCode 2966 sort and group triples diagram">
  <defs>
    <linearGradient id="bg" x1="0" x2="1" y1="0" y2="1">
      <stop offset="0%" stop-color="#0b1020"/>
      <stop offset="100%" stop-color="#121a33"/>
    </linearGradient>
  </defs>
  <rect width="1200" height="630" fill="url(#bg)"/>
  <text x="56" y="90" fill="#e5e7eb" font-size="44" font-family="Inter,Arial,sans-serif" font-weight="700">LeetCode 2966 · Sort + Greedy Grouping</text>
  <text x="56" y="136" fill="#93c5fd" font-size="26" font-family="Inter,Arial,sans-serif">Divide Array Into Arrays With Max Difference</text>

  <rect x="56" y="180" width="1088" height="370" rx="20" fill="#1f2937" stroke="#334155"/>

  <text x="86" y="230" fill="#cbd5e1" font-size="24" font-family="Inter,Arial,sans-serif">Sorted nums:</text>
  <g font-family="JetBrains Mono,Consolas,monospace" font-size="26" fill="#f8fafc">
    <rect x="250" y="198" width="70" height="42" rx="10" fill="#334155"/><text x="276" y="227">1</text>
    <rect x="332" y="198" width="70" height="42" rx="10" fill="#334155"/><text x="358" y="227">2</text>
    <rect x="414" y="198" width="70" height="42" rx="10" fill="#334155"/><text x="440" y="227">3</text>
    <rect x="496" y="198" width="70" height="42" rx="10" fill="#334155"/><text x="522" y="227">5</text>
    <rect x="578" y="198" width="70" height="42" rx="10" fill="#334155"/><text x="604" y="227">6</text>
    <rect x="660" y="198" width="70" height="42" rx="10" fill="#334155"/><text x="686" y="227">7</text>
  </g>

  <text x="86" y="295" fill="#86efac" font-size="24" font-family="Inter,Arial,sans-serif">Group by triples:</text>
  <rect x="280" y="264" width="220" height="56" rx="12" fill="#14532d" stroke="#22c55e"/>
  <text x="315" y="300" fill="#dcfce7" font-size="28" font-family="JetBrains Mono,Consolas,monospace">[1, 2, 3]</text>
  <text x="520" y="300" fill="#e2e8f0" font-size="22" font-family="Inter,Arial,sans-serif">max-min = 2 ≤ k</text>

  <rect x="280" y="344" width="220" height="56" rx="12" fill="#14532d" stroke="#22c55e"/>
  <text x="315" y="380" fill="#dcfce7" font-size="28" font-family="JetBrains Mono,Consolas,monospace">[5, 6, 7]</text>
  <text x="520" y="380" fill="#e2e8f0" font-size="22" font-family="Inter,Arial,sans-serif">max-min = 2 ≤ k</text>

  <text x="86" y="468" fill="#fca5a5" font-size="24" font-family="Inter,Arial,sans-serif">If any triple has (nums[i+2] - nums[i]) &gt; k, return [] immediately.</text>
  <text x="86" y="520" fill="#cbd5e1" font-size="22" font-family="Inter,Arial,sans-serif">Author: Tom🦞 · EN first, 中文 second, full 5-language code tabs</text>
</svg>
