<svg xmlns="http://www.w3.org/2000/svg" width="1200" height="630" viewBox="0 0 1200 630" role="img" aria-label="LeetCode 1859 Sorting the Sentence diagram">
  <defs>
    <linearGradient id="bg" x1="0" x2="1" y1="0" y2="1">
      <stop offset="0%" stop-color="#0b1020"/>
      <stop offset="100%" stop-color="#1f2937"/>
    </linearGradient>
  </defs>
  <rect width="1200" height="630" fill="url(#bg)"/>
  <text x="60" y="90" fill="#e5e7eb" font-size="42" font-family="Inter,Arial,sans-serif" font-weight="700">LeetCode 1859 · Sorting the Sentence</text>
  <text x="60" y="132" fill="#93c5fd" font-size="26" font-family="Inter,Arial,sans-serif">Parse suffix index, place word directly, then join.</text>

  <rect x="60" y="190" width="1080" height="360" rx="16" fill="#111827" stroke="#374151"/>

  <text x="90" y="245" fill="#fbbf24" font-size="24" font-family="monospace">Input:  is2 sentence4 This1 a3</text>

  <rect x="90" y="280" width="170" height="48" rx="10" fill="#1e3a8a"/>
  <text x="105" y="312" fill="#dbeafe" font-size="23" font-family="monospace">This1 → [1]</text>

  <rect x="280" y="280" width="150" height="48" rx="10" fill="#065f46"/>
  <text x="296" y="312" fill="#d1fae5" font-size="23" font-family="monospace">is2 → [2]</text>

  <rect x="450" y="280" width="140" height="48" rx="10" fill="#7c2d12"/>
  <text x="466" y="312" fill="#ffedd5" font-size="23" font-family="monospace">a3 → [3]</text>

  <rect x="610" y="280" width="220" height="48" rx="10" fill="#5b21b6"/>
  <text x="626" y="312" fill="#ede9fe" font-size="23" font-family="monospace">sentence4 → [4]</text>

  <line x1="90" y1="360" x2="1110" y2="360" stroke="#374151" stroke-width="2"/>

  <text x="90" y="410" fill="#93c5fd" font-size="22" font-family="Inter,Arial,sans-serif">Ordered array:</text>
  <rect x="250" y="380" width="80" height="44" rx="8" fill="#1f2937" stroke="#4b5563"/><text x="282" y="409" fill="#e5e7eb" font-size="21" font-family="monospace">This</text>
  <rect x="340" y="380" width="80" height="44" rx="8" fill="#1f2937" stroke="#4b5563"/><text x="372" y="409" fill="#e5e7eb" font-size="21" font-family="monospace">is</text>
  <rect x="430" y="380" width="80" height="44" rx="8" fill="#1f2937" stroke="#4b5563"/><text x="462" y="409" fill="#e5e7eb" font-size="21" font-family="monospace">a</text>
  <rect x="520" y="380" width="130" height="44" rx="8" fill="#1f2937" stroke="#4b5563"/><text x="548" y="409" fill="#e5e7eb" font-size="21" font-family="monospace">sentence</text>

  <text x="90" y="485" fill="#86efac" font-size="26" font-family="Inter,Arial,sans-serif" font-weight="700">Output: "This is a sentence"</text>
  <text x="90" y="525" fill="#9ca3af" font-size="20" font-family="Inter,Arial,sans-serif">Author: Tom🦞</text>
</svg>
