<svg xmlns="http://www.w3.org/2000/svg" width="1200" height="630" viewBox="0 0 1200 630" role="img" aria-label="Leaf-Similar Trees diagram">
  <defs>
    <linearGradient id="bg" x1="0" x2="1" y1="0" y2="1">
      <stop offset="0%" stop-color="#0f172a"/>
      <stop offset="100%" stop-color="#1e293b"/>
    </linearGradient>
    <style>
      .t{fill:#e2e8f0;font-family:Arial,sans-serif}.h{font-size:38px;font-weight:700}.s{font-size:24px}.n{fill:#38bdf8}.l{fill:#fbbf24}.w{stroke:#94a3b8;stroke-width:3}
    </style>
  </defs>
  <rect width="1200" height="630" fill="url(#bg)"/>
  <text x="60" y="80" class="t h">LeetCode 872 - Leaf-Similar Trees</text>
  <text x="60" y="120" class="t s">Collect leaves left to right, then compare sequences</text>

  <circle cx="220" cy="220" r="24" class="n"/><text x="212" y="227" class="t">3</text>
  <circle cx="150" cy="300" r="24" class="n"/><text x="142" y="307" class="t">5</text>
  <circle cx="290" cy="300" r="24" class="n"/><text x="282" y="307" class="t">1</text>
  <circle cx="120" cy="390" r="24" class="l"/><text x="112" y="397" class="t">6</text>
  <circle cx="180" cy="390" r="24" class="l"/><text x="172" y="397" class="t">2</text>
  <circle cx="270" cy="390" r="24" class="l"/><text x="262" y="397" class="t">9</text>
  <circle cx="330" cy="390" r="24" class="l"/><text x="322" y="397" class="t">8</text>
  <line x1="205" y1="240" x2="165" y2="278" class="w"/>
  <line x1="235" y1="240" x2="275" y2="278" class="w"/>
  <line x1="150" y1="324" x2="120" y2="366" class="w"/>
  <line x1="150" y1="324" x2="180" y2="366" class="w"/>
  <line x1="290" y1="324" x2="270" y2="366" class="w"/>
  <line x1="290" y1="324" x2="330" y2="366" class="w"/>

  <circle cx="760" cy="220" r="24" class="n"/><text x="752" y="227" class="t">7</text>
  <circle cx="690" cy="300" r="24" class="n"/><text x="682" y="307" class="t">2</text>
  <circle cx="830" cy="300" r="24" class="n"/><text x="822" y="307" class="t">4</text>
  <circle cx="660" cy="390" r="24" class="l"/><text x="652" y="397" class="t">6</text>
  <circle cx="720" cy="390" r="24" class="l"/><text x="712" y="397" class="t">2</text>
  <circle cx="810" cy="390" r="24" class="l"/><text x="802" y="397" class="t">9</text>
  <circle cx="870" cy="390" r="24" class="l"/><text x="862" y="397" class="t">8</text>
  <line x1="745" y1="240" x2="705" y2="278" class="w"/>
  <line x1="775" y1="240" x2="815" y2="278" class="w"/>
  <line x1="690" y1="324" x2="660" y2="366" class="w"/>
  <line x1="690" y1="324" x2="720" y2="366" class="w"/>
  <line x1="830" y1="324" x2="810" y2="366" class="w"/>
  <line x1="830" y1="324" x2="870" y2="366" class="w"/>

  <text x="480" y="520" class="t s">Leaf sequence A: [6, 2, 9, 8]</text>
  <text x="480" y="560" class="t s">Leaf sequence B: [6, 2, 9, 8]  =>  Similar ✅</text>
</svg>
