<svg xmlns="http://www.w3.org/2000/svg" width="1200" height="630" viewBox="0 0 1200 630" role="img" aria-label="LeetCode 897 inorder relinking diagram">
  <defs>
    <linearGradient id="bg" x1="0" y1="0" x2="1" y2="1">
      <stop offset="0%" stop-color="#0f172a"/>
      <stop offset="100%" stop-color="#111827"/>
    </linearGradient>
    <marker id="arrow" markerWidth="10" markerHeight="7" refX="8" refY="3.5" orient="auto">
      <polygon points="0 0, 10 3.5, 0 7" fill="#34d399" />
    </marker>
  </defs>
  <rect width="1200" height="630" fill="url(#bg)"/>
  <text x="48" y="72" fill="#e5e7eb" font-size="42" font-family="Inter,Arial,sans-serif" font-weight="700">LeetCode 897 · Increasing Order Search Tree</text>
  <text x="48" y="112" fill="#9ca3af" font-size="24" font-family="Inter,Arial,sans-serif">Inorder traversal keeps sorted order, relink nodes into a right-only chain</text>

  <text x="90" y="180" fill="#93c5fd" font-size="28" font-family="Inter,Arial,sans-serif">Original BST</text>
  <circle cx="180" cy="245" r="24" fill="#1f2937" stroke="#60a5fa"/><text x="172" y="252" fill="#e5e7eb" font-size="20">5</text>
  <circle cx="120" cy="320" r="24" fill="#1f2937" stroke="#60a5fa"/><text x="112" y="327" fill="#e5e7eb" font-size="20">3</text>
  <circle cx="240" cy="320" r="24" fill="#1f2937" stroke="#60a5fa"/><text x="232" y="327" fill="#e5e7eb" font-size="20">6</text>
  <circle cx="90" cy="395" r="24" fill="#1f2937" stroke="#60a5fa"/><text x="82" y="402" fill="#e5e7eb" font-size="20">2</text>
  <circle cx="150" cy="395" r="24" fill="#1f2937" stroke="#60a5fa"/><text x="142" y="402" fill="#e5e7eb" font-size="20">4</text>
  <circle cx="60" cy="470" r="24" fill="#1f2937" stroke="#60a5fa"/><text x="52" y="477" fill="#e5e7eb" font-size="20">1</text>
  <circle cx="300" cy="395" r="24" fill="#1f2937" stroke="#60a5fa"/><text x="292" y="402" fill="#e5e7eb" font-size="20">8</text>
  <circle cx="270" cy="470" r="24" fill="#1f2937" stroke="#60a5fa"/><text x="262" y="477" fill="#e5e7eb" font-size="20">7</text>
  <circle cx="330" cy="470" r="24" fill="#1f2937" stroke="#60a5fa"/><text x="322" y="477" fill="#e5e7eb" font-size="20">9</text>

  <line x1="170" y1="267" x2="130" y2="298" stroke="#60a5fa"/>
  <line x1="190" y1="267" x2="230" y2="298" stroke="#60a5fa"/>
  <line x1="110" y1="340" x2="96" y2="374" stroke="#60a5fa"/>
  <line x1="130" y1="340" x2="144" y2="374" stroke="#60a5fa"/>
  <line x1="80" y1="414" x2="66" y2="449" stroke="#60a5fa"/>
  <line x1="250" y1="340" x2="290" y2="374" stroke="#60a5fa"/>
  <line x1="290" y1="415" x2="276" y2="449" stroke="#60a5fa"/>
  <line x1="310" y1="415" x2="324" y2="449" stroke="#60a5fa"/>

  <text x="470" y="325" fill="#34d399" font-size="64" font-family="Inter,Arial,sans-serif">→</text>

  <text x="620" y="180" fill="#86efac" font-size="28" font-family="Inter,Arial,sans-serif">Re-linked increasing tree (right-only)</text>
  <circle cx="620" cy="300" r="24" fill="#1f2937" stroke="#34d399"/><text x="612" y="307" fill="#e5e7eb" font-size="20">1</text>
  <circle cx="700" cy="300" r="24" fill="#1f2937" stroke="#34d399"/><text x="692" y="307" fill="#e5e7eb" font-size="20">2</text>
  <circle cx="780" cy="300" r="24" fill="#1f2937" stroke="#34d399"/><text x="772" y="307" fill="#e5e7eb" font-size="20">3</text>
  <circle cx="860" cy="300" r="24" fill="#1f2937" stroke="#34d399"/><text x="852" y="307" fill="#e5e7eb" font-size="20">4</text>
  <circle cx="940" cy="300" r="24" fill="#1f2937" stroke="#34d399"/><text x="932" y="307" fill="#e5e7eb" font-size="20">5</text>
  <circle cx="1020" cy="300" r="24" fill="#1f2937" stroke="#34d399"/><text x="1012" y="307" fill="#e5e7eb" font-size="20">6</text>
  <circle cx="1100" cy="300" r="24" fill="#1f2937" stroke="#34d399"/><text x="1092" y="307" fill="#e5e7eb" font-size="20">7</text>
  <circle cx="940" cy="390" r="24" fill="#1f2937" stroke="#34d399"/><text x="932" y="397" fill="#e5e7eb" font-size="20">8</text>
  <circle cx="1020" cy="390" r="24" fill="#1f2937" stroke="#34d399"/><text x="1012" y="397" fill="#e5e7eb" font-size="20">9</text>

  <line x1="644" y1="300" x2="676" y2="300" stroke="#34d399" stroke-width="3" marker-end="url(#arrow)"/>
  <line x1="724" y1="300" x2="756" y2="300" stroke="#34d399" stroke-width="3" marker-end="url(#arrow)"/>
  <line x1="804" y1="300" x2="836" y2="300" stroke="#34d399" stroke-width="3" marker-end="url(#arrow)"/>
  <line x1="884" y1="300" x2="916" y2="300" stroke="#34d399" stroke-width="3" marker-end="url(#arrow)"/>
  <line x1="964" y1="300" x2="996" y2="300" stroke="#34d399" stroke-width="3" marker-end="url(#arrow)"/>
  <line x1="1044" y1="300" x2="1076" y2="300" stroke="#34d399" stroke-width="3" marker-end="url(#arrow)"/>
  <line x1="1110" y1="324" x2="954" y2="377" stroke="#34d399" stroke-width="3" marker-end="url(#arrow)"/>
  <line x1="964" y1="390" x2="996" y2="390" stroke="#34d399" stroke-width="3" marker-end="url(#arrow)"/>

  <text x="620" y="490" fill="#9ca3af" font-size="24" font-family="Inter,Arial,sans-serif">Each node.left = null, node.right = next inorder node</text>
  <text x="620" y="530" fill="#9ca3af" font-size="24" font-family="Inter,Arial,sans-serif">Author: Tom🦞</text>
</svg>
