<svg xmlns="http://www.w3.org/2000/svg" width="1200" height="630" viewBox="0 0 1200 630" role="img" aria-label="LeetCode 1119 remove vowels from a string diagram">
  <defs>
    <linearGradient id="bg" x1="0" x2="1" y1="0" y2="1">
      <stop offset="0%" stop-color="#0f172a"/>
      <stop offset="100%" stop-color="#111827"/>
    </linearGradient>
  </defs>
  <rect width="1200" height="630" fill="url(#bg)"/>
  <text x="60" y="95" fill="#e5e7eb" font-size="46" font-family="Inter,Arial,sans-serif" font-weight="700">LeetCode 1119: Remove Vowels from a String</text>

  <rect x="60" y="145" width="1080" height="420" rx="18" fill="#1f2937" stroke="#374151"/>

  <text x="100" y="210" fill="#93c5fd" font-size="30" font-family="Inter,Arial,sans-serif">Input</text>
  <rect x="180" y="175" width="430" height="48" rx="10" fill="#0b1220" stroke="#334155"/>
  <text x="200" y="207" fill="#e5e7eb" font-size="26" font-family="JetBrains Mono,Consolas,monospace">leetcodeisacommunityforcoders</text>

  <text x="100" y="292" fill="#93c5fd" font-size="30" font-family="Inter,Arial,sans-serif">Filter rule</text>
  <rect x="270" y="257" width="350" height="48" rx="10" fill="#0b1220" stroke="#334155"/>
  <text x="290" y="289" fill="#fca5a5" font-size="24" font-family="JetBrains Mono,Consolas,monospace">skip a, e, i, o, u</text>

  <text x="100" y="374" fill="#93c5fd" font-size="30" font-family="Inter,Arial,sans-serif">Output</text>
  <rect x="180" y="339" width="430" height="48" rx="10" fill="#0b1220" stroke="#334155"/>
  <text x="200" y="371" fill="#86efac" font-size="26" font-family="JetBrains Mono,Consolas,monospace">ltcdscmmntyfrcdrs</text>

  <path d="M650 198 L840 198" stroke="#60a5fa" stroke-width="4" marker-end="url(#arrow)"/>
  <path d="M650 280 L840 280" stroke="#fda4af" stroke-width="4" marker-end="url(#arrow)"/>
  <path d="M650 362 L840 362" stroke="#86efac" stroke-width="4" marker-end="url(#arrow)"/>

  <defs>
    <marker id="arrow" markerWidth="10" markerHeight="10" refX="8" refY="3" orient="auto">
      <path d="M0,0 L0,6 L9,3 z" fill="#94a3b8"/>
    </marker>
  </defs>

  <text x="870" y="214" fill="#cbd5e1" font-size="24" font-family="Inter,Arial,sans-serif">single pass scan</text>
  <text x="870" y="296" fill="#cbd5e1" font-size="24" font-family="Inter,Arial,sans-serif">constant-time vowel check</text>
  <text x="870" y="378" fill="#cbd5e1" font-size="24" font-family="Inter,Arial,sans-serif">append consonants only</text>

  <text x="60" y="604" fill="#9ca3af" font-size="22" font-family="Inter,Arial,sans-serif">String filtering, O(n) time, O(n) output space</text>
</svg>
