<svg xmlns="http://www.w3.org/2000/svg" width="1200" height="630" viewBox="0 0 1200 630" role="img" aria-label="LeetCode 2798 counting hours against target">
  <defs>
    <linearGradient id="bg" x1="0" x2="1" y1="0" y2="1">
      <stop offset="0%" stop-color="#0b1020"/>
      <stop offset="100%" stop-color="#111827"/>
    </linearGradient>
  </defs>
  <rect width="1200" height="630" fill="url(#bg)"/>

  <text x="60" y="90" fill="#f9fafb" font-size="42" font-family="Inter,Arial,sans-serif" font-weight="700">LeetCode 2798 · Number of Employees Who Met the Target</text>
  <text x="60" y="135" fill="#93c5fd" font-size="26" font-family="Inter,Arial,sans-serif">Single pass: count h &gt;= target</text>

  <rect x="70" y="180" width="1060" height="360" rx="20" fill="#1f2937" stroke="#374151"/>

  <line x1="120" y1="310" x2="1080" y2="310" stroke="#f59e0b" stroke-width="4" stroke-dasharray="10 10"/>
  <text x="960" y="295" fill="#fbbf24" font-size="22" font-family="Inter,Arial,sans-serif">target = 5</text>

  <rect x="150" y="360" width="90" height="140" fill="#60a5fa" rx="8"/>
  <rect x="280" y="330" width="90" height="170" fill="#60a5fa" rx="8"/>
  <rect x="410" y="240" width="90" height="260" fill="#34d399" rx="8"/>
  <rect x="540" y="280" width="90" height="220" fill="#34d399" rx="8"/>
  <rect x="670" y="390" width="90" height="110" fill="#60a5fa" rx="8"/>
  <rect x="800" y="220" width="90" height="280" fill="#34d399" rx="8"/>
  <rect x="930" y="260" width="90" height="240" fill="#34d399" rx="8"/>

  <text x="148" y="530" fill="#d1d5db" font-size="20" font-family="Inter,Arial,sans-serif">3</text>
  <text x="278" y="530" fill="#d1d5db" font-size="20" font-family="Inter,Arial,sans-serif">4</text>
  <text x="408" y="530" fill="#d1d5db" font-size="20" font-family="Inter,Arial,sans-serif">6</text>
  <text x="538" y="530" fill="#d1d5db" font-size="20" font-family="Inter,Arial,sans-serif">5</text>
  <text x="668" y="530" fill="#d1d5db" font-size="20" font-family="Inter,Arial,sans-serif">2</text>
  <text x="798" y="530" fill="#d1d5db" font-size="20" font-family="Inter,Arial,sans-serif">7</text>
  <text x="928" y="530" fill="#d1d5db" font-size="20" font-family="Inter,Arial,sans-serif">6</text>

  <text x="60" y="590" fill="#86efac" font-size="26" font-family="Inter,Arial,sans-serif">Eligible employees (green bars): 4</text>
  <text x="980" y="590" fill="#e5e7eb" font-size="24" font-family="Inter,Arial,sans-serif">Author: Tom🦞</text>
</svg>
