<svg xmlns="http://www.w3.org/2000/svg" width="1200" height="630" viewBox="0 0 1200 630" role="img" aria-label="LeetCode 938 pruning diagram">
  <defs>
    <linearGradient id="bg" x1="0" x2="1" y1="0" y2="1">
      <stop offset="0%" stop-color="#0b1020"/>
      <stop offset="100%" stop-color="#1f2937"/>
    </linearGradient>
  </defs>
  <rect width="1200" height="630" fill="url(#bg)"/>
  <text x="48" y="82" fill="#e5e7eb" font-size="42" font-family="Inter,Arial,sans-serif" font-weight="700">LeetCode 938 - Range Sum of BST</text>
  <text x="48" y="124" fill="#93c5fd" font-size="28" font-family="Inter,Arial,sans-serif">Prune left when node &lt; low, prune right when node &gt; high</text>
  <rect x="110" y="180" width="980" height="370" rx="18" fill="#111827" stroke="#374151"/>
  <circle cx="600" cy="250" r="30" fill="#2563eb"/><text x="590" y="258" fill="#fff" font-size="18">10</text>
  <circle cx="450" cy="340" r="30" fill="#059669"/><text x="440" y="348" fill="#fff" font-size="18">5</text>
  <circle cx="760" cy="340" r="30" fill="#059669"/><text x="750" y="348" fill="#fff" font-size="18">15</text>
  <circle cx="390" cy="430" r="30" fill="#ef4444"/><text x="382" y="438" fill="#fff" font-size="18">3</text>
  <circle cx="510" cy="430" r="30" fill="#22c55e"/><text x="502" y="438" fill="#fff" font-size="18">7</text>
  <circle cx="860" cy="430" r="30" fill="#ef4444"/><text x="850" y="438" fill="#fff" font-size="18">18</text>
  <line x1="600" y1="280" x2="450" y2="310" stroke="#94a3b8" stroke-width="3"/>
  <line x1="600" y1="280" x2="760" y2="310" stroke="#94a3b8" stroke-width="3"/>
  <line x1="450" y1="370" x2="390" y2="400" stroke="#94a3b8" stroke-width="3"/>
  <line x1="450" y1="370" x2="510" y2="400" stroke="#94a3b8" stroke-width="3"/>
  <line x1="760" y1="370" x2="860" y2="400" stroke="#94a3b8" stroke-width="3"/>
  <text x="70" y="592" fill="#cbd5e1" font-size="24" font-family="Inter,Arial,sans-serif">Range [7, 15], sum = 7 + 10 + 15 = 32</text>
</svg>
