<svg xmlns="http://www.w3.org/2000/svg" width="1200" height="630" viewBox="0 0 1200 630" role="img" aria-label="LeetCode 931 minimum falling path sum dynamic programming diagram">
  <rect width="1200" height="630" fill="#0f172a"/>
  <text x="60" y="80" fill="#e2e8f0" font-size="44" font-family="Arial, sans-serif" font-weight="700">LeetCode 931 · Minimum Falling Path Sum</text>
  <text x="60" y="120" fill="#93c5fd" font-size="28" font-family="Arial, sans-serif">Row DP transition: up-left / up / up-right</text>
  <g transform="translate(120,170)">
    <rect x="0" y="0" width="960" height="380" rx="16" fill="#111827" stroke="#334155"/>
    <g font-family="Arial, sans-serif" font-size="24" text-anchor="middle">
      <rect x="80" y="70" width="110" height="70" fill="#1e293b" stroke="#64748b"/><text x="135" y="113" fill="#e2e8f0">2</text>
      <rect x="260" y="70" width="110" height="70" fill="#1e293b" stroke="#64748b"/><text x="315" y="113" fill="#e2e8f0">1</text>
      <rect x="440" y="70" width="110" height="70" fill="#1e293b" stroke="#64748b"/><text x="495" y="113" fill="#e2e8f0">3</text>
      <rect x="620" y="70" width="110" height="70" fill="#1e293b" stroke="#64748b"/><text x="675" y="113" fill="#e2e8f0">4</text>

      <rect x="80" y="230" width="110" height="70" fill="#1f2937" stroke="#64748b"/><text x="135" y="273" fill="#e2e8f0">6</text>
      <rect x="260" y="230" width="110" height="70" fill="#14532d" stroke="#22c55e" stroke-width="2"/><text x="315" y="273" fill="#dcfce7">5</text>
      <rect x="440" y="230" width="110" height="70" fill="#1f2937" stroke="#64748b"/><text x="495" y="273" fill="#e2e8f0">7</text>
      <rect x="620" y="230" width="110" height="70" fill="#1f2937" stroke="#64748b"/><text x="675" y="273" fill="#e2e8f0">8</text>
    </g>
    <path d="M135 140 L315 230" stroke="#38bdf8" stroke-width="4" marker-end="url(#a)"/>
    <path d="M315 140 L315 230" stroke="#38bdf8" stroke-width="4" marker-end="url(#a)"/>
    <path d="M495 140 L315 230" stroke="#38bdf8" stroke-width="4" marker-end="url(#a)"/>
    <text x="770" y="270" fill="#f8fafc" font-size="28" font-family="Arial, sans-serif">dp[r][c] = val + min(↖ ↑ ↗)</text>
  </g>
  <defs><marker id="a" markerWidth="8" markerHeight="8" refX="5" refY="3" orient="auto"><path d="M0,0 L0,6 L6,3 z" fill="#38bdf8"/></marker></defs>
</svg>