<svg xmlns="http://www.w3.org/2000/svg" width="1200" height="630" viewBox="0 0 1200 630" role="img" aria-label="LeetCode 3169 interval merge timeline diagram">
  <defs>
    <linearGradient id="bg" x1="0" y1="0" x2="1" y2="1">
      <stop offset="0%" stop-color="#0f172a"/>
      <stop offset="100%" stop-color="#111827"/>
    </linearGradient>
  </defs>
  <rect width="1200" height="630" fill="url(#bg)"/>
  <text x="60" y="95" fill="#e5e7eb" font-size="42" font-family="Inter,Arial,sans-serif" font-weight="700">LeetCode 3169: Count Days Without Meetings</text>
  <text x="60" y="140" fill="#93c5fd" font-size="28" font-family="Inter,Arial,sans-serif">Sort intervals, merge overlaps, subtract covered days</text>

  <line x1="90" y1="250" x2="1110" y2="250" stroke="#9ca3af" stroke-width="4"/>
  <line x1="90" y1="390" x2="1110" y2="390" stroke="#9ca3af" stroke-width="4"/>

  <text x="90" y="220" fill="#e5e7eb" font-size="24" font-family="Inter,Arial,sans-serif">Original meetings</text>
  <rect x="170" y="228" width="220" height="44" rx="10" fill="#3b82f6" opacity="0.95"/>
  <rect x="330" y="228" width="190" height="44" rx="10" fill="#2563eb" opacity="0.95"/>
  <rect x="620" y="228" width="150" height="44" rx="10" fill="#60a5fa" opacity="0.95"/>
  <rect x="740" y="228" width="210" height="44" rx="10" fill="#1d4ed8" opacity="0.95"/>

  <text x="90" y="360" fill="#e5e7eb" font-size="24" font-family="Inter,Arial,sans-serif">Merged coverage + free gaps</text>
  <rect x="170" y="368" width="350" height="44" rx="10" fill="#22c55e" opacity="0.95"/>
  <rect x="620" y="368" width="330" height="44" rx="10" fill="#16a34a" opacity="0.95"/>
  <rect x="520" y="368" width="100" height="44" rx="10" fill="#f59e0b" opacity="0.95"/>
  <text x="533" y="396" fill="#111827" font-size="18" font-family="Inter,Arial,sans-serif" font-weight="700">free</text>

  <text x="90" y="500" fill="#86efac" font-size="30" font-family="Inter,Arial,sans-serif">covered = union length, answer = days - covered</text>
  <text x="90" y="548" fill="#cbd5e1" font-size="24" font-family="Inter,Arial,sans-serif">Author: Tom🦞</text>
</svg>
