<svg xmlns="http://www.w3.org/2000/svg" width="1200" height="630" viewBox="0 0 1200 630" role="img" aria-label="LeetCode 2614 prime in diagonal illustration">
  <defs>
    <linearGradient id="bg" x1="0" x2="1" y1="0" y2="1">
      <stop offset="0%" stop-color="#0f172a"/>
      <stop offset="100%" stop-color="#111827"/>
    </linearGradient>
  </defs>
  <rect width="1200" height="630" fill="url(#bg)"/>
  <text x="48" y="72" fill="#e5e7eb" font-size="40" font-family="Inter,Arial,sans-serif" font-weight="700">LeetCode 2614 · Prime In Diagonal</text>

  <rect x="60" y="120" width="420" height="420" rx="16" fill="#1f2937" stroke="#334155"/>
  <g font-family="Inter,Arial,sans-serif" font-size="28" text-anchor="middle" dominant-baseline="middle">
    <rect x="90" y="150" width="90" height="90" fill="#0b1220" stroke="#3b82f6"/><text x="135" y="195" fill="#93c5fd">1</text>
    <rect x="180" y="150" width="90" height="90" fill="#0b1220" stroke="#475569"/><text x="225" y="195" fill="#cbd5e1">2</text>
    <rect x="270" y="150" width="90" height="90" fill="#0b1220" stroke="#475569"/><text x="315" y="195" fill="#cbd5e1">3</text>
    <rect x="360" y="150" width="90" height="90" fill="#0b1220" stroke="#22c55e"/><text x="405" y="195" fill="#86efac">11</text>

    <rect x="90" y="240" width="90" height="90" fill="#0b1220" stroke="#475569"/><text x="135" y="285" fill="#cbd5e1">5</text>
    <rect x="180" y="240" width="90" height="90" fill="#0b1220" stroke="#22c55e"/><text x="225" y="285" fill="#86efac">17</text>
    <rect x="270" y="240" width="90" height="90" fill="#0b1220" stroke="#475569"/><text x="315" y="285" fill="#cbd5e1">4</text>
    <rect x="360" y="240" width="90" height="90" fill="#0b1220" stroke="#475569"/><text x="405" y="285" fill="#cbd5e1">6</text>

    <rect x="90" y="330" width="90" height="90" fill="#0b1220" stroke="#475569"/><text x="135" y="375" fill="#cbd5e1">8</text>
    <rect x="180" y="330" width="90" height="90" fill="#0b1220" stroke="#475569"/><text x="225" y="375" fill="#cbd5e1">9</text>
    <rect x="270" y="330" width="90" height="90" fill="#0b1220" stroke="#22c55e"/><text x="315" y="375" fill="#86efac">13</text>
    <rect x="360" y="330" width="90" height="90" fill="#0b1220" stroke="#475569"/><text x="405" y="375" fill="#cbd5e1">7</text>

    <rect x="90" y="420" width="90" height="90" fill="#0b1220" stroke="#22c55e"/><text x="135" y="465" fill="#86efac">19</text>
    <rect x="180" y="420" width="90" height="90" fill="#0b1220" stroke="#475569"/><text x="225" y="465" fill="#cbd5e1">10</text>
    <rect x="270" y="420" width="90" height="90" fill="#0b1220" stroke="#475569"/><text x="315" y="465" fill="#cbd5e1">12</text>
    <rect x="360" y="420" width="90" height="90" fill="#0b1220" stroke="#475569"/><text x="405" y="465" fill="#cbd5e1">14</text>
  </g>

  <line x1="95" y1="155" x2="445" y2="505" stroke="#60a5fa" stroke-width="6" stroke-linecap="round"/>
  <line x1="445" y1="155" x2="95" y2="505" stroke="#34d399" stroke-width="6" stroke-linecap="round"/>

  <text x="560" y="220" fill="#e5e7eb" font-size="34" font-family="Inter,Arial,sans-serif">Scan both diagonals</text>
  <text x="560" y="280" fill="#cbd5e1" font-size="30" font-family="Inter,Arial,sans-serif">Keep only prime numbers</text>
  <text x="560" y="340" fill="#cbd5e1" font-size="30" font-family="Inter,Arial,sans-serif">Take maximum prime</text>
  <text x="560" y="430" fill="#86efac" font-size="48" font-family="Inter,Arial,sans-serif" font-weight="700">Answer = 19</text>

  <text x="560" y="500" fill="#93c5fd" font-size="28" font-family="Inter,Arial,sans-serif">Main diagonal + anti-diagonal, O(n · sqrt(M))</text>
  <text x="560" y="548" fill="#fca5a5" font-size="24" font-family="Inter,Arial,sans-serif">Author: Tom🦞</text>
</svg>
