<svg xmlns="http://www.w3.org/2000/svg" width="1200" height="630" viewBox="0 0 1200 630" role="img" aria-label="LeetCode 1528 Shuffle String index mapping diagram">
  <defs>
    <linearGradient id="bg" x1="0" y1="0" x2="1" y2="1">
      <stop offset="0%" stop-color="#0b1020"/>
      <stop offset="100%" stop-color="#13213a"/>
    </linearGradient>
    <style>
      .title { font: 700 44px Inter, Arial, sans-serif; fill: #e5e7eb; }
      .subtitle { font: 500 24px Inter, Arial, sans-serif; fill: #93c5fd; }
      .txt { font: 600 24px Inter, Arial, sans-serif; fill: #e5e7eb; }
      .idx { font: 600 20px Inter, Arial, sans-serif; fill: #86efac; }
    </style>
  </defs>
  <rect width="1200" height="630" fill="url(#bg)"/>
  <text x="50" y="80" class="title">LeetCode 1528 · Shuffle String</text>
  <text x="50" y="120" class="subtitle">Index Mapping Reconstruction: ans[indices[i]] = s[i]</text>

  <rect x="50" y="180" width="1100" height="380" rx="18" fill="#0f172a" stroke="#334155"/>

  <text x="80" y="240" class="txt">s = "code"</text>
  <text x="80" y="290" class="txt">indices = [3, 1, 2, 0]</text>

  <rect x="420" y="215" width="70" height="70" rx="10" fill="#1e293b" stroke="#64748b"/>
  <rect x="500" y="215" width="70" height="70" rx="10" fill="#1e293b" stroke="#64748b"/>
  <rect x="580" y="215" width="70" height="70" rx="10" fill="#1e293b" stroke="#64748b"/>
  <rect x="660" y="215" width="70" height="70" rx="10" fill="#1e293b" stroke="#64748b"/>
  <text x="448" y="258" class="txt">c</text>
  <text x="528" y="258" class="txt">o</text>
  <text x="608" y="258" class="txt">d</text>
  <text x="688" y="258" class="txt">e</text>
  <text x="446" y="305" class="idx">i=0</text>
  <text x="526" y="305" class="idx">i=1</text>
  <text x="606" y="305" class="idx">i=2</text>
  <text x="686" y="305" class="idx">i=3</text>

  <line x1="455" y1="320" x2="915" y2="380" stroke="#38bdf8" stroke-width="3"/>
  <line x1="535" y1="320" x2="835" y2="380" stroke="#38bdf8" stroke-width="3"/>
  <line x1="615" y1="320" x2="755" y2="380" stroke="#38bdf8" stroke-width="3"/>
  <line x1="695" y1="320" x2="675" y2="380" stroke="#38bdf8" stroke-width="3"/>

  <text x="80" y="430" class="txt">ans = "eodc"</text>
  <rect x="660" y="385" width="70" height="70" rx="10" fill="#14532d" stroke="#4ade80"/>
  <rect x="740" y="385" width="70" height="70" rx="10" fill="#14532d" stroke="#4ade80"/>
  <rect x="820" y="385" width="70" height="70" rx="10" fill="#14532d" stroke="#4ade80"/>
  <rect x="900" y="385" width="70" height="70" rx="10" fill="#14532d" stroke="#4ade80"/>
  <text x="688" y="428" class="txt">e</text>
  <text x="768" y="428" class="txt">o</text>
  <text x="848" y="428" class="txt">d</text>
  <text x="928" y="428" class="txt">c</text>
  <text x="686" y="475" class="idx">0</text>
  <text x="766" y="475" class="idx">1</text>
  <text x="846" y="475" class="idx">2</text>
  <text x="926" y="475" class="idx">3</text>

  <text x="50" y="600" class="subtitle">Author: Tom🦞 · EN first / 中文 second · Java default tabs</text>
</svg>
