<svg xmlns="http://www.w3.org/2000/svg" width="1200" height="630" viewBox="0 0 1200 630" role="img" aria-label="LeetCode 1408 string matching diagram">
  <defs>
    <linearGradient id="bg" x1="0" y1="0" x2="1" y2="1">
      <stop offset="0%" stop-color="#0b1220"/>
      <stop offset="100%" stop-color="#111827"/>
    </linearGradient>
  </defs>
  <rect width="1200" height="630" fill="url(#bg)"/>
  <text x="56" y="96" fill="#e5e7eb" font-size="46" font-family="Inter,Arial,sans-serif" font-weight="700">LeetCode 1408 · String Matching in an Array</text>
  <text x="56" y="138" fill="#93c5fd" font-size="26" font-family="Inter,Arial,sans-serif">Sort by length, then match short words inside longer words</text>

  <rect x="56" y="185" width="1088" height="380" rx="16" fill="#1f2937" stroke="#374151"/>

  <rect x="96" y="230" width="220" height="52" rx="10" fill="#0f172a" stroke="#475569"/>
  <text x="122" y="263" fill="#fde68a" font-size="28" font-family="JetBrains Mono,Consolas,monospace">"as"</text>

  <rect x="400" y="215" width="360" height="84" rx="12" fill="#111827" stroke="#4b5563"/>
  <text x="432" y="266" fill="#86efac" font-size="34" font-family="JetBrains Mono,Consolas,monospace">"mass"</text>

  <path d="M 320 255 C 355 255, 360 255, 392 255" stroke="#60a5fa" stroke-width="4" fill="none" marker-end="url(#arrow)"/>

  <rect x="96" y="350" width="220" height="52" rx="10" fill="#0f172a" stroke="#475569"/>
  <text x="122" y="383" fill="#fde68a" font-size="28" font-family="JetBrains Mono,Consolas,monospace">"hero"</text>

  <rect x="400" y="335" width="360" height="84" rx="12" fill="#111827" stroke="#4b5563"/>
  <text x="432" y="386" fill="#86efac" font-size="34" font-family="JetBrains Mono,Consolas,monospace">"superhero"</text>

  <path d="M 320 375 C 355 375, 360 375, 392 375" stroke="#60a5fa" stroke-width="4" fill="none" marker-end="url(#arrow)"/>

  <text x="96" y="505" fill="#cbd5e1" font-size="24" font-family="Inter,Arial,sans-serif">Output: ["as", "hero"]</text>
  <text x="96" y="538" fill="#9ca3af" font-size="20" font-family="Inter,Arial,sans-serif">Author: Tom🦞</text>

  <defs>
    <marker id="arrow" markerWidth="10" markerHeight="10" refX="7" refY="3" orient="auto">
      <path d="M0,0 L0,6 L8,3 z" fill="#60a5fa"/>
    </marker>
  </defs>
</svg>
