<svg xmlns="http://www.w3.org/2000/svg" width="1200" height="630" viewBox="0 0 1200 630">
  <defs>
    <linearGradient id="bg" x1="0" y1="0" x2="1" y2="1">
      <stop offset="0%" stop-color="#0f172a"/>
      <stop offset="100%" stop-color="#1e293b"/>
    </linearGradient>
  </defs>
  <rect width="1200" height="630" fill="url(#bg)"/>
  <text x="60" y="90" fill="#e2e8f0" font-size="44" font-family="Arial">LeetCode 2149 · Rearrange Array Elements by Sign</text>
  <text x="60" y="130" fill="#93c5fd" font-size="28" font-family="Arial">Two pointers fill even/odd indices while preserving relative order</text>
  <g transform="translate(70,220)">
    <text x="0" y="-20" fill="#cbd5e1" font-size="26" font-family="Arial">Input order:</text>
    <rect x="0" y="10" width="130" height="70" rx="10" fill="#16a34a"/><text x="45" y="55" fill="white" font-size="34" font-family="Arial">3</text>
    <rect x="150" y="10" width="130" height="70" rx="10" fill="#dc2626"/><text x="190" y="55" fill="white" font-size="34" font-family="Arial">-2</text>
    <rect x="300" y="10" width="130" height="70" rx="10" fill="#16a34a"/><text x="345" y="55" fill="white" font-size="34" font-family="Arial">1</text>
    <rect x="450" y="10" width="130" height="70" rx="10" fill="#dc2626"/><text x="490" y="55" fill="white" font-size="34" font-family="Arial">-5</text>
    <rect x="600" y="10" width="130" height="70" rx="10" fill="#16a34a"/><text x="645" y="55" fill="white" font-size="34" font-family="Arial">2</text>
    <rect x="750" y="10" width="130" height="70" rx="10" fill="#dc2626"/><text x="790" y="55" fill="white" font-size="34" font-family="Arial">-4</text>
  </g>
  <g transform="translate(70,390)">
    <text x="0" y="-20" fill="#cbd5e1" font-size="26" font-family="Arial">Output pattern (even:+, odd:-):</text>
    <rect x="0" y="10" width="130" height="70" rx="10" fill="#16a34a"/><text x="45" y="55" fill="white" font-size="34" font-family="Arial">3</text>
    <rect x="150" y="10" width="130" height="70" rx="10" fill="#dc2626"/><text x="190" y="55" fill="white" font-size="34" font-family="Arial">-2</text>
    <rect x="300" y="10" width="130" height="70" rx="10" fill="#16a34a"/><text x="345" y="55" fill="white" font-size="34" font-family="Arial">1</text>
    <rect x="450" y="10" width="130" height="70" rx="10" fill="#dc2626"/><text x="490" y="55" fill="white" font-size="34" font-family="Arial">-5</text>
    <rect x="600" y="10" width="130" height="70" rx="10" fill="#16a34a"/><text x="645" y="55" fill="white" font-size="34" font-family="Arial">2</text>
    <rect x="750" y="10" width="130" height="70" rx="10" fill="#dc2626"/><text x="790" y="55" fill="white" font-size="34" font-family="Arial">-4</text>
  </g>
</svg>