<svg xmlns="http://www.w3.org/2000/svg" width="1200" height="630" viewBox="0 0 1200 630" role="img" aria-label="LeetCode 1838 diagram">
  <defs>
    <linearGradient id="bg" x1="0" x2="1" y1="0" y2="1">
      <stop offset="0%" stop-color="#0f172a"/>
      <stop offset="100%" stop-color="#1e293b"/>
    </linearGradient>
  </defs>
  <rect width="1200" height="630" fill="url(#bg)"/>
  <text x="60" y="90" fill="#e2e8f0" font-size="44" font-family="Arial, Helvetica, sans-serif" font-weight="700">LeetCode 1838 · Sliding Window</text>
  <text x="60" y="132" fill="#93c5fd" font-size="28" font-family="Arial, Helvetica, sans-serif">Frequency of the Most Frequent Element</text>

  <g transform="translate(70,210)">
    <rect x="0" y="0" width="130" height="260" rx="10" fill="#334155"/>
    <rect x="150" y="0" width="130" height="260" rx="10" fill="#334155"/>
    <rect x="300" y="0" width="130" height="260" rx="10" fill="#334155"/>
    <rect x="450" y="0" width="130" height="260" rx="10" fill="#334155"/>
    <rect x="600" y="0" width="130" height="260" rx="10" fill="#1d4ed8"/>

    <rect x="20" y="140" width="90" height="100" fill="#64748b"/>
    <rect x="170" y="120" width="90" height="120" fill="#64748b"/>
    <rect x="320" y="100" width="90" height="140" fill="#64748b"/>
    <rect x="470" y="80" width="90" height="160" fill="#64748b"/>
    <rect x="620" y="40" width="90" height="200" fill="#60a5fa"/>

    <text x="25" y="285" fill="#e2e8f0" font-size="24" font-family="Arial">l</text>
    <text x="685" y="285" fill="#e2e8f0" font-size="24" font-family="Arial">r</text>
  </g>

  <text x="60" y="560" fill="#cbd5e1" font-size="30" font-family="Courier New, monospace">need = nums[r] * windowLen - windowSum  ≤  k</text>
</svg>
