<svg xmlns="http://www.w3.org/2000/svg" width="1200" height="630" viewBox="0 0 1200 630" role="img" aria-label="LeetCode 1876 sliding window distinct characters diagram">
  <defs>
    <linearGradient id="bg" x1="0" y1="0" x2="1" y2="1">
      <stop offset="0%" stop-color="#0b1220"/>
      <stop offset="100%" stop-color="#111827"/>
    </linearGradient>
  </defs>
  <rect width="1200" height="630" fill="url(#bg)"/>
  <text x="56" y="92" fill="#e5e7eb" font-size="42" font-family="Inter,Arial,sans-serif" font-weight="700">LeetCode 1876</text>
  <text x="56" y="140" fill="#93c5fd" font-size="32" font-family="Inter,Arial,sans-serif">Substrings of Size Three with Distinct Characters</text>

  <rect x="56" y="190" width="1088" height="360" rx="18" fill="#1f2937" stroke="#374151"/>
  <text x="86" y="245" fill="#cbd5e1" font-size="28" font-family="JetBrains Mono,Consolas,monospace">s = "xyzzaz"</text>

  <g font-family="JetBrains Mono,Consolas,monospace" font-size="30" font-weight="700">
    <rect x="92" y="290" width="84" height="84" rx="10" fill="#0ea5e9"/>
    <rect x="184" y="290" width="84" height="84" rx="10" fill="#22c55e"/>
    <rect x="276" y="290" width="84" height="84" rx="10" fill="#a855f7"/>
    <text x="122" y="345" fill="#ffffff">x</text>
    <text x="214" y="345" fill="#ffffff">y</text>
    <text x="306" y="345" fill="#ffffff">z</text>
    <text x="92" y="402" fill="#86efac" font-size="22">good ✓</text>

    <rect x="422" y="290" width="84" height="84" rx="10" fill="#0ea5e9"/>
    <rect x="514" y="290" width="84" height="84" rx="10" fill="#22c55e"/>
    <rect x="606" y="290" width="84" height="84" rx="10" fill="#ef4444"/>
    <text x="452" y="345" fill="#ffffff">y</text>
    <text x="544" y="345" fill="#ffffff">z</text>
    <text x="636" y="345" fill="#ffffff">z</text>
    <text x="422" y="402" fill="#fca5a5" font-size="22">not good ✗</text>

    <rect x="752" y="290" width="84" height="84" rx="10" fill="#0ea5e9"/>
    <rect x="844" y="290" width="84" height="84" rx="10" fill="#ef4444"/>
    <rect x="936" y="290" width="84" height="84" rx="10" fill="#f59e0b"/>
    <text x="782" y="345" fill="#ffffff">z</text>
    <text x="874" y="345" fill="#ffffff">z</text>
    <text x="966" y="345" fill="#ffffff">a</text>
    <text x="752" y="402" fill="#fca5a5" font-size="22">not good ✗</text>
  </g>

  <text x="86" y="490" fill="#e5e7eb" font-size="24" font-family="Inter,Arial,sans-serif">Check every fixed window of length 3, count when all three chars are pairwise distinct.</text>
  <text x="86" y="530" fill="#86efac" font-size="24" font-family="Inter,Arial,sans-serif">Author: Tom🦞</text>
</svg>
