<svg xmlns="http://www.w3.org/2000/svg" width="1200" height="630" viewBox="0 0 1200 630" role="img" aria-label="LeetCode 506 Relative Ranks sort and medal assignment diagram">
  <defs>
    <linearGradient id="bg" x1="0" x2="1" y1="0" y2="1">
      <stop offset="0%" stop-color="#0b1220"/>
      <stop offset="100%" stop-color="#1f2937"/>
    </linearGradient>
  </defs>
  <rect width="1200" height="630" fill="url(#bg)"/>
  <text x="56" y="92" fill="#e5e7eb" font-size="46" font-family="Inter,Arial,sans-serif" font-weight="700">LeetCode 506 · Relative Ranks</text>
  <text x="56" y="136" fill="#93c5fd" font-size="28" font-family="Inter,Arial,sans-serif">Sort (score,index) descending → write medals/ranks back by original index</text>

  <rect x="56" y="186" width="1088" height="376" rx="18" fill="#111827" stroke="#374151"/>

  <text x="86" y="242" fill="#9ca3af" font-size="24" font-family="Inter,Arial,sans-serif">Original score array</text>
  <g font-family="Inter,Arial,sans-serif" font-size="24" text-anchor="middle">
    <rect x="86" y="262" width="120" height="58" rx="10" fill="#1f2937" stroke="#4b5563"/><text x="146" y="300" fill="#e5e7eb">10(i0)</text>
    <rect x="226" y="262" width="120" height="58" rx="10" fill="#1f2937" stroke="#4b5563"/><text x="286" y="300" fill="#e5e7eb">3(i1)</text>
    <rect x="366" y="262" width="120" height="58" rx="10" fill="#1f2937" stroke="#4b5563"/><text x="426" y="300" fill="#e5e7eb">8(i2)</text>
    <rect x="506" y="262" width="120" height="58" rx="10" fill="#1f2937" stroke="#4b5563"/><text x="566" y="300" fill="#e5e7eb">9(i3)</text>
    <rect x="646" y="262" width="120" height="58" rx="10" fill="#1f2937" stroke="#4b5563"/><text x="706" y="300" fill="#e5e7eb">4(i4)</text>
  </g>

  <path d="M88 346 H1110" stroke="#374151" stroke-width="2" stroke-dasharray="8 8"/>
  <text x="86" y="388" fill="#9ca3af" font-size="24" font-family="Inter,Arial,sans-serif">After sorting by score descending</text>

  <g font-family="Inter,Arial,sans-serif" font-size="23" text-anchor="middle">
    <rect x="86" y="406" width="180" height="66" rx="12" fill="#14532d" stroke="#22c55e"/><text x="176" y="447" fill="#dcfce7">10(i0) Gold</text>
    <rect x="284" y="406" width="180" height="66" rx="12" fill="#1e3a8a" stroke="#60a5fa"/><text x="374" y="447" fill="#dbeafe">9(i3) Silver</text>
    <rect x="482" y="406" width="180" height="66" rx="12" fill="#78350f" stroke="#f59e0b"/><text x="572" y="447" fill="#fef3c7">8(i2) Bronze</text>
    <rect x="680" y="406" width="180" height="66" rx="12" fill="#1f2937" stroke="#6b7280"/><text x="770" y="447" fill="#e5e7eb">4(i4) "4"</text>
    <rect x="878" y="406" width="180" height="66" rx="12" fill="#1f2937" stroke="#6b7280"/><text x="968" y="447" fill="#e5e7eb">3(i1) "5"</text>
  </g>

  <text x="56" y="602" fill="#86efac" font-size="22" font-family="Inter,Arial,sans-serif">Author: Tom🦞</text>
</svg>
