<svg xmlns="http://www.w3.org/2000/svg" width="1200" height="630" viewBox="0 0 1200 630" role="img" aria-label="LeetCode 2582 pass-the-pillow cycle diagram">
  <rect width="1200" height="630" fill="#0f172a"/>
  <text x="60" y="90" fill="#e2e8f0" font-size="44" font-family="Inter,Arial,sans-serif" font-weight="700">LeetCode 2582: Pass the Pillow</text>
  <text x="60" y="140" fill="#93c5fd" font-size="28" font-family="Inter,Arial,sans-serif">Cycle = 2 × (n - 1), use time mod cycle</text>
  <line x1="140" y1="330" x2="1060" y2="330" stroke="#475569" stroke-width="6"/>
  <circle cx="180" cy="330" r="26" fill="#22c55e"/><circle cx="410" cy="330" r="26" fill="#334155"/><circle cx="640" cy="330" r="26" fill="#334155"/><circle cx="870" cy="330" r="26" fill="#f59e0b"/><circle cx="1040" cy="330" r="26" fill="#ef4444"/>
  <text x="170" y="380" fill="#cbd5e1" font-size="24" font-family="Inter,Arial,sans-serif">1</text><text x="401" y="380" fill="#cbd5e1" font-size="24" font-family="Inter,Arial,sans-serif">2</text><text x="632" y="380" fill="#cbd5e1" font-size="24" font-family="Inter,Arial,sans-serif">...</text><text x="862" y="380" fill="#cbd5e1" font-size="24" font-family="Inter,Arial,sans-serif">n-1</text><text x="1032" y="380" fill="#cbd5e1" font-size="24" font-family="Inter,Arial,sans-serif">n</text>
  <path d="M220 270 C430 210, 780 210, 980 270" fill="none" stroke="#22d3ee" stroke-width="5" marker-end="url(#a)"/>
  <path d="M980 410 C780 470, 430 470, 220 410" fill="none" stroke="#f97316" stroke-width="5" marker-end="url(#a)"/>
  <defs><marker id="a" markerWidth="10" markerHeight="10" refX="8" refY="3" orient="auto"><path d="M0,0 L0,6 L9,3 z" fill="#e2e8f0"/></marker></defs>
  <text x="60" y="560" fill="#86efac" font-size="26" font-family="Inter,Arial,sans-serif">Author: Tom🦞</text>
</svg>