<svg xmlns="http://www.w3.org/2000/svg" width="1200" height="520" viewBox="0 0 1200 520" role="img" aria-label="LeetCode 1031 two non-overlapping windows diagram">
  <defs>
    <style>
      .bg { fill:#0b1020; }
      .card { fill:#121a33; stroke:#2a3a70; stroke-width:2; rx:14; }
      .txt { fill:#e8ecff; font-family:Arial, sans-serif; }
      .muted { fill:#9fb0e8; font-family:Arial, sans-serif; }
      .a { fill:#2dd4bf; opacity:.30; }
      .b { fill:#f59e0b; opacity:.30; }
      .line { stroke:#4b5d99; stroke-width:2; }
    </style>
  </defs>
  <rect class="bg" x="0" y="0" width="1200" height="520"/>
  <text class="txt" x="50" y="70" font-size="36" font-weight="700">LeetCode 1031 - Two Non-Overlapping Subarrays</text>
  <text class="muted" x="50" y="108" font-size="22">Try both orders: L before M, and M before L. Keep best prefix window.</text>
  <rect class="card" x="50" y="150" width="1100" height="290"/>
  <line class="line" x1="90" y1="330" x2="1110" y2="330"/>
  <g>
    <rect x="100" y="250" width="70" height="80" fill="#334155"/>
    <rect x="180" y="220" width="70" height="110" fill="#475569"/>
    <rect x="260" y="170" width="70" height="160" fill="#64748b"/>
    <rect x="340" y="240" width="70" height="90" fill="#475569"/>
    <rect x="420" y="190" width="70" height="140" fill="#64748b"/>
    <rect x="500" y="150" width="70" height="180" fill="#94a3b8"/>
    <rect x="580" y="230" width="70" height="100" fill="#475569"/>
    <rect x="660" y="260" width="70" height="70" fill="#334155"/>
    <rect x="740" y="210" width="70" height="120" fill="#64748b"/>
    <rect x="820" y="180" width="70" height="150" fill="#94a3b8"/>
    <rect x="900" y="240" width="70" height="90" fill="#475569"/>
    <rect x="980" y="200" width="70" height="130" fill="#64748b"/>
  </g>
  <rect class="a" x="250" y="145" width="250" height="195"/>
  <rect class="b" x="740" y="175" width="250" height="165"/>
  <text class="txt" x="280" y="385" font-size="24" font-weight="700">Best L window on left prefix</text>
  <text class="txt" x="760" y="420" font-size="24" font-weight="700">Current M window on right</text>
</svg>
