<svg xmlns="http://www.w3.org/2000/svg" width="1200" height="630" viewBox="0 0 1200 630" role="img" aria-label="LeetCode 2960 count tested devices after test operations diagram">
  <defs>
    <linearGradient id="bg" x1="0" y1="0" x2="1" y2="1">
      <stop offset="0%" stop-color="#0b1020"/>
      <stop offset="100%" stop-color="#111827"/>
    </linearGradient>
  </defs>
  <rect width="1200" height="630" fill="url(#bg)"/>
  <text x="56" y="90" fill="#e5e7eb" font-size="42" font-family="Inter,Arial,sans-serif" font-weight="700">LeetCode 2960 · Count Tested Devices</text>
  <text x="56" y="132" fill="#9ca3af" font-size="26" font-family="Inter,Arial,sans-serif">Greedy idea: effective battery = b - testedCount</text>

  <rect x="56" y="180" width="1088" height="360" rx="16" fill="#1f2937" stroke="#334155"/>

  <line x1="110" y1="500" x2="1070" y2="500" stroke="#64748b" stroke-width="2"/>

  <rect x="150" y="380" width="90" height="120" fill="#60a5fa"/>
  <rect x="290" y="330" width="90" height="170" fill="#60a5fa"/>
  <rect x="430" y="430" width="90" height="70" fill="#f59e0b"/>
  <rect x="570" y="290" width="90" height="210" fill="#60a5fa"/>
  <rect x="710" y="460" width="90" height="40" fill="#f59e0b"/>
  <rect x="850" y="350" width="90" height="150" fill="#60a5fa"/>

  <text x="145" y="530" fill="#cbd5e1" font-size="20" font-family="Inter,Arial,sans-serif">d0</text>
  <text x="285" y="530" fill="#cbd5e1" font-size="20" font-family="Inter,Arial,sans-serif">d1</text>
  <text x="425" y="530" fill="#cbd5e1" font-size="20" font-family="Inter,Arial,sans-serif">d2</text>
  <text x="565" y="530" fill="#cbd5e1" font-size="20" font-family="Inter,Arial,sans-serif">d3</text>
  <text x="705" y="530" fill="#cbd5e1" font-size="20" font-family="Inter,Arial,sans-serif">d4</text>
  <text x="845" y="530" fill="#cbd5e1" font-size="20" font-family="Inter,Arial,sans-serif">d5</text>

  <text x="760" y="230" fill="#86efac" font-size="24" font-family="Inter,Arial,sans-serif">blue: tested</text>
  <text x="760" y="262" fill="#fcd34d" font-size="24" font-family="Inter,Arial,sans-serif">orange: skipped after decrements</text>

  <text x="66" y="590" fill="#93c5fd" font-size="24" font-family="Inter,Arial,sans-serif">Author: Tom🦞</text>
</svg>
