<svg xmlns="http://www.w3.org/2000/svg" width="1200" height="630" viewBox="0 0 1200 630" role="img" aria-label="LeetCode 1462 transitive closure diagram">
  <defs>
    <linearGradient id="bg" x1="0" y1="0" x2="1" y2="1">
      <stop offset="0%" stop-color="#0f172a"/>
      <stop offset="100%" stop-color="#1e293b"/>
    </linearGradient>
    <marker id="arrow" markerWidth="10" markerHeight="10" refX="8" refY="5" orient="auto-start-reverse">
      <path d="M0,0 L10,5 L0,10 z" fill="#38bdf8"/>
    </marker>
  </defs>
  <rect width="1200" height="630" fill="url(#bg)"/>
  <text x="70" y="90" fill="#e2e8f0" font-family="Arial, sans-serif" font-size="42" font-weight="700">LeetCode 1462 · Course Schedule IV</text>
  <text x="70" y="132" fill="#94a3b8" font-family="Arial, sans-serif" font-size="28">Transitive Closure (Floyd-Warshall)</text>

  <circle cx="220" cy="300" r="46" fill="#1d4ed8"/><text x="220" y="308" text-anchor="middle" fill="#fff" font-size="28" font-family="Arial">0</text>
  <circle cx="430" cy="220" r="46" fill="#2563eb"/><text x="430" y="228" text-anchor="middle" fill="#fff" font-size="28" font-family="Arial">1</text>
  <circle cx="640" cy="300" r="46" fill="#2563eb"/><text x="640" y="308" text-anchor="middle" fill="#fff" font-size="28" font-family="Arial">2</text>
  <circle cx="850" cy="220" r="46" fill="#0284c7"/><text x="850" y="228" text-anchor="middle" fill="#fff" font-size="28" font-family="Arial">3</text>

  <line x1="264" y1="286" x2="385" y2="236" stroke="#38bdf8" stroke-width="5" marker-end="url(#arrow)"/>
  <line x1="476" y1="236" x2="594" y2="286" stroke="#38bdf8" stroke-width="5" marker-end="url(#arrow)"/>
  <line x1="686" y1="286" x2="804" y2="236" stroke="#38bdf8" stroke-width="5" marker-end="url(#arrow)"/>

  <path d="M220 356 C 410 500, 660 500, 850 266" fill="none" stroke="#f59e0b" stroke-width="5" stroke-dasharray="10 8" marker-end="url(#arrow)"/>
  <text x="515" y="500" fill="#fbbf24" font-family="Arial, sans-serif" font-size="28">Indirect prerequisite: 0 → 3</text>

  <rect x="70" y="540" width="1060" height="58" rx="12" fill="#0b1220" stroke="#334155"/>
  <text x="90" y="578" fill="#cbd5e1" font-family="Arial, sans-serif" font-size="26">Precompute reach[i][j], then answer each query in O(1).</text>
</svg>
