<svg xmlns="http://www.w3.org/2000/svg" width="1200" height="630" viewBox="0 0 1200 630">
  <defs>
    <linearGradient id="bg" x1="0" y1="0" x2="1" y2="1">
      <stop offset="0%" stop-color="#0f172a"/>
      <stop offset="100%" stop-color="#1e293b"/>
    </linearGradient>
    <style>
      .t{font-family:Inter,Segoe UI,Arial,sans-serif;fill:#e2e8f0}
      .m{font-family:JetBrains Mono,Consolas,monospace;fill:#93c5fd}
      .n{font-family:JetBrains Mono,Consolas,monospace;fill:#fde68a}
      .a{stroke:#38bdf8;stroke-width:3;fill:none;marker-end:url(#arr)}
      .box{fill:#111827;stroke:#334155;stroke-width:2;rx:12}
    </style>
    <marker id="arr" markerWidth="8" markerHeight="8" refX="7" refY="4" orient="auto">
      <polygon points="0,0 8,4 0,8" fill="#38bdf8"/>
    </marker>
  </defs>
  <rect width="1200" height="630" fill="url(#bg)"/>
  <text x="60" y="80" class="t" font-size="40" font-weight="700">LeetCode 437 · Path Sum III</text>
  <text x="60" y="120" class="m" font-size="26">Prefix Sum + DFS Backtracking</text>

  <rect x="120" y="190" width="110" height="56" class="box"/><text x="165" y="226" class="n" font-size="28">10</text>
  <rect x="360" y="270" width="110" height="56" class="box"/><text x="406" y="306" class="n" font-size="28">5</text>
  <rect x="360" y="120" width="110" height="56" class="box"/><text x="404" y="156" class="n" font-size="28">-3</text>
  <rect x="600" y="340" width="110" height="56" class="box"/><text x="642" y="376" class="n" font-size="28">3</text>
  <rect x="600" y="420" width="110" height="56" class="box"/><text x="645" y="456" class="n" font-size="28">2</text>
  <rect x="600" y="80" width="110" height="56" class="box"/><text x="645" y="116" class="n" font-size="28">11</text>
  <rect x="840" y="420" width="110" height="56" class="box"/><text x="885" y="456" class="n" font-size="28">1</text>

  <path d="M230 218 L360 148" class="a"/>
  <path d="M230 218 L360 298" class="a"/>
  <path d="M470 298 L600 368" class="a"/>
  <path d="M470 298 L600 448" class="a"/>
  <path d="M470 148 L600 108" class="a"/>
  <path d="M710 448 L840 448" class="a"/>

  <text x="760" y="215" class="m" font-size="28">target = 8</text>
  <text x="760" y="260" class="m" font-size="24">curr = 18 at node(3)</text>
  <text x="760" y="295" class="m" font-size="24">need curr-target = 10</text>
  <text x="760" y="330" class="m" font-size="24">prefixCount[10] = 1 ✅</text>
  <text x="760" y="380" class="t" font-size="22">Valid path: 5 → 3</text>
  <text x="760" y="415" class="t" font-size="22">Also: 5 → 2 → 1, -3 → 11</text>
</svg>
