<svg xmlns="http://www.w3.org/2000/svg" width="1200" height="630" viewBox="0 0 1200 630" role="img" aria-label="LeetCode 1466 traversal diagram">
  <defs>
    <linearGradient id="bg" x1="0" x2="1" y1="0" y2="1">
      <stop offset="0%" stop-color="#0f172a"/>
      <stop offset="100%" stop-color="#111827"/>
    </linearGradient>
    <marker id="arrowGreen" markerWidth="10" markerHeight="10" refX="7" refY="3" orient="auto" markerUnits="strokeWidth">
      <path d="M0,0 L0,6 L8,3 z" fill="#34d399"/>
    </marker>
    <marker id="arrowRed" markerWidth="10" markerHeight="10" refX="7" refY="3" orient="auto" markerUnits="strokeWidth">
      <path d="M0,0 L0,6 L8,3 z" fill="#f87171"/>
    </marker>
  </defs>
  <rect width="1200" height="630" fill="url(#bg)"/>
  <text x="60" y="88" fill="#e5e7eb" font-size="44" font-family="Inter,Arial,sans-serif" font-weight="700">LeetCode 1466: Reorder Routes to City 0</text>
  <text x="60" y="132" fill="#9ca3af" font-size="26" font-family="Inter,Arial,sans-serif">Traverse from 0, count only edges pointing away from 0-path</text>

  <circle cx="200" cy="320" r="34" fill="#1f2937" stroke="#93c5fd" stroke-width="3"/>
  <text x="193" y="328" fill="#e5e7eb" font-size="24" font-family="Inter,Arial,sans-serif">0</text>

  <circle cx="400" cy="230" r="30" fill="#1f2937" stroke="#93c5fd" stroke-width="2"/>
  <text x="393" y="238" fill="#e5e7eb" font-size="22">1</text>

  <circle cx="420" cy="410" r="30" fill="#1f2937" stroke="#93c5fd" stroke-width="2"/>
  <text x="413" y="418" fill="#e5e7eb" font-size="22">2</text>

  <circle cx="640" cy="180" r="30" fill="#1f2937" stroke="#93c5fd" stroke-width="2"/>
  <text x="633" y="188" fill="#e5e7eb" font-size="22">3</text>

  <circle cx="660" cy="320" r="30" fill="#1f2937" stroke="#93c5fd" stroke-width="2"/>
  <text x="653" y="328" fill="#e5e7eb" font-size="22">4</text>

  <circle cx="650" cy="460" r="30" fill="#1f2937" stroke="#93c5fd" stroke-width="2"/>
  <text x="643" y="468" fill="#e5e7eb" font-size="22">5</text>

  <line x1="233" y1="305" x2="371" y2="244" stroke="#f87171" stroke-width="5" marker-end="url(#arrowRed)"/>
  <text x="286" y="258" fill="#fca5a5" font-size="20">cost 1</text>

  <line x1="236" y1="334" x2="389" y2="396" stroke="#34d399" stroke-width="5" marker-end="url(#arrowGreen)"/>
  <text x="290" y="392" fill="#86efac" font-size="20">cost 0</text>

  <line x1="428" y1="219" x2="610" y2="191" stroke="#f87171" stroke-width="5" marker-end="url(#arrowRed)"/>
  <text x="500" y="186" fill="#fca5a5" font-size="20">cost 1</text>

  <line x1="449" y1="238" x2="631" y2="304" stroke="#34d399" stroke-width="5" marker-end="url(#arrowGreen)"/>
  <text x="528" y="286" fill="#86efac" font-size="20">cost 0</text>

  <line x1="447" y1="411" x2="620" y2="452" stroke="#f87171" stroke-width="5" marker-end="url(#arrowRed)"/>
  <text x="520" y="446" fill="#fca5a5" font-size="20">cost 1</text>

  <rect x="60" y="535" width="1080" height="62" rx="12" fill="#111827" stroke="#374151"/>
  <text x="86" y="575" fill="#e5e7eb" font-size="24" font-family="Inter,Arial,sans-serif">Answer = sum(cost) during BFS/DFS from node 0 on first visit of each node.</text>
</svg>
