<svg xmlns="http://www.w3.org/2000/svg" width="1200" height="630" viewBox="0 0 1200 630" role="img" aria-label="LeetCode 1042 graph coloring diagram">
  <defs>
    <linearGradient id="bg" x1="0" y1="0" x2="1" y2="1">
      <stop offset="0%" stop-color="#0f172a"/>
      <stop offset="100%" stop-color="#1e293b"/>
    </linearGradient>
  </defs>
  <rect width="1200" height="630" fill="url(#bg)"/>
  <text x="60" y="90" fill="#e2e8f0" font-size="46" font-family="Arial, Helvetica, sans-serif" font-weight="700">LeetCode 1042</text>
  <text x="60" y="135" fill="#94a3b8" font-size="30" font-family="Arial, Helvetica, sans-serif">Flower Planting With No Adjacent</text>
  <line x1="290" y1="260" x2="500" y2="180" stroke="#64748b" stroke-width="8"/>
  <line x1="290" y1="260" x2="500" y2="340" stroke="#64748b" stroke-width="8"/>
  <line x1="500" y1="180" x2="710" y2="260" stroke="#64748b" stroke-width="8"/>
  <line x1="500" y1="340" x2="710" y2="260" stroke="#64748b" stroke-width="8"/>
  <line x1="710" y1="260" x2="910" y2="180" stroke="#64748b" stroke-width="8"/>
  <line x1="710" y1="260" x2="910" y2="340" stroke="#64748b" stroke-width="8"/>
  <circle cx="290" cy="260" r="52" fill="#f97316"/><text x="278" y="268" fill="#fff" font-size="28" font-family="Arial" font-weight="700">1</text>
  <circle cx="500" cy="180" r="52" fill="#22c55e"/><text x="488" y="188" fill="#fff" font-size="28" font-family="Arial" font-weight="700">2</text>
  <circle cx="500" cy="340" r="52" fill="#3b82f6"/><text x="488" y="348" fill="#fff" font-size="28" font-family="Arial" font-weight="700">3</text>
  <circle cx="710" cy="260" r="52" fill="#eab308"/><text x="698" y="268" fill="#fff" font-size="28" font-family="Arial" font-weight="700">4</text>
  <circle cx="910" cy="180" r="52" fill="#22c55e"/><text x="898" y="188" fill="#fff" font-size="28" font-family="Arial" font-weight="700">2</text>
  <circle cx="910" cy="340" r="52" fill="#f97316"/><text x="898" y="348" fill="#fff" font-size="28" font-family="Arial" font-weight="700">1</text>
  <text x="60" y="575" fill="#cbd5e1" font-size="28" font-family="Arial">Each garden has ≤3 neighbors, so one of 4 colors is always available.</text>
</svg>
