<svg xmlns="http://www.w3.org/2000/svg" width="960" height="420" viewBox="0 0 960 420">
<rect width="960" height="420" fill="#0f172a"/><text x="40" y="56" fill="#e2e8f0" font-size="30" font-family="Arial">LeetCode 1038 - Reverse Inorder (Right, Root, Left)</text>
<text x="40" y="98" fill="#93c5fd" font-size="22" font-family="Arial">Visit order: 8 → 7 → 6 → 5 → 4 → 3 → 2</text>
<text x="40" y="134" fill="#a7f3d0" font-size="22" font-family="Arial">Running sum updates node value to greater-or-equal total</text>
<g fill="none" stroke="#94a3b8" stroke-width="3"><line x1="480" y1="170" x2="360" y2="240"/><line x1="480" y1="170" x2="600" y2="240"/><line x1="360" y1="240" x2="300" y2="310"/><line x1="360" y1="240" x2="420" y2="310"/><line x1="600" y1="240" x2="540" y2="310"/><line x1="600" y1="240" x2="660" y2="310"/></g>
<g font-family="Arial" font-size="20" text-anchor="middle"><circle cx="480" cy="170" r="26" fill="#1d4ed8"/><text x="480" y="176" fill="#fff">4→30</text><circle cx="360" cy="240" r="26" fill="#1d4ed8"/><text x="360" y="246" fill="#fff">2→35</text><circle cx="600" cy="240" r="26" fill="#1d4ed8"/><text x="600" y="246" fill="#fff">6→21</text><circle cx="300" cy="310" r="26" fill="#1d4ed8"/><text x="300" y="316" fill="#fff">1→36</text><circle cx="420" cy="310" r="26" fill="#1d4ed8"/><text x="420" y="316" fill="#fff">3→33</text><circle cx="540" cy="310" r="26" fill="#1d4ed8"/><text x="540" y="316" fill="#fff">5→26</text><circle cx="660" cy="310" r="26" fill="#1d4ed8"/><text x="660" y="316" fill="#fff">7→15</text></g>
</svg>
