<svg xmlns="http://www.w3.org/2000/svg" width="1200" height="630" viewBox="0 0 1200 630" role="img" aria-label="LeetCode 1028 depth parsing stack diagram">
  <defs>
    <linearGradient id="bg" x1="0" x2="1" y1="0" y2="1">
      <stop offset="0%" stop-color="#0b1220"/>
      <stop offset="100%" stop-color="#111827"/>
    </linearGradient>
  </defs>
  <rect width="1200" height="630" fill="url(#bg)"/>
  <text x="56" y="82" fill="#e5e7eb" font-size="42" font-family="Inter,Arial,sans-serif" font-weight="700">LeetCode 1028 · Recover a Tree From Preorder Traversal</text>
  <text x="56" y="122" fill="#93c5fd" font-size="24" font-family="Inter,Arial,sans-serif">Parse (depth,value) tokens and rebuild parent links with a stack</text>

  <rect x="56" y="160" width="1088" height="72" rx="12" fill="#1f2937" stroke="#334155"/>
  <text x="78" y="205" fill="#f8fafc" font-size="24" font-family="JetBrains Mono,Consolas,monospace">Input: 1-2--3--4-5--6--7</text>

  <rect x="56" y="256" width="520" height="320" rx="14" fill="#111827" stroke="#374151"/>
  <text x="78" y="292" fill="#a7f3d0" font-size="24" font-family="Inter,Arial,sans-serif">Parsed tokens</text>
  <text x="78" y="332" fill="#e5e7eb" font-size="22" font-family="JetBrains Mono,Consolas,monospace">(0,1)</text>
  <text x="78" y="366" fill="#e5e7eb" font-size="22" font-family="JetBrains Mono,Consolas,monospace">(1,2) (2,3) (2,4)</text>
  <text x="78" y="400" fill="#e5e7eb" font-size="22" font-family="JetBrains Mono,Consolas,monospace">(1,5) (2,6) (2,7)</text>
  <text x="78" y="450" fill="#93c5fd" font-size="21" font-family="Inter,Arial,sans-serif">Rule: while stack.size &gt; depth, pop</text>
  <text x="78" y="484" fill="#93c5fd" font-size="21" font-family="Inter,Arial,sans-serif">Attach to parent.left first, then parent.right</text>

  <rect x="624" y="256" width="520" height="320" rx="14" fill="#111827" stroke="#374151"/>
  <text x="646" y="292" fill="#fde68a" font-size="24" font-family="Inter,Arial,sans-serif">Recovered tree shape</text>
  <circle cx="884" cy="340" r="26" fill="#0f766e"/><text x="875" y="348" fill="#fff" font-size="20" font-family="Inter,Arial,sans-serif">1</text>
  <circle cx="774" cy="414" r="24" fill="#2563eb"/><text x="766" y="421" fill="#fff" font-size="18" font-family="Inter,Arial,sans-serif">2</text>
  <circle cx="994" cy="414" r="24" fill="#2563eb"/><text x="986" y="421" fill="#fff" font-size="18" font-family="Inter,Arial,sans-serif">5</text>
  <circle cx="706" cy="486" r="22" fill="#7c3aed"/><text x="699" y="493" fill="#fff" font-size="16" font-family="Inter,Arial,sans-serif">3</text>
  <circle cx="842" cy="486" r="22" fill="#7c3aed"/><text x="835" y="493" fill="#fff" font-size="16" font-family="Inter,Arial,sans-serif">4</text>
  <circle cx="946" cy="486" r="22" fill="#7c3aed"/><text x="939" y="493" fill="#fff" font-size="16" font-family="Inter,Arial,sans-serif">6</text>
  <circle cx="1078" cy="486" r="22" fill="#7c3aed"/><text x="1071" y="493" fill="#fff" font-size="16" font-family="Inter,Arial,sans-serif">7</text>

  <line x1="866" y1="357" x2="792" y2="394" stroke="#cbd5e1" stroke-width="3"/>
  <line x1="902" y1="357" x2="976" y2="394" stroke="#cbd5e1" stroke-width="3"/>
  <line x1="758" y1="434" x2="720" y2="470" stroke="#cbd5e1" stroke-width="3"/>
  <line x1="790" y1="434" x2="826" y2="470" stroke="#cbd5e1" stroke-width="3"/>
  <line x1="978" y1="434" x2="960" y2="468" stroke="#cbd5e1" stroke-width="3"/>
  <line x1="1010" y1="434" x2="1062" y2="468" stroke="#cbd5e1" stroke-width="3"/>

  <text x="56" y="608" fill="#86efac" font-size="20" font-family="Inter,Arial,sans-serif">Author: Tom🦞 · EN first / 中文后置 · Full code tabs included</text>
</svg>
