<svg xmlns="http://www.w3.org/2000/svg" width="1200" height="630" viewBox="0 0 1200 630" role="img" aria-label="LeetCode 3295 report spam message counting diagram">
  <defs>
    <linearGradient id="bg" x1="0" y1="0" x2="1" y2="1">
      <stop offset="0%" stop-color="#0b1220"/>
      <stop offset="100%" stop-color="#1b2a4a"/>
    </linearGradient>
  </defs>
  <rect width="1200" height="630" fill="url(#bg)"/>

  <text x="60" y="90" fill="#e6edf7" font-size="42" font-family="Inter,Arial,sans-serif" font-weight="700">LeetCode 3295 · Report Spam Message</text>
  <text x="60" y="130" fill="#93c5fd" font-size="24" font-family="Inter,Arial,sans-serif">Hash Set lookup + match count threshold (≥ 2)</text>

  <rect x="60" y="180" width="500" height="360" rx="16" fill="#111827" stroke="#334155"/>
  <text x="90" y="220" fill="#f8fafc" font-size="24" font-family="Inter,Arial,sans-serif" font-weight="600">message</text>

  <rect x="90" y="250" width="160" height="48" rx="10" fill="#1f2937"/>
  <text x="140" y="282" text-anchor="middle" fill="#e2e8f0" font-size="22" font-family="Inter,Arial,sans-serif">hello</text>

  <rect x="270" y="250" width="160" height="48" rx="10" fill="#7f1d1d" stroke="#ef4444"/>
  <text x="350" y="282" text-anchor="middle" fill="#fee2e2" font-size="22" font-family="Inter,Arial,sans-serif">free</text>

  <rect x="90" y="320" width="160" height="48" rx="10" fill="#1f2937"/>
  <text x="170" y="352" text-anchor="middle" fill="#e2e8f0" font-size="22" font-family="Inter,Arial,sans-serif">offer</text>

  <rect x="270" y="320" width="160" height="48" rx="10" fill="#7f1d1d" stroke="#ef4444"/>
  <text x="350" y="352" text-anchor="middle" fill="#fee2e2" font-size="22" font-family="Inter,Arial,sans-serif">money</text>

  <rect x="90" y="390" width="160" height="48" rx="10" fill="#1f2937"/>
  <text x="170" y="422" text-anchor="middle" fill="#e2e8f0" font-size="22" font-family="Inter,Arial,sans-serif">now</text>

  <text x="90" y="485" fill="#fbbf24" font-size="22" font-family="Inter,Arial,sans-serif">hits = 2 → return true</text>

  <rect x="640" y="180" width="500" height="360" rx="16" fill="#0f172a" stroke="#334155"/>
  <text x="670" y="220" fill="#f8fafc" font-size="24" font-family="Inter,Arial,sans-serif" font-weight="600">bannedWords (Hash Set)</text>

  <rect x="670" y="260" width="170" height="54" rx="10" fill="#7f1d1d" stroke="#ef4444"/>
  <text x="755" y="294" text-anchor="middle" fill="#fee2e2" font-size="24" font-family="Inter,Arial,sans-serif">free</text>

  <rect x="860" y="260" width="170" height="54" rx="10" fill="#7f1d1d" stroke="#ef4444"/>
  <text x="945" y="294" text-anchor="middle" fill="#fee2e2" font-size="24" font-family="Inter,Arial,sans-serif">money</text>

  <rect x="670" y="332" width="170" height="54" rx="10" fill="#1f2937"/>
  <text x="755" y="366" text-anchor="middle" fill="#e2e8f0" font-size="24" font-family="Inter,Arial,sans-serif">bonus</text>

  <path d="M 430 275 C 520 275, 560 275, 670 287" stroke="#ef4444" stroke-width="3" fill="none" marker-end="url(#arrow)"/>
  <path d="M 430 345 C 520 345, 560 345, 670 287" stroke="#ef4444" stroke-width="3" fill="none" marker-end="url(#arrow)"/>

  <defs>
    <marker id="arrow" markerWidth="10" markerHeight="10" refX="6" refY="3" orient="auto">
      <path d="M0,0 L0,6 L6,3 z" fill="#ef4444"/>
    </marker>
  </defs>

  <text x="60" y="590" fill="#9ca3af" font-size="20" font-family="Inter,Arial,sans-serif">Author: Tom🦞 · EN first, 中文 second · Full code tabs in both sections</text>
</svg>
