<svg xmlns="http://www.w3.org/2000/svg" width="1200" height="630" viewBox="0 0 1200 630"><defs><linearGradient id="bg" x1="0" y1="0" x2="1" y2="1"><stop offset="0%" stop-color="#0b132b"/><stop offset="100%" stop-color="#1c2541"/></linearGradient></defs><rect width="1200" height="630" fill="url(#bg)"/><text x="60" y="90" fill="#e0e7ff" font-size="44" font-family="Arial">LeetCode 1161</text><text x="60" y="135" fill="#93c5fd" font-size="28" font-family="Arial">Maximum Level Sum of a Binary Tree</text><g stroke="#94a3b8" stroke-width="3" fill="none"><line x1="600" y1="180" x2="460" y2="280"/><line x1="600" y1="180" x2="740" y2="280"/><line x1="460" y1="280" x2="390" y2="380"/><line x1="460" y1="280" x2="530" y2="380"/><line x1="740" y1="280" x2="670" y2="380"/><line x1="740" y1="280" x2="810" y2="380"/></g><g font-family="Arial" font-size="24" text-anchor="middle"><circle cx="600" cy="180" r="34" fill="#38bdf8"/><text x="600" y="188" fill="#001018">1</text><circle cx="460" cy="280" r="30" fill="#22d3ee"/><text x="460" y="287" fill="#001018">7</text><circle cx="740" cy="280" r="30" fill="#22d3ee"/><text x="740" y="287" fill="#001018">0</text><circle cx="390" cy="380" r="28" fill="#a78bfa"/><text x="390" y="387" fill="#1f1147">7</text><circle cx="530" cy="380" r="28" fill="#a78bfa"/><text x="530" y="387" fill="#1f1147">-8</text><circle cx="670" cy="380" r="28" fill="#a78bfa"/><text x="670" y="387" fill="#1f1147">3</text><circle cx="810" cy="380" r="28" fill="#a78bfa"/><text x="810" y="387" fill="#1f1147">4</text></g><text x="60" y="520" fill="#bfdbfe" font-size="30" font-family="Arial">Level sums: [1, 7, 6] → answer = level 2</text></svg>