<svg xmlns="http://www.w3.org/2000/svg" width="1200" height="420" viewBox="0 0 1200 420"><rect width="1200" height="420" fill="#0f172a"/><text x="50" y="70" fill="#e2e8f0" font-size="34" font-family="Arial">LeetCode 314 - Vertical Order Traversal (BFS + Column)</text><line x1="600" y1="130" x2="420" y2="220" stroke="#94a3b8" stroke-width="3"/><line x1="600" y1="130" x2="780" y2="220" stroke="#94a3b8" stroke-width="3"/><line x1="420" y1="220" x2="330" y2="310" stroke="#94a3b8" stroke-width="3"/><line x1="420" y1="220" x2="510" y2="310" stroke="#94a3b8" stroke-width="3"/><line x1="780" y1="220" x2="870" y2="310" stroke="#94a3b8" stroke-width="3"/><g fill="#1d4ed8"><circle cx="600" cy="130" r="30"/><circle cx="420" cy="220" r="30"/><circle cx="780" cy="220" r="30"/><circle cx="330" cy="310" r="30"/><circle cx="510" cy="310" r="30"/><circle cx="870" cy="310" r="30"/></g><g fill="#fff" font-size="20" font-family="Arial" text-anchor="middle"><text x="600" y="137">3</text><text x="420" y="227">9</text><text x="780" y="227">8</text><text x="330" y="317">4</text><text x="510" y="317">0</text><text x="870" y="317">7</text></g><text x="930" y="185" fill="#f8fafc" font-size="20" font-family="Arial">col -2: [4]</text><text x="930" y="215" fill="#f8fafc" font-size="20" font-family="Arial">col -1: [9]</text><text x="930" y="245" fill="#f8fafc" font-size="20" font-family="Arial">col  0: [3,0]</text><text x="930" y="275" fill="#f8fafc" font-size="20" font-family="Arial">col +1: [8]</text><text x="930" y="305" fill="#f8fafc" font-size="20" font-family="Arial">col +2: [7]</text></svg>