<svg xmlns="http://www.w3.org/2000/svg" width="1200" height="630" viewBox="0 0 1200 630">
  <rect width="1200" height="630" fill="#0f172a"/>
  <text x="60" y="90" fill="#e2e8f0" font-size="42" font-family="Arial">LeetCode 3242 · Design Neighbor Sum Service</text>
  <g transform="translate(420,180)">
    <rect x="0" y="0" width="360" height="360" fill="#111827" stroke="#64748b"/>
    <g stroke="#334155" stroke-width="2">
      <line x1="120" y1="0" x2="120" y2="360"/><line x1="240" y1="0" x2="240" y2="360"/>
      <line x1="0" y1="120" x2="360" y2="120"/><line x1="0" y1="240" x2="360" y2="240"/>
    </g>
    <rect x="120" y="120" width="120" height="120" fill="#1d4ed8" opacity="0.45"/>
    <circle cx="180" cy="180" r="8" fill="#60a5fa"/>
    <text x="172" y="185" fill="#bfdbfe" font-size="18" font-family="Arial">v</text>
    <g fill="#22c55e" opacity="0.55"><rect x="120" y="0" width="120" height="120"/><rect x="0" y="120" width="120" height="120"/><rect x="240" y="120" width="120" height="120"/><rect x="120" y="240" width="120" height="120"/></g>
    <g fill="#f59e0b" opacity="0.55"><rect x="0" y="0" width="120" height="120"/><rect x="240" y="0" width="120" height="120"/><rect x="0" y="240" width="120" height="120"/><rect x="240" y="240" width="120" height="120"/></g>
  </g>
  <text x="60" y="520" fill="#93c5fd" font-size="30" font-family="Arial">adjacentSum: up/down/left/right, diagonalSum: 4 corners</text>
</svg>
