<svg xmlns="http://www.w3.org/2000/svg" width="1200" height="630" viewBox="0 0 1200 630" role="img" aria-label="LeetCode 353 snake game movement diagram">
  <rect width="1200" height="630" fill="#0f172a"/>
  <rect x="70" y="70" width="500" height="500" rx="16" fill="#111827" stroke="#334155"/>
  <g stroke="#1f2937">
    <line x1="170" y1="70" x2="170" y2="570"/><line x1="270" y1="70" x2="270" y2="570"/><line x1="370" y1="70" x2="370" y2="570"/><line x1="470" y1="70" x2="470" y2="570"/>
    <line x1="70" y1="170" x2="570" y2="170"/><line x1="70" y1="270" x2="570" y2="270"/><line x1="70" y1="370" x2="570" y2="370"/><line x1="70" y1="470" x2="570" y2="470"/>
  </g>
  <rect x="170" y="270" width="100" height="100" fill="#22c55e"/>
  <rect x="270" y="270" width="100" height="100" fill="#16a34a"/>
  <rect x="370" y="270" width="100" height="100" fill="#16a34a"/>
  <circle cx="520" cy="220" r="24" fill="#f43f5e"/>
  <text x="620" y="150" fill="#e2e8f0" font-size="44" font-family="Inter,Arial,sans-serif" font-weight="700">LeetCode 353</text>
  <text x="620" y="210" fill="#93c5fd" font-size="30" font-family="Inter,Arial,sans-serif">Design Snake Game</text>
  <text x="620" y="280" fill="#cbd5e1" font-size="28" font-family="Inter,Arial,sans-serif">Deque: head/tail updates in O(1)</text>
  <text x="620" y="330" fill="#cbd5e1" font-size="28" font-family="Inter,Arial,sans-serif">Hash Set: collision check in O(1)</text>
  <text x="620" y="380" fill="#86efac" font-size="28" font-family="Inter,Arial,sans-serif">Important: remove tail before self-check</text>
  <text x="620" y="450" fill="#94a3b8" font-size="24" font-family="Inter,Arial,sans-serif">Author: Tom🦞</text>
</svg>