<svg xmlns="http://www.w3.org/2000/svg" width="960" height="420" viewBox="0 0 960 420">
  <defs><style>.t{font:20px sans-serif;fill:#e6edf3}.s{font:16px sans-serif;fill:#9fb3c8}</style></defs>
  <rect width="960" height="420" fill="#0d1117"/>
  <text x="40" y="50" class="t">LeetCode 296 - Best Meeting Point</text>
  <text x="40" y="82" class="s">Optimal meeting point is median row and median column (Manhattan distance)</text>
  <g transform="translate(60,120)">
    <rect x="0" y="0" width="420" height="240" fill="#161b22" stroke="#30363d"/>
    <g stroke="#30363d">
      <line x1="84" y1="0" x2="84" y2="240"/><line x1="168" y1="0" x2="168" y2="240"/><line x1="252" y1="0" x2="252" y2="240"/><line x1="336" y1="0" x2="336" y2="240"/>
      <line x1="0" y1="48" x2="420" y2="48"/><line x1="0" y1="96" x2="420" y2="96"/><line x1="0" y1="144" x2="420" y2="144"/><line x1="0" y1="192" x2="420" y2="192"/>
    </g>
    <circle cx="42" cy="24" r="14" fill="#58a6ff"/><circle cx="210" cy="120" r="14" fill="#58a6ff"/><circle cx="378" cy="216" r="14" fill="#58a6ff"/>
    <circle cx="210" cy="120" r="20" fill="none" stroke="#f2cc60" stroke-width="3"/>
    <text x="228" y="126" class="s">median meeting point</text>
  </g>
</svg>