<svg xmlns="http://www.w3.org/2000/svg" width="1200" height="630" viewBox="0 0 1200 630" role="img" aria-label="LeetCode 787 diagram">
  <defs><linearGradient id="bg" x1="0" y1="0" x2="1" y2="1"><stop offset="0%" stop-color="#111827"/><stop offset="100%" stop-color="#1f2937"/></linearGradient></defs>
  <rect width="1200" height="630" fill="url(#bg)"/>
  <text x="60" y="95" fill="#e5e7eb" font-size="44" font-family="Arial">LeetCode 787 - Cheapest Flights Within K Stops</text>
  <rect x="70" y="150" width="1060" height="380" rx="16" fill="#0b1220" stroke="#374151"/>
  <circle cx="220" cy="290" r="28" fill="#93c5fd"/><text x="210" y="298" fill="#111827" font-size="16">0</text>
  <circle cx="500" cy="250" r="28" fill="#93c5fd"/><text x="490" y="258" fill="#111827" font-size="16">1</text>
  <circle cx="500" cy="380" r="28" fill="#93c5fd"/><text x="490" y="388" fill="#111827" font-size="16">2</text>
  <circle cx="800" cy="315" r="28" fill="#86efac"/><text x="790" y="323" fill="#111827" font-size="16">3</text>
  <path d="M248 284 L472 256" stroke="#fbbf24" stroke-width="4" marker-end="url(#a)"/>
  <path d="M248 300 L472 374" stroke="#fbbf24" stroke-width="4" marker-end="url(#a)"/>
  <path d="M528 250 L772 305" stroke="#fbbf24" stroke-width="4" marker-end="url(#a)"/>
  <path d="M528 380 L772 325" stroke="#fbbf24" stroke-width="4" marker-end="url(#a)"/>
  <defs><marker id="a" markerWidth="10" markerHeight="10" refX="9" refY="3" orient="auto"><polygon points="0 0, 10 3, 0 6" fill="#fbbf24"/></marker></defs>
  <text x="290" y="275" fill="#f3f4f6" font-size="24">100</text><text x="290" y="345" fill="#f3f4f6" font-size="24">500</text><text x="620" y="265" fill="#f3f4f6" font-size="24">100</text><text x="620" y="365" fill="#f3f4f6" font-size="24">100</text>
  <text x="90" y="575" fill="#cbd5e1" font-size="26">Relax edges for exactly k+1 rounds (snapshot per round)</text>
</svg>