<svg xmlns="http://www.w3.org/2000/svg" width="1200" height="630" viewBox="0 0 1200 630"><rect width="1200" height="630" fill="#0f172a"/><g stroke="#64748b" stroke-width="2"><line x1="360" y1="150" x2="360" y2="470"/><line x1="400" y1="150" x2="400" y2="470"/><line x1="440" y1="150" x2="440" y2="470"/><line x1="480" y1="150" x2="480" y2="470"/><line x1="520" y1="150" x2="520" y2="470"/><line x1="560" y1="150" x2="560" y2="470"/><line x1="600" y1="150" x2="600" y2="470"/><line x1="640" y1="150" x2="640" y2="470"/><line x1="680" y1="150" x2="680" y2="470"/><line x1="360" y1="150" x2="680" y2="150"/><line x1="360" y1="190" x2="680" y2="190"/><line x1="360" y1="230" x2="680" y2="230"/><line x1="360" y1="270" x2="680" y2="270"/><line x1="360" y1="310" x2="680" y2="310"/><line x1="360" y1="350" x2="680" y2="350"/><line x1="360" y1="390" x2="680" y2="390"/><line x1="360" y1="430" x2="680" y2="430"/><line x1="360" y1="470" x2="680" y2="470"/></g><text x="70" y="100" fill="#e2e8f0" font-size="46" font-family="Arial">LeetCode 3274</text><text x="70" y="150" fill="#93c5fd" font-size="34" font-family="Arial">Check if Two Chessboard Squares Have the Same Color</text><text x="70" y="220" fill="#cbd5e1" font-size="30" font-family="Arial">Compare parity: (col + row) % 2</text><circle cx="420" cy="430" r="16" fill="#f59e0b"/><circle cx="620" cy="350" r="16" fill="#f59e0b"/><text x="70" y="560" fill="#86efac" font-size="28" font-family="Arial">Author: Tom🦞</text></svg>