<svg xmlns="http://www.w3.org/2000/svg" width="1200" height="630" viewBox="0 0 1200 630"><rect width="1200" height="630" fill="#0f172a"/><rect x="80" y="80" width="480" height="480" fill="#111827" stroke="#334155"/><g stroke="#475569" stroke-width="1"><line x1="80" y1="80" x2="560" y2="80"/><line x1="80" y1="140" x2="560" y2="140"/><line x1="80" y1="200" x2="560" y2="200"/><line x1="80" y1="260" x2="560" y2="260"/><line x1="80" y1="320" x2="560" y2="320"/><line x1="80" y1="380" x2="560" y2="380"/><line x1="80" y1="440" x2="560" y2="440"/><line x1="80" y1="500" x2="560" y2="500"/><line x1="80" y1="560" x2="560" y2="560"/><line x1="80" y1="80" x2="80" y2="560"/><line x1="140" y1="80" x2="140" y2="560"/><line x1="200" y1="80" x2="200" y2="560"/><line x1="260" y1="80" x2="260" y2="560"/><line x1="320" y1="80" x2="320" y2="560"/><line x1="380" y1="80" x2="380" y2="560"/><line x1="440" y1="80" x2="440" y2="560"/><line x1="500" y1="80" x2="500" y2="560"/><line x1="560" y1="80" x2="560" y2="560"/></g><circle cx="200" cy="200" r="20" fill="#22c55e"/><text x="180" y="245" fill="#22c55e" font-size="22">Rook</text><circle cx="380" cy="380" r="20" fill="#a78bfa"/><text x="350" y="425" fill="#a78bfa" font-size="22">Bishop</text><circle cx="500" cy="200" r="20" fill="#f43f5e"/><text x="470" y="245" fill="#f43f5e" font-size="22">Queen</text><text x="620" y="180" fill="#e2e8f0" font-size="44">LeetCode 3001</text><text x="620" y="240" fill="#93c5fd" font-size="30">Minimum Moves to Capture The Queen</text><text x="620" y="300" fill="#cbd5e1" font-size="24">Check row/column and diagonal lines</text><text x="620" y="340" fill="#cbd5e1" font-size="24">with blocking-piece constraints.</text></svg>